<svg width="1329" height="785" viewBox="0 0 1329 785" fill="none" xmlns="http://www.w3.org/2000/svg">
<g opacity="0.15">
<path d="M228.801 297.078C205.271 295.432 186.78 306.7 185.177 307.72C166.894 319.196 169.456 335.149 169.664 336.274C171.038 343.647 175.89 346.25 172.579 350.832C168.789 356.06 159.523 356.747 144.947 361.745C132.703 365.953 129.351 368.868 116.337 375.47C73.3166 397.256 50.5365 395.402 42.6654 409.064C36.0646 420.478 45.4557 433.099 49.4537 433.14C52.5146 433.182 51.6401 425.851 61.5726 417.749C64.6543 415.229 75.274 407.377 92.1196 405.149C101.511 403.92 101.677 405.899 118.773 404.878C129.497 404.233 131.87 403.316 143.011 402.629C154.671 401.921 157.753 402.587 166.769 402.358C193.943 401.608 197.816 394.694 216.703 395.923C232.174 396.922 230.591 401.65 244.334 401.796C256.349 401.921 267.531 397.401 289.895 388.362C301.951 383.489 303.409 382.156 304.138 380.677C307.365 374.242 294.58 369.535 286.98 358.684C280.337 349.208 285.376 346.084 282.128 335.733C277.609 321.3 259.056 299.202 228.801 297.078Z" fill="#703CBB"/>
<path d="M221.554 296.974C224.407 296.744 227.697 286.581 224.449 276.646C223.158 272.731 221.179 269.836 223.97 266.858C227.01 263.567 232.57 263.609 233.673 260.693C234.714 257.944 230.987 254.445 226.406 253.133C222.408 251.987 219.93 253.091 213.808 252.008C210.081 251.342 207.332 250.279 205.562 249.488C205.75 248.259 207.395 239.387 220.097 234.93C229.987 231.452 240.586 232.764 244.334 233.243C265.511 236.034 264.366 246.635 281.17 250.029C306.032 255.07 327.063 235.617 353.883 241.636C362.296 243.531 360.047 245.406 373.124 249.759C377.476 251.217 408.897 261.693 425.618 255.07C434.884 251.404 427.908 247.155 440.152 227.64C445.233 219.539 450.126 214.395 445.92 209.271C443.088 205.814 436.092 205.647 434.343 201.898C432.802 198.628 437.716 197.483 438.091 193.526C438.736 186.715 431.99 179.03 426.347 179.072C420.87 179.114 420.391 186.528 409.793 188.444C405.357 189.256 403.608 188.298 401.005 189.485C395.217 192.13 400.547 198.358 395.571 200.399C391.219 202.19 384.868 198.316 379.412 200.399C376.372 201.565 377.392 203.127 373.019 205.814C370.833 207.168 366.19 209.479 364.211 208.792C361.983 208.021 362.795 203.273 366.793 199.836C369.75 197.296 372.79 196.9 372.895 195.109C373.019 193.193 369.605 192.818 366.835 190.214C362.275 185.882 367.626 183.133 363.441 178.447C360.318 174.948 355.466 174.428 356.028 172.324C356.653 169.929 363.233 169.283 363.087 167.18C362.962 165.618 359.276 165.368 359.089 164.035C358.693 161.265 373.811 158.662 382.348 157.183C392.884 155.371 396.799 155.433 400.047 156.475C401.214 156.85 404.441 157.891 405.753 159.911C407.106 162.015 405.378 163.639 407.335 165.014C408.543 165.868 410.271 166.013 412.062 166.243C421.766 167.555 425.389 171.179 427.575 170.345C430.345 169.304 423.556 163.91 427.575 160.265C430.574 157.537 438.736 156.558 441.152 158.016C444.65 160.14 433.78 165.972 437.924 172.574C439.403 174.927 440.964 174.49 443.338 177.385C447.315 182.238 444.358 185.299 445.525 190.964C446.42 195.275 450.106 203.065 456.436 203.71C463.078 204.377 465.223 196.442 480.278 192.943C489.294 190.839 494.396 192.318 497.415 189.777C501.038 186.695 494.791 183.571 495.812 176.823C496.624 171.47 500.872 171.303 504.057 164.826C506.265 160.328 504.911 158.953 504.849 147.811C504.765 133.773 506.889 134.69 505.182 130.837C503.225 126.421 497.165 121.985 485.15 113.3C476.655 107.156 472.428 104.095 465.431 100.054C451.23 91.8277 444.129 87.704 432.469 85.1214C420.475 82.4556 415.206 83.8926 410.167 80.4562C405.066 76.9781 408.397 74.0623 405.003 65.8981C401.922 58.4837 394.634 49.9238 388.845 50.2154C385.534 50.382 386.242 53.277 379.787 56.9425C372.187 61.2745 366.148 60.1082 361.858 64.1695C359.672 66.2313 358.027 69.5637 360.401 71.4797C362.4 73.0834 365.502 72.3128 369.605 74.3747C370.396 74.7704 374.04 76.6032 374.415 79.2899C374.748 81.6433 372.416 83.3928 369.271 85.7462C366.231 88.0164 363.004 90.4531 360.547 90.0366C357.048 89.4534 360.609 84.1217 354.883 79.3107C350.198 75.3536 344.284 76.02 341.639 72.2295C339.307 68.8972 343.139 67.356 341.473 64.6693C338.12 59.2543 320.15 61.941 306.886 56.4635C295.788 51.8607 300.41 46.654 289.916 35.6573C287.542 33.1581 269.322 13.9764 241.44 13.2683C236.609 13.1434 226.781 12.2061 222.491 15.2885C220.867 16.4548 219.951 19.6414 218.181 25.952C217.431 28.6595 216.848 30.9713 215.911 30.9921C214.933 31.0129 215.245 28.4512 212.392 26.431C209.227 24.1608 201.981 22.4114 197.171 24.2858C192.86 25.952 191.923 29.9716 194.11 32.4083C196.525 35.1367 201.835 34.8242 204.209 38.0316C205.312 39.5311 205.583 41.5514 204.292 42.0096C202.501 42.6344 197.087 40.4059 194.276 37.5318C192.819 36.0322 193.214 35.5324 192.007 35.1158C188.383 33.7829 180.617 36.8653 176.327 39.5103C174.495 40.635 172.558 41.8221 171.309 43.7174C169.58 46.3624 170.122 48.9866 172.766 54.0684C177.431 63.024 180.7 64.2736 179.388 65.7315C174.661 71.0007 126.748 61.1704 126.061 62.3783C125.582 63.2323 149.528 69.5428 164.833 71.8963C169.206 72.5627 172.85 72.9168 177.764 74.4997C183.24 76.2699 184.552 77.7487 188.259 77.7695C192.381 77.7903 193.423 75.9784 198.753 75.062C202.939 74.333 206.458 74.7496 210.706 75.2494C216.203 75.9159 229.384 77.4779 235.589 82.7055C237.963 84.7049 239.962 87.7456 236.568 99.492C230.883 119.174 221.804 123.047 223.97 134.773C225.323 142.104 229.3 142.875 227.364 147.373C223.47 156.433 206.374 155.558 193.922 165.014C185.323 171.533 193.027 172.303 182.282 199.732C180.575 204.085 177.285 211.979 175.973 222.975C175.577 226.349 175.369 228.015 175.494 229.411C176.514 241.511 189.612 244.344 199.732 257.965C205.104 265.192 201.814 264.921 212.829 285.123C218.035 294.662 220.097 297.078 221.554 296.974Z" fill="#703CBB"/>
<path d="M562.3 129.129C565.84 135.981 582.623 134.461 588.474 140.875C596.512 149.706 574.356 163.119 551.639 182.3C521.362 207.834 496.916 237.783 505.1 241.636C510.972 244.406 526.151 230.265 558.427 227.641C593.951 224.746 604.654 239.512 633.077 236.034C660.979 232.618 658.501 217.456 702.875 199.087C728.154 188.632 754.557 186.986 753.849 180.842C753.412 177.031 743.563 177.052 732.256 168.367C723.51 161.64 726.217 159.161 717.326 153.476C708.601 147.873 704.332 149.206 696.232 143.812C687.383 137.918 691.006 135.335 683.135 128.691C678.47 124.755 669.288 121.256 651.151 114.425C636.325 108.843 628.787 106.032 622.957 105.261C601.364 102.408 583.789 109.093 582.644 109.51C571.212 113.8 558.843 122.423 562.3 129.129Z" fill="#703CBB"/>
<path d="M785.291 346.354C785.562 341.606 786.582 322.987 776.567 314.447C766.967 306.242 744.395 304.888 731.964 305.492C706.227 306.741 700.959 317.551 677.679 316.697C660.667 316.072 653.775 309.928 645.695 312.781C636.575 315.989 642.53 324.736 629.204 332.379C628.142 332.983 622.978 335.878 614.669 337.42C611.9 337.94 598.303 340.46 592.368 336.857C586.6 333.358 591.327 326.006 593.347 322.862C599.614 313.114 611.109 309.532 608.86 307.179C607.006 305.242 597.907 306.262 584.622 307.741C572.711 309.074 566.756 309.72 564.257 311.657C558.718 315.947 567.589 320.466 565.236 331.255C563.445 339.398 556.865 343.834 555.532 344.688C553.2 346.209 545.454 351.249 538.083 350.291C529.337 349.145 529.566 340.689 522.57 340.21C516.635 339.815 509.368 345.438 508.036 350.853C506.994 354.998 508.973 360.829 515.782 363.162C524.819 366.265 532.898 359.954 550.681 360.912C561.071 361.475 575.335 364.536 577.834 369.868C578.5 371.305 577.834 371.867 572.024 384.426C569.942 388.946 568.734 391.653 571.045 392.819C573.128 393.861 577.147 393.215 579.5 392.84C585.83 391.82 588.349 389.633 589.474 390.029C592.056 390.966 578.667 402.691 583.664 405.711C587.35 407.94 597.407 403.15 603.05 405.711C609.11 408.46 601.384 415.687 608.86 421.394C613.399 424.851 619.729 424.851 619.521 426.434C619.229 428.704 605.757 431.891 594.305 429.787C573.648 425.997 567.88 406.503 568.151 405.795C568.151 405.795 568.172 405.732 568.13 405.732C567.672 405.524 561.946 411.022 558.427 410.585C555.095 410.168 557.615 404.941 551.972 399.005C547.766 394.61 542.893 393.84 543.247 391.361C543.705 388.112 554.45 388.342 555.532 385.384C556.74 382.031 545.017 377.866 535.168 374.367C523.757 370.305 516.906 371.618 512.554 367.64C509.722 365.078 509.889 362.516 506.099 361.662C503.392 361.058 502.205 362.12 496.396 362.599C489.17 363.203 487.275 361.87 481.362 362.516C476.614 363.016 474.99 364.182 470.867 365.411C459.685 368.723 452.709 365.848 441.777 367.473C432.47 368.848 426.931 372.513 420.455 376.803C415.728 379.927 397.966 391.674 402.839 403.212C404.275 406.607 413.833 412.23 432.886 423.373C447.983 432.182 454.438 435.473 453.251 439.618C452.064 443.721 444.942 443.283 437.738 449.136C427.264 457.654 435.76 463.923 426.098 469.858C417.56 475.107 408.003 472.004 400.402 477.981C396.425 481.105 398.549 482.355 393.614 489.186C390.199 493.914 388.096 494.809 381.974 500.953C373 509.95 368.523 514.449 369.376 517.74C371.146 524.654 387.471 530.861 402.818 531.465C422.287 532.214 425.952 523.342 452.272 521.384C471.179 519.989 475.594 524.092 486.213 520.822C501.601 516.073 496.416 506.16 511.43 501.224C521.341 497.954 526.401 501.37 552.638 500.391C564.257 499.953 588.745 499.037 590.931 493.955C593.097 488.915 572.191 482.188 573.482 481.084C574.627 480.105 590.348 486.041 613.711 489.769C637.616 493.56 642.322 490.706 643.28 490.04C647.653 486.999 642.884 481.48 645.695 480.793C647.861 480.272 651.567 483.313 660.23 488.624C667.767 493.247 670.433 492.956 671.37 495.059C673.223 499.141 665.789 501.078 666.997 505.972C667.976 509.971 673.306 510.409 673.785 513.803C674.347 517.885 667.101 520.135 661.188 524.446C648.444 533.693 648.84 547.251 652.942 548.23C657.023 549.209 662.562 537.296 679.595 533.402C695.295 529.819 713.619 534.651 727.591 539.837C725.863 543.044 723.281 548.085 720.803 554.395C715.702 567.37 715.702 573.66 708.205 575.659C701.584 577.43 696.67 573.868 691.235 575.93C687.07 577.534 686.779 582.803 686.383 593.279C686.133 599.673 686.508 604.338 686.8 607.087C687.341 612.357 687.612 614.981 688.34 616.793C692.984 628.498 714.223 635.433 715.493 634.704C716.68 634.017 698.648 627.206 698.523 616.501C698.481 613.544 699.876 614.127 702.396 604.192C703.791 598.715 703.791 596.882 706.269 594.112C709.871 590.072 712.766 590.697 715.473 587.114C718.887 582.595 715.119 580.512 718.867 576.201C721.574 573.077 726.613 570.599 728.57 571.161C731.381 571.973 724.718 578.305 729.549 582.366C734.026 586.135 747.373 587.052 752.808 584.053C757.556 581.429 753.433 577.388 758.617 572.286C762.012 568.953 767.113 566.1 769.279 566.683C772.069 567.433 767.842 573.306 771.694 574.806C774.755 575.993 778.92 572.848 785.75 572.848C794.245 572.848 796.223 577.68 804.657 579.846C818.171 583.303 840.118 577.826 849.738 569.495C857.297 562.934 854.59 556.915 860.399 556.061C865.855 555.27 874.913 559.602 875.912 565.017C876.829 569.911 865.834 572.494 867.667 574.806C869.187 576.722 878.016 577.305 882.701 575.076C887.511 572.806 884.075 569.432 888.51 566.121C894.528 561.643 909.874 560.997 914.206 564.163C916.996 566.204 913.498 568.641 915.663 570.036C922.389 574.41 966.304 557.248 968.99 559.394C970.531 560.622 956.809 566.891 958.808 568.641C960.141 569.807 968.199 568.662 973.842 566.121C979.527 563.559 984.962 558.602 983.046 554.083C980.734 548.605 969.24 547.626 969.948 544.836C970.698 541.961 983.587 540.212 994.186 540.358C1010.84 540.587 1023.67 545.502 1029.09 547.626C1042.93 553.083 1042.08 556.27 1053.32 558.831C1066.4 561.81 1077.44 559.727 1078.04 561.351C1078.66 562.997 1067.57 566.079 1058.17 567.787C1044.58 570.244 1040.58 568.724 1032.48 570.869C1018.51 574.576 1010.64 584.407 1013.57 586.26C1017.09 588.489 1033.92 577.888 1063.51 575.909C1067.42 575.639 1089.93 572.848 1093.55 577.034C1095.16 578.888 1091.82 580.616 1093.55 582.074C1097.74 585.573 1120.06 578.034 1126.99 582.345C1130.6 584.594 1128.2 588.885 1129.91 589.072C1132.07 589.301 1133.26 581.97 1142.03 579.283C1142.69 579.075 1148.96 577.055 1154.21 578.471C1160.1 580.075 1161.93 585.302 1162.71 587.489C1163.89 590.863 1163.1 592.821 1165.29 593.467C1167.14 594.008 1168.68 592.883 1174.01 592.154C1180.26 591.301 1182.03 592.3 1183.72 591.405C1186.82 589.759 1182.49 585.448 1180.15 578.909C1177.78 572.202 1180.32 571.057 1178.86 566.6C1176.93 560.685 1171.16 558.686 1148.32 545.419C1128.12 533.693 1123.87 530.194 1125.06 526.383C1126.41 521.988 1133.78 520.343 1132.32 517.136C1130.62 513.387 1119.96 514.449 1115.35 510.138C1109.63 504.764 1122.04 499.224 1117.29 493.351C1112.46 487.374 1097.82 490.873 1085.31 482.709C1079.29 478.793 1077.91 474.899 1072.21 474.586C1066.07 474.253 1062.61 478.522 1059.11 477.669C1054.95 476.648 1054.03 469.171 1059.59 466.755C1063.76 464.943 1068.44 467.297 1072.19 465.631C1078.48 462.861 1075.52 451.76 1067.82 450.239C1062.4 449.177 1059.03 453.697 1051.82 453.322C1040.83 452.739 1028.84 441.159 1033.9 434.015C1038.73 427.184 1056.26 428.538 1060.55 421.977C1064.09 416.562 1047.6 411.876 1050.37 406.024C1052.05 402.462 1060.84 402.962 1061.51 400.15C1062.26 396.985 1053.03 392.507 1043.58 392.028C1034.67 391.57 1032.98 395.027 1024.19 395.381C1010.62 395.923 1008.22 387.967 991.229 385.863C977.507 384.176 974.196 388.758 958.746 386.696C947.626 385.218 939.859 381.573 935.965 379.698C920.64 372.346 922.243 366.202 914.143 365.432C903.169 364.391 897.964 375.512 875.85 378.032C867.063 379.032 863.252 377.803 862.273 377.47C853.903 374.554 853.07 366.161 855.485 360.683C859.275 352.04 873.955 344.126 889.905 343.043C905.876 341.96 912.519 348.458 933.05 346.688C939.839 346.104 949.958 344.459 950.021 342.481C950.083 339.856 932.28 337.274 918.516 336.607C905.939 336.003 897.048 337.045 879.244 339.127C854.028 342.085 849.53 344.647 847.26 346.396C841.617 350.707 841.451 356.164 841.451 357.039C841.367 363.891 848.135 367.806 845.823 369.077C843.325 370.43 833.288 367.098 825.958 363.766C810.674 356.789 807.385 349.895 799.784 350.332C794.016 350.666 791.393 354.914 788.144 354.248C784.792 353.477 785.187 348.229 785.291 346.354Z" fill="#703CBB"/>
<path d="M513.823 535.213C505.973 539.837 494.146 546.814 478.279 546.793C475.697 546.793 470.262 546.772 469.221 545.294C467.68 543.086 478.175 540.795 485.046 533.172C488.648 529.195 488.378 526.924 491.834 526.258C496.415 525.383 499.226 528.924 507.66 529.424C515.656 529.903 521.007 527.195 522.194 528.111C523.797 529.319 515.197 534.401 513.823 535.213Z" fill="#703CBB"/>
<path d="M727.112 620.313C720.49 619.854 714.785 616.314 712.89 612.482C710.787 608.212 712.828 602.443 718.054 601.277C726.092 599.506 735.025 610.024 746.811 608.545C754.827 607.546 757.701 601.776 760.054 602.38C762.469 603.005 762.157 609.774 755.535 613.96C752.141 616.085 746.811 617.126 736.149 619.188C729.861 620.396 728.257 620.375 727.112 620.313Z" fill="#703CBB"/>
<path d="M770.756 661.925C770.277 659.905 780.71 659.03 781.751 655.947C783.083 651.97 767.154 648.637 768.507 645.68C769.549 643.347 781.147 641.556 787.893 644.18C794.744 646.867 789.83 651.49 796.951 661.342C800.887 666.798 804.406 668.152 806.009 673.65C806.384 674.942 808.258 681.919 804.073 682.981C801.47 683.647 796.764 681.981 794.703 679.815C791.933 676.899 795.182 674.338 792.433 672.901C789.663 671.464 785.374 673.609 782.084 672.151C778.669 670.63 781.772 667.59 777.878 664.882C774.9 662.841 771.048 663.154 770.756 661.925Z" fill="#703CBB"/>
<path d="M638.26 677.212C641.821 680.086 646.777 681.96 658.937 684.668C676.616 688.625 677.47 687.209 681.239 689.333C686.215 692.124 687.256 697.102 689.318 707.057C690.692 713.638 689.693 714.534 691.9 717.887C694.794 722.261 699.063 724.676 697.064 726.842C696.085 727.905 693.92 728.613 690.609 731.695C690.38 731.903 690.193 732.07 689.984 732.278C689.485 732.778 684.216 738.193 687.361 740.276C690.317 742.213 700.104 740.859 701.249 738.589C702.291 736.527 695.835 734.444 697.043 732.799C698.168 731.299 704.789 731.591 706.747 731.674C723.571 732.341 738.606 729.446 741.333 728.884C757.284 725.53 766.737 714.367 769.132 706.495C771.235 699.559 766.904 698.289 769.777 690.062C772.963 680.94 780.959 674.942 779.148 674.192C776.857 673.255 766.008 683.772 757.18 682.398C750.6 681.377 746.123 673.942 750.079 670.464C753.14 667.756 759.574 668.923 761.386 666.548C763.718 663.508 756.617 657.072 748.455 656.468C740.438 655.864 735.295 661.196 730.36 659.821C726.216 658.676 728.902 654.698 724.55 652.74C718.283 649.908 708.85 656.468 695.461 654.989C684.383 653.761 683.446 648.45 672.847 648.262C666.371 648.158 659.541 650.012 655.398 652.74C648.859 657.051 653.294 660.675 646.34 665.049C641.196 668.298 635.907 668.131 634.7 671.026C633.679 673.525 636.595 675.879 638.26 677.212Z" fill="#703CBB"/>
<path d="M514.322 119.882C499.83 120.027 487.565 108.906 470.698 93.5772C459.871 83.7468 459.017 80.8311 450.334 77.3321C436.736 71.8755 428.053 74.7288 418.35 69.5012C406.044 62.8782 403.191 49.2574 412.041 44.5921C417.455 41.7388 423.618 44.1339 446.461 45.4252C481.63 47.4246 491.334 43.1759 502.203 48.5076C514.052 54.3183 513.073 64.5652 518.195 64.4611C522.985 64.3569 521.756 53.4436 530.397 51.8191C537.436 50.4861 547.077 56.0261 550.846 58.1921C558.009 62.2951 557.176 64.2528 564.651 67.8559C568.482 69.6886 568.274 68.9805 578.727 72.8752C590.95 77.4154 593.407 79.2066 594.448 80.0396C597.968 82.8096 599.238 85.4755 600.258 87.5998C602.382 92.0152 604.11 95.6182 601.549 98.0758C597.26 102.179 585.64 98.3257 568.108 101.721C565.401 102.241 563.318 102.762 537.082 112.363C517.446 119.507 516.842 119.861 514.322 119.882Z" fill="#703CBB"/>
<path d="M760.407 777.244C749.683 777.306 746.143 775.953 739.084 777.244C736.794 777.66 733.462 778.306 732.942 779.66C732.38 781.201 735.503 783.305 739.084 783.95C743.978 784.846 747.226 782.617 755.555 781.534C760.865 780.847 765.529 781.097 767.841 781.159C773.421 781.326 773.65 781.805 778.19 781.909C783.375 782.013 792.995 781.618 794.015 779.493C794.619 778.264 791.725 777.66 790.142 775.39C786.79 770.579 793.682 764.643 793.37 764.56C793.099 764.498 790.787 770.038 783.021 773.516C778.835 775.39 774.15 776.161 772.026 776.494C767.695 777.202 764.301 777.223 760.407 777.244Z" fill="#703CBB"/>
<path d="M126.04 49.299V62.3159L174.307 70.3551H183.365V58.0255L126.04 49.299Z" fill="#703CBB"/>
<path d="M170.311 46.4249V33.408L177.328 38.469L170.311 46.4249Z" fill="#703CBB"/>
<path d="M192.943 16.3091V29.3259L210.893 32.4291L207.165 18.6208L192.943 16.3091Z" fill="#703CBB"/>
<path d="M359.215 68.5431V56.5259L371.771 58.2546L367.128 68.5431H359.215Z" fill="#703CBB"/>
<path d="M406.878 53.6727V39.8435L415.728 44.363L406.878 53.6727Z" fill="#703CBB"/>
<path d="M602.82 82.5597V95.6182L593.429 88.4121L602.82 82.5597Z" fill="#703CBB"/>
<path d="M561.736 126.4C561.82 125.713 561.736 113.925 561.736 113.925L570.17 115.008L561.736 126.4Z" fill="#703CBB"/>
<path d="M503.518 238.783V226.224L510.16 228.994L503.518 238.783Z" fill="#703CBB"/>
<path d="M753.87 180.863V167.846L735.15 173.303L735.921 177.739L753.87 180.863Z" fill="#703CBB"/>
<path d="M505.224 160.265V147.061L504.516 148.519L505.224 160.265Z" fill="#703CBB"/>
<path d="M505.766 133.211V120.152L502.538 127.004L505.766 133.211Z" fill="#703CBB"/>
<path d="M498.457 187.965V174.907L492.147 176.781L492.835 184.216L498.457 187.965Z" fill="#703CBB"/>
<path d="M436.946 169.679V157.058L443.943 160.265L436.946 169.679Z" fill="#703CBB"/>
<path d="M428.2 156.641V168.908L422.641 163.722L428.2 156.641Z" fill="#703CBB"/>
<path d="M372.896 182.092V195.13L360.693 192.485V184.57L372.896 182.092Z" fill="#703CBB"/>
<path d="M438.112 179.447V192.589L430.74 182.092L438.112 179.447Z" fill="#703CBB"/>
<path d="M447.502 200.503V213.103L439.465 208.771L447.502 200.503Z" fill="#703CBB"/>
<path d="M233.757 246.114V260.693L220.701 252.029L233.757 246.114Z" fill="#703CBB"/>
<path d="M175.452 215.165V229.348L180.575 223.308L175.452 215.165Z" fill="#703CBB"/>
<path d="M223.636 131.42V118.611L228.966 120.132L223.636 131.42Z" fill="#703CBB"/>
<path d="M40.375 418.145V404.524L46.1429 410.46L40.375 418.145Z" fill="#703CBB"/>
<path d="M304.616 378.99V365.973L293.08 368.598L304.616 378.99Z" fill="#703CBB"/>
<path d="M369.376 517.656V502.973L377.83 507.243L369.376 517.656Z" fill="#703CBB"/>
<path d="M469.076 544.815V531.714L522.237 515.095V528.111L469.076 544.815Z" fill="#703CBB"/>
<path d="M590.91 480.834V493.872L574.127 483.979L590.91 480.834Z" fill="#703CBB"/>
<path d="M667.017 492.872V503.848C667.017 503.848 676.47 503.057 676.47 502.348C676.47 501.64 667.017 492.872 667.017 492.872Z" fill="#703CBB"/>
<path d="M650.4 529.944V542.336L658.563 536.13L650.4 529.944Z" fill="#703CBB"/>
<path d="M402.025 399.755V386.8L408.98 393.277L402.025 399.755Z" fill="#703CBB"/>
<path d="M555.533 385.363V372.326L539.479 376.262L555.533 385.363Z" fill="#703CBB"/>
<path d="M507.784 339.294V352.332H558.3L553.657 344.043L507.784 339.294Z" fill="#703CBB"/>
<path d="M569.816 391.257C569.816 390.278 569.816 378.22 569.816 378.22L578.854 380.365L569.816 391.257Z" fill="#703CBB"/>
<path d="M582.518 403.566V390.508L590.16 392.944L582.518 403.566Z" fill="#703CBB"/>
<path d="M562.445 314.364V301.326L569.483 309.261L562.445 314.364Z" fill="#703CBB"/>
<path d="M609.13 307.845V294.828L591.909 306.012L609.13 307.845Z" fill="#703CBB"/>
<path d="M841.637 342.626L841.596 356.018L881.846 340.898C881.846 340.898 932.321 340.439 933.258 340.898C934.195 341.356 950.124 342.418 950.124 342.418V329.38L879.306 327.86L841.637 342.626Z" fill="#703CBB"/>
<path d="M1061.59 387.071V399.359L1044.8 393.215L1061.59 387.071Z" fill="#703CBB"/>
<path d="M1061.05 407.94V420.311C1061.05 420.311 1043.56 412.876 1044.03 412.251C1044.49 411.626 1061.05 407.94 1061.05 407.94Z" fill="#703CBB"/>
<path d="M1075.66 446.845V459.882L1065.13 451.322L1075.66 446.845Z" fill="#703CBB"/>
<path d="M1118.43 483.042V496.079L1111.4 490.873L1118.43 483.042Z" fill="#703CBB"/>
<path d="M1132.49 504.494V517.865L1118.93 514.678L1132.49 504.494Z" fill="#703CBB"/>
<path d="M1184.8 589.988V576.263L1174.74 578.2L1184.8 589.988Z" fill="#703CBB"/>
<path d="M1013.05 572.431V585.448L1093.34 560.976H1048.37L1013.05 572.431Z" fill="#703CBB"/>
<path d="M958.827 555.582V568.62L975.965 559.123L958.827 555.582Z" fill="#703CBB"/>
<path d="M867.521 560.976V574.014L881.68 566.725L878.119 559.435L867.521 560.976Z" fill="#703CBB"/>
<path d="M715.493 634.683V621.645L695.295 610.69L694.149 620.333L715.493 634.683Z" fill="#703CBB"/>
<path d="M712.098 608.774V596.153L742.749 599.715L761.469 592.238L761.448 605.421L726.632 613.398L712.098 608.774Z" fill="#703CBB"/>
<path d="M634.491 672.026V659.009L644.903 666.444L634.491 672.026Z" fill="#703CBB"/>
<path d="M761.823 652.24V665.32L748.871 657.364L749.496 652.948L761.823 652.24Z" fill="#703CBB"/>
<path d="M779.398 674.567V661.529L765.717 679.149L766.758 681.731L779.398 674.567Z" fill="#703CBB"/>
<path d="M769.653 691.02L769.715 703.287C769.715 703.287 765.363 695.331 765.363 695.144C765.363 694.977 769.653 691.02 769.653 691.02Z" fill="#703CBB"/>
<path d="M701.375 725.156V738.172L686.403 738.714V725.739L701.375 725.156Z" fill="#703CBB"/>
<path d="M806.717 665.32V678.461L782.208 661.946L770.756 661.925V648.887L781.126 650.782L806.717 665.32Z" fill="#703CBB"/>
<path d="M768.402 646.013V633.017L783.728 639.098L785.789 645.617L768.402 646.013Z" fill="#703CBB"/>
<path d="M732.879 767.205L732.941 779.68L794.015 779.493V766.455L732.879 767.205Z" fill="#703CBB"/>
<path d="M793.37 751.522V764.56L787.956 767.205L788.602 757.479L791.267 754.376L793.37 751.522Z" fill="#703CBB"/>
<path d="M228.801 284.061C205.271 282.415 186.78 293.683 185.177 294.703C166.894 306.179 169.456 322.133 169.664 323.257C171.038 330.63 175.89 333.233 172.579 337.815C168.789 343.043 159.523 343.73 144.947 348.729C132.703 352.936 129.351 355.851 116.337 362.454C73.3166 384.239 50.5365 382.385 42.6654 396.048C36.0646 407.461 45.4557 420.082 49.4537 420.124C52.5146 420.165 51.6401 412.834 61.5726 404.732C64.6543 402.212 75.274 394.361 92.1196 392.132C101.511 390.903 101.677 392.882 118.773 391.861C129.497 391.216 131.87 390.299 143.011 389.612C154.671 388.904 157.753 389.57 166.769 389.341C193.943 388.591 197.816 381.677 216.703 382.906C232.174 383.905 230.591 388.633 244.334 388.779C256.349 388.904 267.531 384.384 289.895 375.346C301.951 370.472 303.409 369.139 304.138 367.66C307.365 361.225 294.58 356.518 286.98 345.667C280.337 336.191 285.376 333.067 282.128 322.716C277.609 308.262 259.056 286.185 228.801 284.061Z" fill="#CDABFF"/>
<path d="M221.555 283.936C224.408 283.707 227.698 273.543 224.449 263.609C223.158 259.693 221.18 256.798 223.97 253.82C227.01 250.529 232.57 250.571 233.674 247.655C234.715 244.906 230.988 241.407 226.407 240.095C222.409 238.95 219.931 240.053 213.809 238.97C210.082 238.304 207.333 237.242 205.563 236.45C205.75 235.221 207.395 226.349 220.097 221.892C229.988 218.414 240.587 219.726 244.335 220.205C265.512 222.996 264.367 233.597 281.171 236.992C306.033 242.032 327.064 222.579 353.884 228.598C362.296 230.494 360.047 232.368 373.124 236.721C377.476 238.179 408.898 248.655 425.619 242.032C434.885 238.366 427.909 234.118 440.153 214.603C445.234 206.501 450.127 201.357 445.921 196.233C443.089 192.776 436.092 192.609 434.343 188.861C432.802 185.591 437.717 184.445 438.091 180.488C438.737 173.678 431.99 165.993 426.347 166.034C420.871 166.076 420.392 173.49 409.793 175.406C405.358 176.219 403.609 175.261 401.006 176.448C395.217 179.093 400.548 185.32 395.571 187.361C391.219 189.152 384.868 185.278 379.413 187.361C376.373 188.527 377.393 190.089 373.02 192.776C370.834 194.13 366.19 196.442 364.212 195.754C361.984 194.984 362.796 190.235 366.794 186.799C369.751 184.258 372.791 183.862 372.895 182.071C373.02 180.155 369.605 179.78 366.836 177.177C362.276 172.845 367.627 170.096 363.442 165.43C360.318 161.931 355.466 161.411 356.029 159.307C356.653 156.912 363.233 156.266 363.088 154.163C362.963 152.601 359.277 152.351 359.09 151.018C358.694 148.248 373.811 145.645 382.349 144.166C392.885 142.354 396.8 142.416 400.048 143.458C401.214 143.833 404.442 144.874 405.754 146.894C407.107 148.998 405.379 150.622 407.336 151.997C408.544 152.851 410.272 152.997 412.063 153.226C421.766 154.538 425.389 158.162 427.576 157.329C430.345 156.287 423.557 150.893 427.576 147.248C430.574 144.52 438.737 143.541 441.152 144.999C444.651 147.123 433.781 152.955 437.925 159.557C439.403 161.91 440.965 161.473 443.339 164.368C447.316 169.221 444.359 172.282 445.525 177.947C446.421 182.258 450.106 190.048 456.436 190.693C463.079 191.36 465.224 183.425 480.278 179.926C489.295 177.822 494.396 179.322 497.416 176.76C501.039 173.678 494.792 170.554 495.812 163.806C496.624 158.453 500.872 158.287 504.058 151.809C506.265 147.311 504.912 145.936 504.849 134.794C504.766 120.756 506.89 121.673 505.183 117.82C503.225 113.404 497.166 108.968 485.151 100.283C476.655 94.1395 472.428 91.0779 465.432 87.0375C451.231 78.8108 444.13 74.6871 432.469 72.1045C420.475 69.4387 415.207 70.8757 410.168 67.4393C405.066 63.9612 408.398 61.0454 405.004 52.8812C401.922 45.4668 394.634 36.9069 388.845 37.1985C385.535 37.3651 386.243 40.2601 379.788 43.9256C372.187 48.2576 366.149 47.0913 361.859 51.1526C359.673 53.2145 358.028 56.5468 360.401 58.4628C362.4 60.0665 365.503 59.2959 369.605 61.3578C370.396 61.7535 374.04 63.5863 374.415 66.273C374.748 68.6264 372.416 70.3759 369.272 72.7293C366.232 74.9995 363.004 77.4362 360.547 77.0197C357.049 76.4365 360.61 71.1048 354.883 66.2938C350.198 62.3367 344.285 63.0031 341.64 59.1918C339.308 55.8595 343.139 54.3183 341.474 51.6316C338.121 46.2166 320.151 48.9033 306.887 43.4258C295.788 38.823 300.411 33.6163 289.916 22.6196C287.542 20.1204 269.322 0.938716 241.441 0.230598C236.61 0.105636 226.781 -0.831578 222.492 2.25082C220.868 3.41713 219.952 6.60366 218.182 12.9142C217.369 15.6009 216.807 17.9335 215.87 17.9335C214.892 17.9544 215.204 15.3926 212.351 13.3724C209.186 11.1023 201.94 9.35282 197.13 11.2272C192.819 12.8934 191.882 16.913 194.069 19.3498C196.484 22.0781 201.794 21.7657 204.168 24.9731C205.271 26.4726 205.542 28.4928 204.251 28.951C202.46 29.5758 197.046 27.3473 194.235 24.4732C192.778 22.9737 193.173 22.4738 191.966 22.0573C188.342 20.7244 180.576 23.8067 176.286 26.4518C174.454 27.5764 172.517 28.7636 171.268 30.6588C169.539 33.3039 170.081 35.9489 172.725 41.0098C177.39 49.9654 180.659 51.2151 179.347 52.6729C174.62 57.9422 126.707 48.1118 126.02 49.3198C125.541 50.1737 149.487 56.4843 164.792 58.8377C169.165 59.5042 172.809 59.8583 177.723 61.4411C183.199 63.2114 184.511 64.6901 188.218 64.7109C192.34 64.7318 193.382 62.9198 198.712 62.0034C202.898 61.2745 206.417 61.6702 210.665 62.1909C216.162 62.8573 229.343 64.4194 235.548 69.6469C237.922 71.6463 239.921 74.6871 236.526 86.4335C230.842 106.115 221.763 109.989 223.929 121.694C225.282 129.025 229.259 129.795 227.323 134.294C223.429 143.354 206.333 142.479 193.881 151.934C185.282 158.453 192.986 159.224 182.241 186.653C180.534 191.006 177.244 198.899 175.932 209.896C175.536 213.249 175.328 214.936 175.453 216.331C176.473 228.432 189.571 231.264 199.691 244.885C205.063 252.112 201.773 251.841 212.788 272.044C218.036 281.624 220.097 284.061 221.555 283.936Z" fill="#CDABFF"/>
<path d="M562.3 116.091C565.84 122.943 582.623 121.423 588.474 127.858C596.512 136.689 574.356 150.102 551.639 169.283C521.362 194.817 496.916 224.766 505.1 228.619C510.972 231.389 526.151 217.248 558.427 214.624C593.951 211.729 604.654 226.495 633.077 223.017C660.979 219.601 658.501 204.439 702.875 186.07C728.154 175.615 754.557 173.969 753.849 167.825C753.412 164.014 743.563 164.035 732.256 155.35C723.51 148.623 726.217 146.144 717.326 140.459C708.601 134.856 704.332 136.189 696.232 130.795C687.383 124.901 691.006 122.318 683.135 115.675C678.47 111.738 669.288 108.239 651.151 101.408C636.325 95.8265 628.787 93.0148 622.957 92.2442C601.364 89.3909 583.789 96.0764 582.644 96.4929C571.212 100.762 558.843 109.406 562.3 116.091Z" fill="#CDABFF"/>
<path d="M785.291 333.317C785.562 328.568 786.582 309.949 776.567 301.41C766.967 293.204 744.395 291.85 731.964 292.454C706.227 293.704 700.959 304.513 677.679 303.659C660.667 303.013 653.775 296.89 645.695 299.743C636.575 302.951 642.53 311.698 629.204 319.342C628.142 319.946 622.978 322.841 614.669 324.382C611.9 324.902 598.303 327.423 592.368 323.82C586.6 320.321 591.327 312.969 593.347 309.824C599.614 300.077 611.109 296.495 608.86 294.141C607.006 292.204 597.907 293.225 584.622 294.703C572.711 296.036 566.756 296.682 564.257 298.619C558.718 302.909 567.589 307.429 565.236 318.217C563.445 326.36 556.865 330.797 555.532 331.65C553.2 333.171 545.454 338.211 538.083 337.253C529.337 336.107 529.566 327.652 522.57 327.173C516.635 326.777 509.368 332.4 508.036 337.815C506.994 341.96 508.973 347.791 515.782 350.124C524.819 353.227 532.898 346.917 550.681 347.875C561.071 348.437 575.335 351.499 577.834 356.83C578.5 358.267 577.834 358.83 572.024 371.388C569.942 375.908 568.734 378.615 571.045 379.782C573.128 380.823 577.147 380.177 579.5 379.802C585.83 378.782 588.349 376.595 589.474 376.991C592.056 377.928 578.667 389.654 583.664 392.674C587.35 394.902 597.407 390.112 603.05 392.674C609.11 395.423 601.384 402.65 608.86 408.356C613.399 411.814 619.729 411.814 619.521 413.396C619.229 415.667 605.757 418.853 594.305 416.75C573.648 412.959 567.88 393.465 568.151 392.757C568.151 392.757 568.172 392.694 568.13 392.694C567.672 392.486 561.946 397.984 558.427 397.547C555.095 397.13 557.615 391.903 551.972 385.967C547.766 381.573 542.893 380.802 543.247 378.324C543.705 375.075 554.45 375.304 555.532 372.346C556.74 368.993 545.017 364.828 535.168 361.329C523.757 357.268 516.906 358.58 512.554 354.602C509.722 352.04 509.889 349.478 506.099 348.624C503.392 348.02 502.205 349.083 496.396 349.562C489.17 350.166 487.275 348.833 481.362 349.478C476.614 349.978 474.99 351.145 470.867 352.373C459.685 355.685 452.709 352.811 441.777 354.435C432.47 355.81 426.931 359.475 420.455 363.766C415.728 366.89 397.966 378.636 402.839 390.174C404.275 393.569 413.833 399.192 432.886 410.335C447.983 419.145 454.438 422.435 453.251 426.58C452.064 430.683 444.942 430.245 437.738 436.098C427.264 444.616 435.76 450.885 426.098 456.821C417.56 462.069 408.003 458.966 400.402 464.943C396.425 468.067 398.549 469.317 393.614 476.148C390.199 480.876 388.096 481.771 381.974 487.915C373 496.913 368.523 501.411 369.376 504.702C371.146 511.616 387.471 517.823 402.818 518.427C422.287 519.177 425.952 510.304 452.272 508.347C471.179 506.951 475.594 511.054 486.213 507.784C501.601 503.036 496.416 493.122 511.43 488.186C521.341 484.916 526.401 488.332 552.638 487.353C564.257 486.916 588.745 485.999 590.931 480.917C593.097 475.877 572.191 469.15 573.482 468.046C574.627 467.068 590.348 473.003 613.711 476.731C637.616 480.522 642.322 477.668 643.28 477.002C647.653 473.961 642.884 468.442 645.695 467.755C647.861 467.234 651.567 470.275 660.23 475.586C667.767 480.209 670.433 479.918 671.37 482.021C673.223 486.103 665.789 488.04 666.997 492.935C667.976 496.933 673.306 497.371 673.785 500.766C674.347 504.848 667.101 507.097 661.188 511.408C648.444 520.655 648.84 534.214 652.942 535.193C657.023 536.171 662.562 524.258 679.595 520.364C695.295 516.782 713.619 521.613 727.591 526.799C725.863 530.007 723.281 535.047 720.803 541.357C715.702 554.333 715.702 560.622 708.205 562.622C701.584 564.392 696.67 560.831 691.235 562.892C687.07 564.496 686.779 569.765 686.383 580.241C686.133 586.635 686.508 591.3 686.8 594.05C687.341 599.319 687.612 601.943 688.34 603.755C692.984 615.46 714.223 622.395 715.493 621.666C716.68 620.979 698.648 614.169 698.523 603.463C698.481 600.506 699.876 601.089 702.396 591.155C703.791 585.677 703.791 583.844 706.269 581.074C709.871 577.034 712.766 577.659 715.473 574.077C718.887 569.557 715.119 567.474 718.867 563.163C721.574 560.039 726.613 557.561 728.57 558.123C731.381 558.935 724.718 565.267 729.549 569.328C734.026 573.098 747.373 574.014 752.808 571.015C757.556 568.391 753.433 564.35 758.617 559.269C762.012 555.936 767.113 553.083 769.279 553.666C772.069 554.416 767.842 560.289 771.694 561.789C774.755 562.976 778.92 559.831 785.75 559.831C794.245 559.831 796.223 564.663 804.657 566.829C818.171 570.286 840.118 564.809 849.738 556.478C857.297 549.917 854.59 543.898 860.399 543.044C865.855 542.253 874.913 546.585 875.912 552C876.829 556.894 865.834 559.477 867.667 561.789C869.187 563.705 878.016 564.288 882.701 562.059C887.511 559.789 884.075 556.415 888.51 553.104C894.528 548.626 909.874 547.98 914.206 551.146C916.996 553.187 913.498 555.624 915.663 557.019C922.389 561.393 966.304 544.232 968.99 546.377C970.531 547.605 956.809 553.874 958.808 555.624C960.141 556.79 968.199 555.645 973.842 553.104C979.527 550.542 984.962 545.585 983.046 541.066C980.734 535.588 969.24 534.609 969.948 531.819C970.698 528.944 983.587 527.195 994.186 527.341C1010.84 527.57 1023.67 532.485 1029.09 534.609C1042.93 540.066 1042.08 543.253 1053.32 545.814C1066.4 548.793 1077.44 546.71 1078.04 548.334C1078.66 549.98 1067.57 553.062 1058.17 554.77C1044.58 557.228 1040.58 555.707 1032.48 557.852C1018.51 561.56 1010.64 571.39 1013.57 573.243C1017.09 575.472 1033.92 564.871 1063.51 562.892C1067.42 562.622 1089.93 559.831 1093.55 564.017C1095.16 565.871 1091.82 567.599 1093.55 569.057C1097.74 572.556 1120.06 565.017 1126.99 569.328C1130.6 571.577 1128.2 575.868 1129.91 576.055C1132.07 576.284 1133.26 568.953 1142.03 566.266C1142.69 566.058 1148.96 564.038 1154.21 565.454C1160.1 567.058 1161.93 572.285 1162.71 574.472C1163.89 577.825 1163.1 579.804 1165.29 580.45C1167.14 580.991 1168.68 579.866 1174.01 579.138C1180.26 578.284 1182.03 579.283 1183.72 578.388C1186.82 576.742 1182.49 572.431 1180.15 565.892C1177.78 559.185 1180.32 558.04 1178.86 553.583C1176.93 547.668 1171.16 545.669 1148.32 532.402C1128.12 520.676 1123.87 517.177 1125.06 513.366C1126.41 508.971 1133.78 507.326 1132.32 504.119C1130.62 500.37 1119.96 501.432 1115.35 497.121C1109.63 491.747 1122.04 486.208 1117.29 480.334C1112.46 474.357 1097.82 477.856 1085.31 469.692C1079.29 465.776 1077.91 461.882 1072.21 461.569C1066.07 461.236 1062.61 465.505 1059.11 464.652C1054.95 463.631 1054.03 456.154 1059.59 453.738C1063.76 451.926 1068.44 454.28 1072.19 452.614C1078.48 449.844 1075.52 438.743 1067.82 437.222C1062.4 436.16 1059.03 440.68 1051.82 440.305C1040.83 439.722 1028.84 428.142 1033.9 420.998C1038.73 414.167 1056.26 415.521 1060.55 408.96C1064.09 403.545 1047.6 398.859 1050.37 393.007C1052.05 389.445 1060.84 389.945 1061.51 387.134C1062.26 383.968 1053.03 379.49 1043.58 379.011C1034.67 378.553 1032.98 382.01 1024.19 382.364C1010.62 382.906 1008.22 374.95 991.229 372.846C977.507 371.159 974.196 375.741 958.746 373.679C947.626 372.201 939.859 368.556 935.965 366.681C920.64 359.33 922.243 353.186 914.143 352.415C903.169 351.374 897.964 362.495 875.85 365.015C867.063 366.015 863.252 364.786 862.273 364.453C853.903 361.537 853.07 353.144 855.485 347.666C859.275 339.023 873.955 331.109 889.905 330.026C905.876 328.943 912.519 335.441 933.05 333.671C939.839 333.088 949.958 331.442 950.021 329.464C950.083 326.839 932.28 324.257 918.516 323.59C905.939 322.986 897.048 324.028 879.244 326.11C854.028 329.068 849.53 331.63 847.26 333.379C841.617 337.69 841.451 343.147 841.451 344.022C841.367 350.874 848.135 354.789 845.823 356.06C843.325 357.413 833.288 354.081 825.958 350.749C810.674 343.772 807.385 336.878 799.784 337.315C794.016 337.649 791.393 341.897 788.144 341.231C784.792 340.46 785.187 335.212 785.291 333.317Z" fill="#CDABFF"/>
<path d="M513.823 522.176C505.973 526.799 494.146 533.776 478.279 533.756C475.697 533.756 470.262 533.735 469.221 532.256C467.68 530.048 478.175 527.757 485.046 520.135C488.648 516.157 488.378 513.887 491.834 513.22C496.415 512.345 499.226 515.886 507.66 516.386C515.656 516.865 521.007 514.157 522.194 515.074C523.797 516.303 515.197 521.363 513.823 522.176Z" fill="#CDABFF"/>
<path d="M727.112 607.275C720.49 606.817 714.785 603.276 712.89 599.444C710.787 595.174 712.828 589.405 718.054 588.239C726.092 586.469 735.025 596.986 746.811 595.508C754.827 594.508 757.701 588.739 760.054 589.343C762.469 589.968 762.157 596.736 755.535 600.923C752.141 603.047 746.811 604.088 736.149 606.15C729.861 607.379 728.257 607.358 727.112 607.275Z" fill="#CDABFF"/>
<path d="M770.756 648.887C770.277 646.867 780.71 645.992 781.751 642.91C783.083 638.932 767.154 635.599 768.507 632.642C769.549 630.309 781.147 628.518 787.893 631.143C794.744 633.829 789.83 638.453 796.951 648.304C800.887 653.761 804.406 655.114 806.009 660.613C806.384 661.904 808.258 668.881 804.073 669.943C801.47 670.61 796.764 668.944 794.703 666.778C791.933 663.862 795.182 661.3 792.433 659.863C789.663 658.426 785.374 660.571 782.084 659.113C778.669 657.593 781.772 654.552 777.878 651.845C774.9 649.803 771.048 650.116 770.756 648.887Z" fill="#CDABFF"/>
<path d="M638.26 664.195C641.821 667.069 646.777 668.943 658.937 671.651C676.616 675.608 677.47 674.192 681.239 676.316C686.215 679.107 687.256 684.085 689.318 694.04C690.692 700.621 689.693 701.517 691.9 704.87C694.794 709.244 699.063 711.66 697.064 713.826C696.085 714.888 693.92 715.596 690.609 718.678C690.38 718.887 690.193 719.053 689.984 719.261C689.485 719.761 684.216 725.176 687.361 727.259C690.317 729.196 700.104 727.842 701.249 725.572C702.291 723.51 695.835 721.427 697.043 719.782C698.168 718.283 704.789 718.574 706.747 718.657C723.571 719.324 738.606 716.429 741.333 715.867C757.284 712.514 766.737 701.35 769.132 693.478C771.235 686.542 766.904 685.272 769.777 677.045C772.963 667.923 780.959 661.925 779.148 661.175C776.857 660.238 766.008 670.755 757.18 669.381C750.6 668.36 746.123 660.925 750.079 657.447C753.14 654.739 759.574 655.906 761.386 653.531C763.718 650.491 756.617 644.055 748.455 643.451C740.438 642.847 735.295 648.179 730.36 646.804C726.216 645.659 728.902 641.681 724.55 639.702C718.283 636.87 708.85 643.43 695.461 641.952C684.383 640.723 683.446 635.412 672.847 635.225C666.371 635.12 659.541 636.974 655.398 639.702C648.859 644.014 653.294 647.637 646.34 652.011C641.196 655.26 635.907 655.094 634.7 657.988C633.679 660.509 636.595 662.841 638.26 664.195Z" fill="#CDABFF"/>
<path d="M514.322 106.865C499.83 107.011 487.565 95.8889 470.698 80.5603C459.871 70.7299 459.017 67.8142 450.334 64.3152C436.736 58.8586 428.053 61.7119 418.35 56.4843C406.044 49.8613 403.191 36.2404 412.041 31.5752C417.455 28.7219 423.618 31.117 446.461 32.4083C481.63 34.4077 491.334 30.159 502.203 35.4907C514.052 41.3014 513.073 51.5483 518.195 51.4441C522.985 51.34 521.756 40.4267 530.398 38.8022C537.436 37.4692 547.077 43.0092 550.846 45.1752C558.009 49.2781 557.176 51.2359 564.651 54.8389C568.482 56.6717 568.274 55.9636 578.727 59.8582C590.95 64.3985 593.407 66.1897 594.449 67.0227C597.968 69.7927 599.238 72.4586 600.258 74.5829C602.382 78.9983 604.11 82.6013 601.549 85.0589C597.26 89.1618 585.64 85.3088 568.108 88.7036C565.401 89.2243 563.318 89.745 537.082 99.3462C517.446 106.49 516.842 106.844 514.322 106.865Z" fill="#CDABFF"/>
<path d="M760.407 764.227C749.683 764.289 746.143 762.936 739.084 764.227C736.794 764.643 733.462 765.289 732.942 766.643C732.38 768.184 735.503 770.287 739.084 770.933C743.978 771.829 747.226 769.6 755.555 768.517C760.865 767.83 765.529 768.08 767.841 768.142C773.421 768.309 773.65 768.788 778.19 768.892C783.375 768.996 792.995 768.6 794.015 766.476C794.619 765.247 791.725 764.643 790.142 762.373C786.79 757.562 793.682 751.626 793.37 751.543C793.099 751.481 790.787 757.021 783.021 760.499C778.835 762.373 774.15 763.144 772.026 763.477C767.695 764.164 764.301 764.206 760.407 764.227Z" fill="#CDABFF"/>
<g clip-path="url(#clip0)">
<path d="M90.2491 224.993L77.122 228.838C76.4464 229.037 75.7285 228.645 75.5294 227.97C75.3303 227.295 75.7224 226.578 76.3981 226.379L89.5252 222.534C90.2009 222.335 90.9188 222.727 91.1178 223.402C91.3169 224.083 90.9248 224.794 90.2491 224.993Z" fill="#CDABFF"/>
<path d="M96.5595 206.23L92.3547 219.237C92.1375 219.906 91.4136 220.28 90.7379 220.063C90.0683 219.846 89.6942 219.123 89.9114 218.448L94.1162 205.441C94.3334 204.772 95.0573 204.398 95.733 204.615C96.4026 204.832 96.7766 205.561 96.5595 206.23Z" fill="#CDABFF"/>
<path d="M89.8506 228.73V384.237C89.8506 384.237 100.245 394.157 108.962 384.237L99.4064 227.609L89.8506 228.73Z" fill="white"/>
<path d="M104.154 238.464C114.645 252.314 141.225 284.674 170.815 299.453C170.815 299.453 142.769 258.829 106.362 236.035C104.793 235.052 103.038 236.987 104.154 238.464Z" fill="#F6EFFF"/>
<path d="M0 256.081C0.500713 256.081 23.805 240.676 38.8927 235.48C50.6866 231.424 67.2946 228.899 73.9788 227.988C74.6364 227.898 74.938 228.772 74.3649 229.104C67.5601 233.039 49.094 243.551 41.2395 246.528C31.5148 250.217 0 256.081 0 256.081Z" fill="#F6EFFF"/>
<path d="M97.8084 203.512C96.988 204.694 95.142 203.976 95.323 202.554C96.3244 194.755 98.9607 180.042 105.277 170.11C114.211 156.042 125.39 139.739 125.39 139.739C125.39 139.739 117.342 169.441 113.542 178.15C110.827 184.376 102.387 196.888 97.8084 203.512Z" fill="#F6EFFF"/>
<path d="M134.583 199.179C146.769 217.64 154.551 239.506 154.551 258.968" stroke="white" stroke-width="1.1115" stroke-miterlimit="10" stroke-linecap="round" stroke-linejoin="round"/>
<path d="M46.7171 211.42C45.6192 205.857 45.04 200.354 45.04 195.032C45.04 174.69 53.5341 161.527 66.6793 157.736C71.2279 156.422 76.3316 156.229 81.8334 157.254" stroke="white" stroke-width="1.1115" stroke-miterlimit="10" stroke-linecap="round" stroke-linejoin="round"/>
<path d="M34.7305 181.947C37.4995 161.798 47.7068 149.913 61.2502 147.942" stroke="white" stroke-width="1.1115" stroke-miterlimit="10" stroke-linecap="round" stroke-linejoin="round"/>
<path d="M139.427 291.485C132.671 296.132 123.875 297.439 113.921 294.914" stroke="white" stroke-width="1.1115" stroke-miterlimit="10" stroke-linecap="round" stroke-linejoin="round"/>
<path d="M135.946 302.074C131.283 303.985 125.932 304.606 120.099 303.822" stroke="white" stroke-width="1.1115" stroke-miterlimit="10" stroke-linecap="round" stroke-linejoin="round"/>
<path d="M79.9517 273.65C72.3927 266.02 65.6422 256.979 60.1162 247.269" stroke="white" stroke-width="1.1115" stroke-miterlimit="10" stroke-linecap="round" stroke-linejoin="round"/>
<path d="M0 256.081L14.7741 247.269L16.6502 252.754L0 256.081Z" fill="#703CBB"/>
<path d="M125.389 139.739L118.331 150.16L121.951 152.016L125.389 139.739Z" fill="#703CBB"/>
<path d="M87.9443 220.213L101.681 214.319C105.481 212.692 109.783 215.157 110.289 219.255C110.627 221.979 109.131 224.601 106.616 225.704L92.2758 231.96L87.9443 220.213Z" fill="#F6EFFF"/>
<path d="M94.6451 230.787C96.5435 229.678 96.5246 226.117 94.603 222.832C92.6814 219.547 89.5847 217.783 87.6863 218.892C85.788 220.001 85.8068 223.562 87.7284 226.846C89.65 230.131 92.7468 231.895 94.6451 230.787Z" fill="#2D1155"/>
<path d="M89.8508 325.074C89.8508 325.074 96.4204 331.782 105.307 324.363L105.795 332.403C105.795 332.403 98.4835 339.539 89.8447 333.813V325.074H89.8508Z" fill="#703CBB"/>
<path d="M89.8506 384.237C89.8506 384.237 94.357 389.215 99.7985 389.028C105.234 388.841 108.962 384.237 108.962 384.237L108.763 380.343C108.763 380.343 104.794 384.303 99.4064 384.002C94.0192 383.7 89.8506 380.596 89.8506 380.596V384.237Z" fill="#2D1155"/>
<path d="M93.2899 225.68L103.642 234.618C104.173 235.076 104.233 235.89 103.775 236.427C103.316 236.957 102.502 237.017 101.965 236.559L91.6128 227.621C91.0819 227.163 91.0216 226.349 91.4801 225.813C91.9446 225.276 92.759 225.216 93.2899 225.68Z" fill="#CDABFF"/>
<path d="M94.7378 228.507C94.7378 231.605 92.5479 232.846 89.8513 231.291C87.1487 229.736 84.9648 225.963 84.9648 222.865C84.9648 219.767 87.1547 218.52 89.8513 220.081C92.5479 221.642 94.7378 225.409 94.7378 228.507Z" fill="#703CBB"/>
</g>
<g clip-path="url(#clip1)">
<path d="M1248.03 394.295L1234.91 398.141C1234.23 398.34 1233.51 397.948 1233.31 397.273C1233.12 396.598 1233.51 395.88 1234.18 395.682L1247.31 391.836C1247.99 391.637 1248.7 392.029 1248.9 392.704C1249.1 393.385 1248.71 394.096 1248.03 394.295Z" fill="#CDABFF"/>
<path d="M1254.34 375.533L1250.14 388.539C1249.92 389.208 1249.2 389.582 1248.52 389.365C1247.85 389.148 1247.48 388.425 1247.7 387.75L1251.9 374.743C1252.12 374.074 1252.84 373.701 1253.52 373.918C1254.19 374.134 1254.56 374.864 1254.34 375.533Z" fill="#CDABFF"/>
<path d="M1247.64 398.032V553.539C1247.64 553.539 1258.03 563.46 1266.75 553.539L1257.19 396.911L1247.64 398.032Z" fill="white"/>
<path d="M1261.94 407.766C1272.43 421.616 1299.01 453.976 1328.6 468.755C1328.6 468.755 1300.55 428.132 1264.15 405.337C1262.58 404.355 1260.82 406.289 1261.94 407.766Z" fill="#F6EFFF"/>
<path d="M1157.79 425.383C1158.29 425.383 1181.59 409.978 1196.68 404.783C1208.47 400.726 1225.08 398.201 1231.76 397.291C1232.42 397.2 1232.72 398.074 1232.15 398.406C1225.35 402.342 1206.88 412.853 1199.02 415.83C1189.3 419.519 1157.79 425.383 1157.79 425.383Z" fill="#F6EFFF"/>
<path d="M1255.59 372.815C1254.77 373.996 1252.93 373.279 1253.11 371.856C1254.11 364.057 1256.75 349.345 1263.06 339.412C1272 325.345 1283.18 309.041 1283.18 309.041C1283.18 309.041 1275.13 338.743 1271.33 347.452C1268.61 353.678 1260.17 366.191 1255.59 372.815Z" fill="#F6EFFF"/>
<path d="M1292.37 368.481C1304.55 386.942 1312.34 408.809 1312.34 428.27" stroke="white" stroke-width="1.1115" stroke-miterlimit="10" stroke-linecap="round" stroke-linejoin="round"/>
<path d="M1204.5 380.722C1203.4 375.159 1202.83 369.656 1202.83 364.334C1202.83 343.993 1211.32 330.829 1224.46 327.038C1229.01 325.724 1234.12 325.531 1239.62 326.556" stroke="white" stroke-width="1.1115" stroke-miterlimit="10" stroke-linecap="round" stroke-linejoin="round"/>
<path d="M1192.52 351.249C1195.28 331.101 1205.49 319.215 1219.04 317.244" stroke="white" stroke-width="1.1115" stroke-miterlimit="10" stroke-linecap="round" stroke-linejoin="round"/>
<path d="M1297.21 460.787C1290.46 465.434 1281.66 466.742 1271.71 464.216" stroke="white" stroke-width="1.1115" stroke-miterlimit="10" stroke-linecap="round" stroke-linejoin="round"/>
<path d="M1293.73 471.377C1289.07 473.287 1283.72 473.908 1277.88 473.125" stroke="white" stroke-width="1.1115" stroke-miterlimit="10" stroke-linecap="round" stroke-linejoin="round"/>
<path d="M1237.74 442.953C1230.18 435.322 1223.43 426.281 1217.9 416.572" stroke="white" stroke-width="1.1115" stroke-miterlimit="10" stroke-linecap="round" stroke-linejoin="round"/>
<path d="M1157.79 425.383L1172.56 416.572L1174.44 422.056L1157.79 425.383Z" fill="#703CBB"/>
<path d="M1283.17 309.041L1276.12 319.462L1279.74 321.318L1283.17 309.041Z" fill="#703CBB"/>
<path d="M1245.73 389.516L1259.47 383.621C1263.27 381.994 1267.57 384.459 1268.07 388.557C1268.41 391.282 1266.92 393.904 1264.4 395.007L1250.06 401.263L1245.73 389.516Z" fill="#F6EFFF"/>
<path d="M1252.43 400.089C1254.33 398.98 1254.31 395.419 1252.39 392.134C1250.47 388.85 1247.37 387.086 1245.47 388.194C1243.57 389.303 1243.59 392.864 1245.51 396.149C1247.44 399.433 1250.53 401.197 1252.43 400.089Z" fill="#2D1155"/>
<path d="M1247.64 494.376C1247.64 494.376 1254.21 501.085 1263.09 493.665L1263.58 501.705C1263.58 501.705 1256.27 508.841 1247.63 503.116V494.376H1247.64Z" fill="#703CBB"/>
<path d="M1247.64 553.539C1247.64 553.539 1252.14 558.517 1257.58 558.33C1263.02 558.144 1266.75 553.539 1266.75 553.539L1266.55 549.645C1266.55 549.645 1262.58 553.605 1257.19 553.304C1251.8 553.002 1247.64 549.898 1247.64 549.898V553.539Z" fill="#2D1155"/>
<path d="M1251.08 394.982L1261.43 403.921C1261.96 404.379 1262.02 405.192 1261.56 405.729C1261.1 406.259 1260.29 406.319 1259.75 405.861L1249.4 396.923C1248.87 396.465 1248.81 395.651 1249.27 395.115C1249.73 394.579 1250.54 394.518 1251.08 394.982Z" fill="#CDABFF"/>
<path d="M1252.52 397.809C1252.52 400.907 1250.33 402.149 1247.64 400.594C1244.93 399.039 1242.75 395.266 1242.75 392.168C1242.75 389.07 1244.94 387.822 1247.64 389.383C1250.33 390.944 1252.52 394.711 1252.52 397.809Z" fill="#703CBB"/>
</g>
<g clip-path="url(#clip2)">
<path opacity="0.4" d="M778.992 664.426L731.156 691.866L745.005 644.668L778.992 664.426Z" fill="#2D1155"/>
<path d="M731.193 691.866L648.552 644.297L694.255 592.482L776.896 640.051L731.193 691.866Z" fill="white"/>
<path d="M729.622 687.81L654.008 644.282L695.825 596.874L771.44 640.401L729.622 687.81Z" fill="#421D77"/>
<path d="M676.082 618.466L712.743 639.214L732.048 617.731L676.082 618.466Z" fill="#703CBB"/>
<path d="M716.015 640.969L752.682 661.717L771.988 640.226L716.015 640.969Z" fill="#703CBB"/>
<path d="M693.407 667.186L730.068 687.933L750.301 664.367L693.407 667.186Z" fill="#703CBB"/>
<path d="M654.161 643.62L690.822 664.367L710.127 642.884L654.161 643.62Z" fill="#703CBB"/>
<path d="M676.082 619.26L751.719 662.765" stroke="white" stroke-width="2" stroke-miterlimit="10" stroke-linecap="round" stroke-linejoin="round"/>
<path opacity="0.56" d="M681.166 612.895L756.802 656.393" stroke="white" stroke-miterlimit="10" stroke-linecap="round" stroke-linejoin="round"/>
<path opacity="0.56" d="M686.914 606.887L762.551 650.385" stroke="white" stroke-miterlimit="10" stroke-linecap="round" stroke-linejoin="round"/>
<path opacity="0.56" d="M692.67 600.879L768.306 644.377" stroke="white" stroke-miterlimit="10" stroke-linecap="round" stroke-linejoin="round"/>
<path opacity="0.56" d="M659.939 637.298L735.576 680.797" stroke="white" stroke-miterlimit="10" stroke-linecap="round" stroke-linejoin="round"/>
<path opacity="0.56" d="M665.688 631.29L741.324 674.789" stroke="white" stroke-miterlimit="10" stroke-linecap="round" stroke-linejoin="round"/>
<path opacity="0.56" d="M671.443 625.282L747.08 668.781" stroke="white" stroke-miterlimit="10" stroke-linecap="round" stroke-linejoin="round"/>
<path d="M690.23 665.875L732.048 618.466" stroke="white" stroke-width="2" stroke-miterlimit="10" stroke-linecap="round" stroke-linejoin="round"/>
<path opacity="0.56" d="M678.807 659.051L720.624 611.642" stroke="white" stroke-miterlimit="10" stroke-linecap="round" stroke-linejoin="round"/>
<path opacity="0.56" d="M670.02 653.99L711.837 606.581" stroke="white" stroke-miterlimit="10" stroke-linecap="round" stroke-linejoin="round"/>
<path opacity="0.56" d="M661.232 648.936L703.057 601.527" stroke="white" stroke-miterlimit="10" stroke-linecap="round" stroke-linejoin="round"/>
<path opacity="0.56" d="M719.755 680.549L761.572 633.14" stroke="white" stroke-miterlimit="10" stroke-linecap="round" stroke-linejoin="round"/>
<path opacity="0.56" d="M710.967 675.495L752.784 628.086" stroke="white" stroke-miterlimit="10" stroke-linecap="round" stroke-linejoin="round"/>
<path opacity="0.56" d="M702.181 670.434L743.998 623.025" stroke="white" stroke-miterlimit="10" stroke-linecap="round" stroke-linejoin="round"/>
</g>
<g clip-path="url(#clip3)">
<path opacity="0.4" d="M359.435 140.78L311.599 168.22L325.448 121.023L359.435 140.78Z" fill="#2D1155"/>
<path d="M311.635 168.22L228.994 120.651L274.697 68.8368L357.339 116.406L311.635 168.22Z" fill="white"/>
<path d="M310.065 164.164L234.45 120.637L276.268 73.2281L351.882 116.755L310.065 164.164Z" fill="#421D77"/>
<path d="M256.524 94.8206L293.185 115.568L312.49 94.085L256.524 94.8206Z" fill="#703CBB"/>
<path d="M296.457 117.323L333.125 138.071L352.43 116.581L296.457 117.323Z" fill="#703CBB"/>
<path d="M273.85 143.54L310.51 164.288L330.743 140.722L273.85 143.54Z" fill="#703CBB"/>
<path d="M234.604 119.974L271.264 140.722L290.569 119.239L234.604 119.974Z" fill="#703CBB"/>
<path d="M256.524 95.6143L332.161 139.12" stroke="white" stroke-width="2" stroke-miterlimit="10" stroke-linecap="round" stroke-linejoin="round"/>
<path opacity="0.56" d="M261.608 89.2495L337.245 132.748" stroke="white" stroke-miterlimit="10" stroke-linecap="round" stroke-linejoin="round"/>
<path opacity="0.56" d="M267.356 83.2415L342.993 126.74" stroke="white" stroke-miterlimit="10" stroke-linecap="round" stroke-linejoin="round"/>
<path opacity="0.56" d="M273.112 77.2335L348.749 120.732" stroke="white" stroke-miterlimit="10" stroke-linecap="round" stroke-linejoin="round"/>
<path opacity="0.56" d="M240.382 113.653L316.018 157.151" stroke="white" stroke-miterlimit="10" stroke-linecap="round" stroke-linejoin="round"/>
<path opacity="0.56" d="M246.13 107.645L321.766 151.143" stroke="white" stroke-miterlimit="10" stroke-linecap="round" stroke-linejoin="round"/>
<path opacity="0.56" d="M251.886 101.637L327.522 145.135" stroke="white" stroke-miterlimit="10" stroke-linecap="round" stroke-linejoin="round"/>
<path d="M270.673 142.229L312.49 94.8206" stroke="white" stroke-width="2" stroke-miterlimit="10" stroke-linecap="round" stroke-linejoin="round"/>
<path opacity="0.56" d="M259.249 135.406L301.066 87.9969" stroke="white" stroke-miterlimit="10" stroke-linecap="round" stroke-linejoin="round"/>
<path opacity="0.56" d="M250.462 130.344L292.279 82.9356" stroke="white" stroke-miterlimit="10" stroke-linecap="round" stroke-linejoin="round"/>
<path opacity="0.56" d="M241.675 125.29L283.499 77.8816" stroke="white" stroke-miterlimit="10" stroke-linecap="round" stroke-linejoin="round"/>
<path opacity="0.56" d="M300.197 156.903L342.015 109.495" stroke="white" stroke-miterlimit="10" stroke-linecap="round" stroke-linejoin="round"/>
<path opacity="0.56" d="M291.409 151.849L333.227 104.441" stroke="white" stroke-miterlimit="10" stroke-linecap="round" stroke-linejoin="round"/>
<path opacity="0.56" d="M282.623 146.788L324.44 99.3794" stroke="white" stroke-miterlimit="10" stroke-linecap="round" stroke-linejoin="round"/>
</g>
<g clip-path="url(#clip4)">
<path d="M907.298 141.706L898.237 144.354C897.77 144.491 897.275 144.221 897.137 143.756C897 143.291 897.271 142.798 897.737 142.661L906.799 140.013C907.265 139.876 907.761 140.146 907.898 140.61C908.035 141.079 907.765 141.569 907.298 141.706Z" fill="#CDABFF"/>
<path d="M911.655 128.786L908.753 137.743C908.603 138.203 908.103 138.461 907.637 138.311C907.174 138.162 906.916 137.664 907.066 137.199L909.969 128.242C910.119 127.782 910.618 127.524 911.085 127.674C911.547 127.823 911.805 128.325 911.655 128.786Z" fill="#CDABFF"/>
<path d="M907.024 144.279V251.361C907.024 251.361 914.2 258.193 920.217 251.361L913.621 143.507L907.024 144.279Z" fill="white"/>
<path d="M916.897 150.982C924.139 160.519 942.487 182.802 962.914 192.979C962.914 192.979 943.554 165.006 918.422 149.309C917.339 148.633 916.127 149.965 916.897 150.982Z" fill="#F6EFFF"/>
<path d="M845 163.113C845.346 163.113 861.433 152.505 871.848 148.928C879.989 146.134 891.453 144.395 896.068 143.769C896.521 143.707 896.73 144.308 896.334 144.537C891.637 147.247 878.89 154.485 873.468 156.535C866.755 159.075 845 163.113 845 163.113Z" fill="#F6EFFF"/>
<path d="M912.517 126.914C911.951 127.728 910.677 127.234 910.802 126.254C911.493 120.884 913.313 110.753 917.673 103.913C923.84 94.2266 931.557 83 931.557 83C931.557 83 926.001 103.453 923.378 109.45C921.504 113.737 915.678 122.353 912.517 126.914Z" fill="#F6EFFF"/>
<path d="M937.902 123.93C946.314 136.643 951.686 151.7 951.686 165.101" stroke="white" stroke-width="1.1115" stroke-miterlimit="10" stroke-linecap="round" stroke-linejoin="round"/>
<path d="M877.249 132.36C876.491 128.529 876.091 124.74 876.091 121.075C876.091 107.068 881.954 98.0034 891.028 95.3928C894.168 94.4881 897.691 94.3552 901.489 95.0608" stroke="white" stroke-width="1.1115" stroke-miterlimit="10" stroke-linecap="round" stroke-linejoin="round"/>
<path d="M868.975 112.065C870.886 98.1901 877.932 90.0057 887.281 88.6486" stroke="white" stroke-width="1.1115" stroke-miterlimit="10" stroke-linecap="round" stroke-linejoin="round"/>
<path d="M941.247 187.492C936.583 190.692 930.511 191.593 923.64 189.854" stroke="white" stroke-width="1.1115" stroke-miterlimit="10" stroke-linecap="round" stroke-linejoin="round"/>
<path d="M938.844 194.784C935.625 196.1 931.931 196.527 927.904 195.988" stroke="white" stroke-width="1.1115" stroke-miterlimit="10" stroke-linecap="round" stroke-linejoin="round"/>
<path d="M900.19 175.211C894.973 169.957 890.313 163.732 886.498 157.046" stroke="white" stroke-width="1.1115" stroke-miterlimit="10" stroke-linecap="round" stroke-linejoin="round"/>
<path d="M845 163.113L855.199 157.046L856.494 160.822L845 163.113Z" fill="#703CBB"/>
<path d="M931.556 83L926.684 90.1759L929.182 91.4542L931.556 83Z" fill="#703CBB"/>
<path d="M905.708 138.415L915.19 134.356C917.814 133.235 920.783 134.933 921.133 137.755C921.366 139.631 920.333 141.436 918.597 142.196L908.698 146.504L905.708 138.415Z" fill="#F6EFFF"/>
<path d="M910.334 145.695C911.644 144.932 911.631 142.48 910.305 140.218C908.978 137.956 906.84 136.741 905.53 137.505C904.22 138.268 904.233 140.721 905.559 142.982C906.886 145.244 909.023 146.459 910.334 145.695Z" fill="#2D1155"/>
<path d="M907.024 210.622C907.024 210.622 911.559 215.241 917.693 210.132L918.03 215.669C918.03 215.669 912.983 220.583 907.02 216.64V210.622H907.024Z" fill="#703CBB"/>
<path d="M907.024 251.361C907.024 251.361 910.135 254.789 913.891 254.661C917.644 254.532 920.217 251.361 920.217 251.361L920.08 248.68C920.08 248.68 917.34 251.407 913.621 251.199C909.902 250.992 907.024 248.855 907.024 248.855V251.361Z" fill="#2D1155"/>
<path d="M909.398 142.179L916.544 148.334C916.91 148.65 916.952 149.21 916.635 149.579C916.319 149.944 915.757 149.986 915.386 149.671L908.24 143.516C907.873 143.2 907.832 142.64 908.148 142.271C908.469 141.901 909.031 141.86 909.398 142.179Z" fill="#CDABFF"/>
<path d="M910.397 144.126C910.397 146.259 908.885 147.114 907.024 146.043C905.158 144.972 903.65 142.374 903.65 140.241C903.65 138.108 905.162 137.249 907.024 138.324C908.885 139.398 910.397 141.992 910.397 144.126Z" fill="#703CBB"/>
</g>
<g clip-path="url(#clip5)">
<path d="M457.784 583.281L446.867 586.477C446.305 586.643 445.708 586.317 445.542 585.756C445.377 585.195 445.703 584.598 446.265 584.433L457.182 581.237C457.744 581.071 458.341 581.397 458.507 581.958C458.672 582.524 458.346 583.115 457.784 583.281Z" fill="#CDABFF"/>
<path d="M463.033 567.685L459.536 578.496C459.355 579.052 458.753 579.363 458.191 579.183C457.634 579.002 457.323 578.401 457.504 577.84L461.001 567.028C461.181 566.472 461.783 566.162 462.345 566.342C462.902 566.522 463.213 567.129 463.033 567.685Z" fill="#CDABFF"/>
<path d="M457.453 586.387V715.65C457.453 715.65 466.098 723.897 473.348 715.65L465.401 585.455L457.453 586.387Z" fill="white"/>
<path d="M469.35 594.478C478.075 605.991 500.181 632.89 524.791 645.174C524.791 645.174 501.465 611.407 471.186 592.459C469.881 591.643 468.421 593.251 469.35 594.478Z" fill="#F6EFFF"/>
<path d="M382.726 609.122C383.142 609.122 402.524 596.317 415.072 591.998C424.881 588.626 438.694 586.527 444.253 585.771C444.8 585.696 445.051 586.422 444.574 586.698C438.914 589.969 423.556 598.707 417.024 601.182C408.936 604.248 382.726 609.122 382.726 609.122Z" fill="#F6EFFF"/>
<path d="M464.071 565.425C463.388 566.407 461.853 565.811 462.003 564.629C462.836 558.146 465.029 545.916 470.282 537.66C477.713 525.966 487.01 512.414 487.01 512.414C487.01 512.414 480.317 537.104 477.156 544.343C474.898 549.518 467.879 559.919 464.071 565.425Z" fill="#F6EFFF"/>
<path d="M494.656 561.823C504.791 577.169 511.264 595.345 511.264 611.522" stroke="white" stroke-width="1.1115" stroke-miterlimit="10" stroke-linecap="round" stroke-linejoin="round"/>
<path d="M421.579 571.998C420.666 567.374 420.185 562.8 420.185 558.376C420.185 541.467 427.249 530.525 438.182 527.374C441.965 526.282 446.209 526.122 450.785 526.973" stroke="white" stroke-width="1.1115" stroke-miterlimit="10" stroke-linecap="round" stroke-linejoin="round"/>
<path d="M411.61 547.499C413.913 530.751 422.403 520.871 433.666 519.233" stroke="white" stroke-width="1.1115" stroke-miterlimit="10" stroke-linecap="round" stroke-linejoin="round"/>
<path d="M498.686 638.551C493.066 642.414 485.751 643.501 477.473 641.402" stroke="white" stroke-width="1.1115" stroke-miterlimit="10" stroke-linecap="round" stroke-linejoin="round"/>
<path d="M495.79 647.354C491.911 648.942 487.461 649.458 482.609 648.807" stroke="white" stroke-width="1.1115" stroke-miterlimit="10" stroke-linecap="round" stroke-linejoin="round"/>
<path d="M449.22 623.727C442.933 617.384 437.319 609.869 432.723 601.798" stroke="white" stroke-width="1.1115" stroke-miterlimit="10" stroke-linecap="round" stroke-linejoin="round"/>
<path d="M382.726 609.122L395.013 601.798L396.573 606.357L382.726 609.122Z" fill="#703CBB"/>
<path d="M487.01 512.414L481.14 521.076L484.15 522.62L487.01 512.414Z" fill="#703CBB"/>
<path d="M455.868 579.308L467.293 574.408C470.453 573.055 474.031 575.104 474.452 578.511C474.733 580.776 473.489 582.955 471.397 583.872L459.471 589.072L455.868 579.308Z" fill="#F6EFFF"/>
<path d="M461.441 588.097C463.02 587.175 463.004 584.215 461.406 581.484C459.808 578.754 457.233 577.288 455.654 578.209C454.075 579.131 454.091 582.091 455.689 584.821C457.287 587.552 459.862 589.018 461.441 588.097Z" fill="#2D1155"/>
<path d="M457.453 666.472C457.453 666.472 462.917 672.048 470.308 665.881L470.714 672.564C470.714 672.564 464.633 678.496 457.448 673.737V666.472H457.453Z" fill="#703CBB"/>
<path d="M457.453 715.65C457.453 715.65 461.201 719.789 465.727 719.633C470.247 719.478 473.348 715.65 473.348 715.65L473.182 712.414C473.182 712.414 469.881 715.705 465.401 715.455C460.92 715.204 457.453 712.624 457.453 712.624V715.65Z" fill="#2D1155"/>
<path d="M460.313 583.852L468.923 591.282C469.364 591.663 469.415 592.339 469.033 592.785C468.652 593.226 467.975 593.276 467.528 592.895L458.918 585.465C458.477 585.084 458.427 584.408 458.808 583.962C459.194 583.516 459.872 583.466 460.313 583.852Z" fill="#CDABFF"/>
<path d="M461.518 586.202C461.518 588.777 459.696 589.809 457.454 588.516C455.206 587.224 453.39 584.087 453.39 581.512C453.39 578.937 455.211 577.9 457.454 579.198C459.696 580.495 461.518 583.626 461.518 586.202Z" fill="#703CBB"/>
</g>
<g clip-path="url(#clip6)">
<path opacity="0.4" d="M1144.1 531.513L1096.27 558.953L1110.12 511.755L1144.1 531.513Z" fill="#2D1155"/>
<path d="M1096.3 558.953L1013.66 511.384L1059.37 459.569L1142.01 507.138L1096.3 558.953Z" fill="white"/>
<path d="M1094.73 554.896L1019.12 511.369L1060.94 463.961L1136.55 507.488L1094.73 554.896Z" fill="#421D77"/>
<path d="M1041.19 485.553L1077.85 506.301L1097.16 484.817L1041.19 485.553Z" fill="#703CBB"/>
<path d="M1081.13 508.056L1117.79 528.803L1137.1 507.313L1081.13 508.056Z" fill="#703CBB"/>
<path d="M1058.52 534.273L1095.18 555.02L1115.41 531.454L1058.52 534.273Z" fill="#703CBB"/>
<path d="M1019.27 510.707L1055.93 531.454L1075.24 509.971L1019.27 510.707Z" fill="#703CBB"/>
<path d="M1041.19 486.347L1116.83 529.852" stroke="white" stroke-width="2" stroke-miterlimit="10" stroke-linecap="round" stroke-linejoin="round"/>
<path opacity="0.56" d="M1046.28 479.982L1121.91 523.48" stroke="white" stroke-miterlimit="10" stroke-linecap="round" stroke-linejoin="round"/>
<path opacity="0.56" d="M1052.03 473.974L1127.66 517.472" stroke="white" stroke-miterlimit="10" stroke-linecap="round" stroke-linejoin="round"/>
<path opacity="0.56" d="M1057.78 467.966L1133.42 511.464" stroke="white" stroke-miterlimit="10" stroke-linecap="round" stroke-linejoin="round"/>
<path opacity="0.56" d="M1025.05 504.385L1100.69 547.883" stroke="white" stroke-miterlimit="10" stroke-linecap="round" stroke-linejoin="round"/>
<path opacity="0.56" d="M1030.8 498.377L1106.44 541.875" stroke="white" stroke-miterlimit="10" stroke-linecap="round" stroke-linejoin="round"/>
<path opacity="0.56" d="M1036.55 492.369L1112.19 535.867" stroke="white" stroke-miterlimit="10" stroke-linecap="round" stroke-linejoin="round"/>
<path d="M1055.34 532.962L1097.16 485.553" stroke="white" stroke-width="2" stroke-miterlimit="10" stroke-linecap="round" stroke-linejoin="round"/>
<path opacity="0.56" d="M1043.92 526.138L1085.74 478.729" stroke="white" stroke-miterlimit="10" stroke-linecap="round" stroke-linejoin="round"/>
<path opacity="0.56" d="M1035.13 521.077L1076.95 473.668" stroke="white" stroke-miterlimit="10" stroke-linecap="round" stroke-linejoin="round"/>
<path opacity="0.56" d="M1026.34 516.023L1068.17 468.614" stroke="white" stroke-miterlimit="10" stroke-linecap="round" stroke-linejoin="round"/>
<path opacity="0.56" d="M1084.87 547.636L1126.68 500.227" stroke="white" stroke-miterlimit="10" stroke-linecap="round" stroke-linejoin="round"/>
<path opacity="0.56" d="M1076.08 542.582L1117.9 495.173" stroke="white" stroke-miterlimit="10" stroke-linecap="round" stroke-linejoin="round"/>
<path opacity="0.56" d="M1067.29 537.521L1109.11 490.112" stroke="white" stroke-miterlimit="10" stroke-linecap="round" stroke-linejoin="round"/>
</g>
</g>
<defs>
<clipPath id="clip0">
<rect width="170.816" height="288.833" fill="white" transform="translate(0 139.739)"/>
</clipPath>
<clipPath id="clip1">
<rect width="170.816" height="288.833" fill="white" transform="translate(1157.79 309.041)"/>
</clipPath>
<clipPath id="clip2">
<rect width="130.441" height="99.3836" fill="white" transform="translate(648.552 592.482)"/>
</clipPath>
<clipPath id="clip3">
<rect width="130.441" height="99.3836" fill="white" transform="translate(228.994 68.8368)"/>
</clipPath>
<clipPath id="clip4">
<rect width="117.914" height="198.891" fill="white" transform="translate(845 83)"/>
</clipPath>
<clipPath id="clip5">
<rect width="142.065" height="240.09" fill="white" transform="translate(382.726 512.414)"/>
</clipPath>
<clipPath id="clip6">
<rect width="130.441" height="99.3836" fill="white" transform="translate(1013.66 459.569)"/>
</clipPath>
</defs>
</svg>
