<svg width="543" height="389" fill="none" xmlns="http://www.w3.org/2000/svg">
    <g clip-path="url(#a)">
        <path d="m174.42 78.802-.264-.213c.11.17.19.22.264.213Zm3.83-20.97c.022-.078.039-.156.052-.235a1.255 1.255 0 0 0-.044.235h-.008Zm85.607 102.173.059-.103-.521.243.462-.14Zm-23.6 8.775v.22h.037l-.037-.22Zm-59.174-8.481a13.046 13.046 0 0 0-.661-1.785c.565 2.027.653 2.1.661 1.785ZM216.064 7.101l.117-.073-.338.08.221-.007Zm-10.773 190.623-.176-.154.455.837-.279-.683Zm49.973-28.519a15.48 15.48 0 0 0 1.695-1.336v-.117c-.301.11-.939.602-1.813 1.116l.118.337Zm15.41-78.287-.294-.08a.412.412 0 0 0 .294.087v-.007ZM258.933 48.33l-.051-.044.051.162v-.118Zm-.051-.044a1.36 1.36 0 0 0-.653-.8c-.118.125.366.558.359.778-.139-.286.184-.059.294 0v.022Zm-35.407 160.775c-.051 0-.147 0-.169.052a31.465 31.465 0 0 0 4.499 1.534l.227-.308c-1.512-.316-3.038-.852-4.557-1.278Zm39.002 3.422a.415.415 0 0 0-.205-.183h-.081l.286.183ZM216.783 6.58a.83.83 0 0 0-.235.051.845.845 0 0 0 .235-.051Zm55.344-2.364c-.235-.11-.367-.118 0 0ZM216.783 6.58c.132 0-.389.316-.602.433a7.588 7.588 0 0 0 2.143-.881c-.059-.132-1.013.301-1.541.448Zm19.49 40.855c.095-.052.11-.11 0 0Zm85.269 58.851c0 .176.044.345.051.514a1.51 1.51 0 0 0-.044-.514h-.007Zm-94.031 38.461v.095l.338.133-.338-.228Zm-4.322-37.976.059.286a.434.434 0 0 0-.059-.286Zm14.258 106.689-.404.051c.136-.01.27-.027.404-.051ZM94.111 3.261h.206c-.015-.044.029-.11-.206 0Zm42.282 113.422c.074-2.327 0-2.437-.088-2.107-.02.703.006 1.407.081 2.107h.007ZM125.122 3.452c.024.091.082.17.162.22h.088l-.25-.22ZM24.868 86.894a4.71 4.71 0 0 1 .25-.514 1.52 1.52 0 0 0-.25.514Zm113.11-61.025.103.426a2.969 2.969 0 0 0-.103-.426Zm150.785 173.97-.169.103c.058.044.073.125.169-.103ZM64.348 19.665l.102-.177v-.514l-.102.69Zm-4.455 143.373c.235.022.367-.015-.036 0h.036Zm27.504 25.927v-.147l-.074.359.074-.212Zm49.547-16.793.293.191c-.124-.169-.212-.213-.293-.191Zm.477 23.57v.301a.846.846 0 0 0 0-.301Zm-50.178-7.703c.066-.117.124.522.146.779a8.696 8.696 0 0 0 .096-2.467c-.154 0-.162 1.123-.242 1.688Zm0 0a.947.947 0 0 0-.052.25 1.02 1.02 0 0 0 .052-.25Zm48.974-123.166v.257l.353-.962-.353.705Zm-68.64 37.367-.067.037c.037.037.088.081.03-.037h.036Zm-5.137 8.077-.22-.073.22.073Zm4.11 10.919c.22.028.445.001.652-.081-.734-.081-.734 0-.646.081h-.007Zm-11.06-1.616-.278-.22-.69 1.417.059.096c.368-.383.677-.819.917-1.293h-.008Zm253.218 55.952-.088.168.08.485.008-.653Zm-152.047-47.405v-4.486h-1.32c-.844-.074-1.725-.147-2.613-.242-3.552-.346-7.191-.786-8.578-.793-2.62-.434-5.834.036-9.092-.096 0-.448.044-.808.073-1.087.019-.339.091-.673.213-.991.322-.523.49-1.126.484-1.74.228-3.473-.418.697-.44-.69l.499-4.164c.044 2.416.264 1.109.404.661.058-3.598.734-9.266 0-10.375.337-4.853.623-4.86.66-6.939-.059.707-.19 1.405-.389 2.086.316-1.939-.081-.926-.147-.133-.315-2.937 1.299-15.42.514-16.007h.147c-.587-.683-1.152.419-1.468-1.652l.264-1.38-.256-2.078c.19-1.395.344-.734.418-.734-.272-3.385.051-8.114.132-12.219l-1.592 4.347c.367-3.458 1.115-9.707.601-10.397l.536-2.085c1.02-6.94-.448-4.846-.139-7.615l.587-3.487v3.473c.293-3.473.484-4.861.866-7.63a.727.727 0 0 1-.089.338v-.484c-.293-.419-.491-2.203-.477-4.67.089-3.473-.344-6.19.272-11.748l-.594-1.38.352-4.164h.477c0 4.075.154 11.748.176 16.99l.22.096c0-3.106-.213-6.608-.161-8.694.08-.903.491-3.047.807-2.129l-.367-1.468c0-5.184-.044-7.798 0-10.464 0-1.329.073-2.68.147-4.369 0-.425.036-.866.058-1.336v-.455l-3.992-3.987h-.271l-.734-.037-3.596-.176.94.235c-2.15.14-4.286.279-4.887-.11a153.785 153.785 0 0 1-17.443-.977l-.925.558c-1.372 0-3.427-.881-4.095-.095l-2.935.25c-1.878-.045-3.023.278-5.136-.045l-.404-.066v.052c-4.242-.25.044.499-4.814.176-1.563-.397-1.724.734-4.095.587l-2.377-.808a21.818 21.818 0 0 0-4.895 0h-.499c.815-.462-7.132 4.01-3.771 2.115v.074l-.265.55a53.757 53.757 0 0 1-2.48 4.53c-1.79 2.402-3.126 3.283-2.62 1.271-.785 2.71-.234 1.314-1.805 4.582-.543.316-.403-.052-.22-.874-1.967 2.555-.793 1.836-2.062 3.892.125.895.484 2.056.11 2.753l.638-.734a38.758 38.758 0 0 1-4.19 7.203l-.183-.242-1.519 2.783h-.418l-2.297 3.943.404-.478a57.806 57.806 0 0 1-3.405 5.58l-.133-.168c-3.463 4.479-5.136 8.87-8.512 14.531l.088-.955c-1.511 1.704.228.86-1.335 3.04l-.507-.154c-.645 2.364-1.695 2.526-2.751 3.782l.961-.301-1.702 2.54c-1.938 2.754-1.798 1.322-1.835.734l-.734 2.203-.734.074c-.279 1.784-.96 1.373-2.201 4.067-.316.089-.037-.609-.639.191l-1.797 4.568 1.196-2.68.558.734c-1.013 2.937-2.202 3.466-3.134 5.448l.558-1.41c-1.659 3.136-2.07 3.106-3.273 4.714.462-.448 1.152-1.13.506.147-.506.925-.55.33-1.152 1.13.367.508-.69 2.835-2.113 4.663a.338.338 0 0 1-.066-.308 4.76 4.76 0 0 1-.903 1.689l-.235-.845-.499 1.998c-.836 1.028-1.467 2.937-1.71 2.533l.28-.734-5.291 8.422-.507-.147c.088 1.204-3.038 4.486-2.12 4.662-1.38 1.359-3.545 6.491-3.816 5.03-1.725 2.776-2.847 5.037-4.095 7.424a83.427 83.427 0 0 1-2.077 3.759 59.481 59.481 0 0 1-1.284 2.093l-.734 1.13-.396.588-.103.147-.051.073c-1.32 4.729-.367 1.314-.66 2.372v.448c-.844 2.827-.573 10.573-.66 15.669.175 4.986.337 9.083.498 13.217l.059 1.549v.676l4.652 4.655h.888l3.207-.11a908.13 908.13 0 0 1 7.045-.213c6.12 1.175 15.263-.404 21.852.257l1.806-.463c4.403.734 11.058-.169 17.2.558 1.505-.205 2.297-.271 2.642-.286-.279 0-.697-.11-.837-.411 1.754.213 5.306-.052 5.05.543l-.441.059c-.264.595 5.32-.272 7.28.235l-1.08-.632 3.34.125-.888.118c4.877-.469 9.779-.626 14.676-.47v2.687c0 2.746.132 5.698.455 9.083-.69-1.799.36 2.673-.397 2.849-.954 3.422.206 6.337.463 9.142.037 0 .08 0 .14.19l-.089 4.905c-.954-2.937.785 3.532 0 .837-.183 3.194-.271 6.609-.308 10.229v3.642c1.754 1.762-3.933-3.921 3.933 3.95h7.477c7.61-.051 15.477-.147 22.866 0l-.645-.25c3.749.052 8.416-.249 11.256.14l1.086.088h.734c7.808-7.813 2.165-2.166 3.911-3.906v-.367a20.563 20.563 0 0 0-.242-2.13c-.205-1.343-.469-2.46-.491-3.01-.375-2.761.242-5.294.359-4.92-.154-3.231-.961-6.315-.602-10.808.808-1.579-.792-12.63.125-12.769l-.081-.052c.251-2.93.281-5.876.088-8.811l-.066-1.659c.492 0 .976.044 1.468.088-.107.058-.22.102-.337.132l12.988-2.775-.55-.448h6.23v-30.48c1.489 1.542 1.034 1.087-.052 0Zm-104.678-5.448a.375.375 0 0 1 .11-.455l.587.697-.697-.242Zm39.105.955H75.993c-1.299-.338-2.935-1.021-3.463-1.036-.852-.455-1.916.11-2.987-.11-1.702-.117-.851-.529-1.71-.837-1.064-.228.22.419-.213.441l-1.276-.5c.733-.044.337-.257.205-.396-1.108-.059-2.855-.735-3.192 0-1.468-.345-1.468-.632-2.143-.668.22.132.646.249.646.396-.594-.316-.286.081-.044.147-.91.308-4.733-1.307-4.924-.521v-.147c-.213.587.132 1.16-.506 1.468l-.426-.264-.638.25c-.433-.191-.22-.346-.22-.419a4.84 4.84 0 0 1-1.38.088c.264-.205.528-.389.873-.631-.051 0-.095.058-.132.044l.066-.132c-.183-.265-.059-.845.345-1.469.624-.874.697-1.806 2.106-2.937l-.286-.676.969-.91.41.25c-.682 1.057-1.753 3.172-2.568 4.559l.169.14c.492-.822.88-1.858 1.247-2.372.243-.213 1.08-.631 1.057 0l-.095-.734a25.122 25.122 0 0 1 3.8-5.353l-.359.125c.228-.639.455-1.27.88-1.226a15.313 15.313 0 0 1 3.633-4.083l-.337-.536c.25-.345 1.306-.448.734-1.028l.264-.903c.337-.47.242-.94.858-1.336l.125-.074h-.044c.888-.991-.433-.249.616-1.365.587-.199-.33-.823.154-1.38l1.072-.206c1.079-.889.514-1.469 1.504-3.143.734-.632 1.541-.661 1.74.176-.191-1.101-.213-.573.065-1.703.345 0 .338.147.448.492.814-.661.08-.661.484-1.285-.374-.485-1.027-1.168-.932-1.395l-.3.154a3.804 3.804 0 0 1 1.196-2.276l.227.176.382-.91.345.139.623-1.248-.183.11a5.763 5.763 0 0 1 1.064-1.711l.161.125c1.468-1.146 1.468-2.798 2.473-4.568l.22.441c1.042-.999-.389-.61.243-1.38l.477.19c-.28-.954.543-.778.997-1.108l-.733-.096.543-.778c.66-.822 1.042-.19 1.291.103l-.161-.867.594.14c-.381-.771.33-.411.404-1.388.235 0 .25.294.47.066l-.081-1.703-.074.969-.734-.485c-.168-1.13.654-1.094.734-1.799v.529c.301-1.072.66-.954 1.101-1.424-.227.095-.572.25-.477-.191.103-.316.352 0 .573-.257-.485-.323-.411-1.16.146-1.682.07.036.126.093.162.162 0-.206-.096-.36.168-.58l.492.455-.279-.815c.338-.287.184-1.02.55-.786v.242l1.505-2.687.477.191c-.5-.587.976-1.388.147-1.681.245-.162.427-.403.513-.683.507 3.627-1.078 5.565-.095 9.384-.668-.588.33.837-.426.859-.998 1.02.118 1.975.345 2.849.05.006.097.03.132.066l-.146 1.52c-.918-.94.733 1.116 0 .257-.859 3.913-.228 9.207-.529 13.745l.242-.198c-.044 1.16.25 2.592-.14 3.473-.388.881.625 1.916.661 2.254.426.962-.418 1.836-.374 1.425.118 1.028.99 1.989.617 3.421-.808.485.792 3.892-.118 3.929h.073c-.645 1.828.456 3.553-.132 5.521a.555.555 0 0 1-.124-.11l2.766 4.002.448-.162.044 5.875Zm-3.67-44.424c.096-.22.17.074.184.177a.889.889 0 0 0 .132-.735c-.183 0-.176.485-.315.595v-.037ZM73.55 93.79v.059l.19.264-.19-.323Zm14.5 14.766-.294-.059a.678.678 0 0 0 .294.066v-.007Zm-.44-29.084v-.044l-.074.11.073-.066Zm49.297-37.91c.037.036.066.139.103.146.095-.734.117-2.65.11-5.103l-.36-.147.147 5.103Zm-52.578 30.33v.184a.191.191 0 0 0 0-.184Zm147.424 87.804v.095c.058 0 .132-.051 0-.095ZM467.732 25.972l.103.426a2.969 2.969 0 0 0-.103-.426Zm-12.731-22.52a.37.37 0 0 0 .161.22h.088l-.249-.22Zm10.933 61.502v.25l.353-.955-.353.705Zm.206 51.737c.081-2.328 0-2.438-.081-2.108-.022.704.007 1.408.088 2.108h-.007ZM424.012 3.261h.205c-.015-.044.029-.11-.205 0Zm-34.71 159.777c.272.022.404-.015 0 0Zm77.359-121.382c0 .037.066.14.103.147.095-.734.117-2.644.11-5.096l-.36-.147.147 5.096ZM354.74 86.703c.073-.176.154-.345.242-.514-.11.156-.192.33-.242.514Zm39.405-67.185.111-.177-.044-.514-.067.69Zm23.028 59.718c.095-.228.168.066.183.169a.89.89 0 0 0 .132-.735c-.183 0-.176.485-.315.595v-.03Zm-31.921 40.384-.279-.22-.697 1.417.066.088c.365-.378.672-.808.91-1.277v-.008Zm6.919-9.34-.22-.073.22.073Zm5.137-8.076-.059.036c.059.037.118.081.059-.036Zm-.99 18.995c.218.029.44.001.645-.081-.734-.081-.734 0-.645.081Zm17.765-49.306v.184a.21.21 0 0 0 .022-.092.209.209 0 0 0-.022-.092Zm-10.78 21.903v.052l.191.271-.191-.323Zm13.664 93.891c.066-.125.117.514.139.778a8.682 8.682 0 0 0 .096-2.467c-.154 0-.162 1.124-.242 1.689h.007Zm.404-108.216v-.044l-.074.11.074-.066Zm.44 29.091-.294-.058a.743.743 0 0 0 .287.058h.007Zm-147.819 27.029c-.228 1.138-.184 1.197-.059 1.05.074-.345.094-.699.059-1.05Zm51.924-13.812-.844-.382c-.447-2.768.323-3.671.162-5.661l.205 1.358c-.088-3.194.308-3.348.543-5.139-.169.558-.433 1.395-.513.11 0-.947.308-.507.411-1.395-.573-.228-.844-2.504-.551-4.575a.304.304 0 0 1 .213.206 3.886 3.886 0 0 1-.117-1.718l.645.536-.638-1.77c.161-1.175-.323-2.893.11-2.746l.139.668c0-2.981-.071-5.967-.212-8.958l.499-.154c-.734-.837-.074-4.913-.932-4.545.308-1.733-.998-6.609.08-5.728-.733-5.91-2.04-8.921-3.067-16.095.249-2.694-1.688-9.545-3.221-14.032a99.028 99.028 0 0 0-11.529-21.778c-2.201-5.522-8.989-11.19-13.421-15.522l-1.622-.735c-2.803-3.201-8.637-5.918-13.685-8.848-1.395-.381-2.128-.558-2.444-.668.235.11.58.338.587.661-1.468-.852-4.711-1.645-4.315-2.115l.426.066c.418-.55-4.909-1.204-6.605-2.019l.859.83c-1.005-.264-2.025-.477-3.045-.734h.844c-13.429-.661-19.674-2.409-31.958 1.468 1.468-1.072-2.334.94-2.686.309-3.375.036-5.628 2.092-7.896 3.4 0 .036 0 .087-.11.205a48.477 48.477 0 0 0-4.146 1.96c1.96-2.144-2.531 2.27-.734.36-11.146 5.052-21.654 17.556-27.884 29.591l.506-.411c-1.673 3.032-3.111 7.07-4.403 9.347-1.292 2.276-1.394 5.551-1.622 6.513-.469 2.533-1.68 4.604-1.651 4.134-.668 2.878-.572 5.779-1.776 9.663-1.181 1.24-1.24 11.315-2.054 11.308l.073.058c-1.387 5.214-.697 10.324-1.592 15.985a1.418 1.418 0 0 1-.118-.308 258.966 258.966 0 0 0 2.473 11.646l.448-.478v.478c-.03 8.963.536 17.919 1.695 26.808.176 3.759.227 8.569.609 10.11 0 2.534 1.262 5.405 1.798 8.452 1.218 4.787.147 2.526.543 5.008.734 3.032.205-.735.616.455l.668 3.708c-.734-2.056-.55-.867-.565-.441.947 3.092 2.29 8.114 3.368 8.745 1.534 4.127 1.255 4.289 2.121 5.985-.198-.617-.646-1.799-.514-1.88.485 1.733.433.734.184.044 1.233 2.32 5.87 12.864 7.088 12.784l-.117.088c.851.154.734-.984 2.091.316l.543 1.167c.441.448.932.859 1.395 1.292.667 1.094.154.735.095.735 2.15 2.202 4.939 5.507 7.786 7.981-.734-1.226-1.284-2.541-1.857-3.811 1.864 2.497 5.988 6.469 6.81 6.396.389.536.829 1.006 1.262 1.468 4.865 4.222 4.021 1.873 6.061 3.356l2.635 1.894-2.862-1.38c2.73 1.681 3.86 2.298 6.113 3.598h.036a.579.579 0 0 1-.264-.191l.426.139c.477-.169 2.106.228 4.256.867 3.082.903 5.555 1.116 10.53 2.357l1.321-.478c1.247.206 2.502.492 3.764.625v.477c-3.742-.125-10.831-.867-15.527-2.254l-.139.183a70.728 70.728 0 0 0 7.939 1.542c.808.198 2.752.881 1.842 1.08.485-.052.954-.103 1.468-.199 9.635.529 9.657.573 19.813-.117l-.91-.11c1.974-.412 3.889-1.028 4.528-.735 6.01-1.189 12.019-3.399 15.887-4.75l.506-.918c1.152-.595 3.317-.837 3.427-1.88l2.201-1.718a44.817 44.817 0 0 1 3.934-2.937l.337-.191h-.051c3.221-2.423-.279-.272 3.309-3.135 1.336-.735.734-1.586 2.319-3.114l2.121-1.072c2.935-2.79 2.876-3.781 6.149-8.539 1.805-2.13 3.031-2.981 2.598-1.05.69-2.585.198-1.256 1.614-4.34.499-.308.419.044.264.823 1.769-2.46.646-1.763 1.732-3.745-.191-.837-.682-1.917-.411-2.577l-.528.69a45.946 45.946 0 0 1 2.935-7.012l.228.198c.337-.903.638-1.821.917-2.739l.404-.044c.425-1.314.917-2.599 1.276-3.928l-.264.506c.228-.947 1.16-3.979 1.776-5.683l.183.125c2.055-4.758 2.129-9.098 3.149-14.95l.278.845c.734-1.932-.543-.661.059-3.004l.521-.036c-.301-2.203.573-2.695 1.013-4.127l-.734.588.499-2.717c.609-2.981 1.057-1.755 1.38-1.27l-.316-2.123.624-.337c-.543-1.579.286-1.506.139-4.186.235-.205.316.478.477-.418l-.536-4.406.103 2.761Zm-48.211-.191c-.455 2.093-1.299 4.699-1.395 5.551-.535 1.359-.146 3.121-.535 4.832-.411 2.746-.675 1.321-1.138 2.665-.418 1.689.455-.301.404.389l-.734 1.99c.117-1.189-.183-.573-.352-.374-.286 1.769-1.38 4.405-.734 5.066-.734 2.298-1.064 2.203-1.284 3.224.191-.309.44-.948.58-.926-.492.874 0 .463.132.096.088 1.549-2.936 7.005-2.334 7.453l-.132-.044c.462.492 1.167.132 1.181 1.196l-.44.573-.088 1.035c-.403.588-.44.213-.506.191-.257 1.667-1.431 3.672-2.348 5.383.799-.375 1.541-.808 2.333-1.249-.983 1.469-3.104 3.738-2.847 4.266l-.983.558c-2.686 2.064-.954 2.13-2.033 2.937a12.74 12.74 0 0 1-1.526.735c.386-.356.748-.736 1.086-1.138a10.06 10.06 0 0 1-3.002 1.703c.081 0 .132-.044.169 0l-.147.147c0 .33-.462.991-1.379 1.52-1.306.661-2.253 1.645-4.755 1.608l-.47.734c-.638 0-1.262 0-1.893-.11v-.477c2.378-.22 4.67-.998 6.692-2.269l-.073-.206a12.66 12.66 0 0 1-3.185 1.586c-.426.066-1.556-.22-.903-.69l-.645.632c-4.161.587-4.638.653-8.615-.801l.286.345c-.851-.102-1.702-.293-1.769-.734a9.543 9.543 0 0 1-4.777-4.795l-.675.088c-.345-.469-.169-1.652-.968-1.409l-.903-.903c-.396-.735-.932-.992-1.115-1.976v-.191.037c-.631-1.813-.47.272-1.116-1.872.081-.815-1.005-.404-1.284-1.469l.338-1.321c-.243-2.027-1.13-2.071-1.974-4.913-.096-1.468.396-2.276 1.225-1.542-1.027-1.05-.638-.426-1.365-2.019.242-.323.345-.161.69.147 0-1.557-.477-.852-.734-1.975-.624-.206-1.592-.411-1.702-.779l-.088.485a8.634 8.634 0 0 1-.896-3.965h.294l-.396-1.505.345-.154-.426-2.203-.051.316a11.98 11.98 0 0 1-.389-3.187h.205c.301-2.805-.734-4.993-1.035-8.246l.448.397c.33-1.131-.66-.257-.558-1.594l.507-.095c-.734-1.124.058-1.513.264-2.328l-.646.411.059-1.52c.132-1.674.8-1.057 1.152-.829l-.572-1.109.579-.242c-.734-.801.081-.83-.345-2.262.221-.132.36.228.441-.264l-.896-2.372.404 1.469-.866-.147c-.69-1.469.044-2.049-.22-3.121l.279.734c-.257-1.755.117-1.85.301-2.849-.162.309-.397.786-.514.074-.051-.522.301-.287.396-.779-.579-.117-.895-1.38-.631-2.525a.285.285 0 0 1 .213.11 1.21 1.21 0 0 1-.103-.955l.639.301-.602-.976c.176-.654-.279-1.608.154-1.52l.125.374c.059-1.652.125-3.297.22-4.941l.514-.052c-.69-.507.322-2.68-.551-2.54.514-.91-.198-3.672.734-3.084.22-3.21-.638-5.015.147-8.878.946-1.321 1.049-5.103 1.467-7.548.173-4.275.664-8.53 1.468-12.732 1.827-2.482 1.717-7.02 3.669-9.413l-.051-.925c1.519-1.352 2.37-4.333 4.674-5.537.161-.321.353-.626.573-.91a.45.45 0 0 1-.514-.081c.653-.33 1.644-1.344 1.9-.779l-.11.14c.221.536 1.556-1.329 2.495-1.101l-.623-.412c.402-.152.814-.28 1.232-.381l-.278.227c5.136-2.937 8.805-.844 13.839-.198-.939.316 1.13.132.822.866.624 1.469 2.143 1.146 3.192 1.807a.219.219 0 0 1 .162-.044c.477.5.925 1.027 1.343 1.578-1.527-.36 1.563.676.205.294a52.394 52.394 0 0 1 7.243 18.995l.176-.36c.33 1.785 1.005 3.98.836 5.412-.168 1.432 1.05 2.937 1.16 3.473.594 1.469-.073 2.937-.11 2.306.308 1.615 1.313 3.084 1.137 5.404-.734.837 1.218 6.212.294 6.344h.073c-.492 2.974.734 5.72.176 8.922a.745.745 0 0 1-.132-.162c.983 2.137 1.886 4.303 2.84 6.484l.448-.279v.279c0 5.551-.132 10.669-.375 15.419l-.124-.022Zm212.71 2.093h-1.277c-.836-.074-1.724-.147-2.612-.242l-.932-.089c-3.236-.33-6.377-.697-7.639-.734-2.627-.433-5.87.044-9.121-.095 0-.433.044-.779.073-1.043.016-.342.085-.678.206-.999a3.231 3.231 0 0 0 .491-1.74c.228-3.473-.418.734-.44-.69l.499-4.156c.044 2.416.257 1.101.396.661.066-3.598.734-9.259 0-10.368.345-4.846.631-4.86.668-6.939-.132.698-.25 2.078-.396 2.093.315-1.946-.074-.933-.147-.14-.308-2.937 1.306-15.368.521-15.992h.147c-.587-.69-1.152.419-1.468-1.652l.264-1.38-.249-2.078c.191-1.395.345-.735.418-.735-.271-3.392.051-8.077.132-12.218l-1.6 4.347c.367-3.458 1.116-9.7.602-10.39l.536-2.078c1.027-6.939-.44-4.846-.132-7.614l.587-3.48v3.465c.293-3.466.491-4.854.873-7.622 0 .119-.03.235-.088.338v-.484c-.294-.419-.492-2.203-.477-4.67.088-3.474-.345-6.183.271-11.749l-.594-1.38.352-4.163h.477c0 4.075.154 11.748.176 16.983l.221.088c0-3.106-.213-6.608-.169-8.686.088-.903.499-3.047.807-2.13l-.36-1.468c0-5.184-.044-7.79 0-10.463 0-1.33.074-2.673.147-4.37 0-.418.044-.858.059-1.336v-.558c3.566 3.562-4.858-4.868-3.992-4.001h-.154l-.734-.037-3.588-.176.939.235c-2.15.147-4.286.279-4.88-.11a153.645 153.645 0 0 1-17.435-.977l-.925.558c-1.365 0-3.427-.881-4.087-.088l-2.936.242c-1.871-.044-3.023.28-5.136-.044l-.404-.066v.051c-4.241-.25 0 .5-4.814.177-1.563-.397-1.724.734-4.094.587l-2.371-.8a21.04 21.04 0 0 0-4.901 0l-.573.051h-.073l-3.75 2.115v.037l-.066.132-.139.279a38.21 38.21 0 0 1-.617 1.24 53.677 53.677 0 0 1-1.856 3.29c-1.791 2.401-3.126 3.282-2.62 1.27-.785 2.71-.235 1.307-1.805 4.575-.543.316-.397-.044-.22-.867-1.96 2.556-.786 1.829-2.055 3.885.125.896.477 2.056.103 2.746l.638-.734a38.852 38.852 0 0 1-4.175 7.195l-.191-.242-1.519 2.783h-.418l-2.297 3.994.411-.477a61.071 61.071 0 0 1-3.405 5.58l-.14-.168c-3.456 4.471-5.136 8.862-8.504 14.523l.095-.954c-1.519 1.696.227.86-1.336 3.032l-.506-.154c-.646 2.365-1.702 2.526-2.759 3.774l.969-.293-1.703 2.533c-1.937 2.76-1.798 1.322-1.834.734l-.734 2.203-.734.073c-.279 1.785-.961 1.374-2.202 4.068-.315.088 0-.61-.638.191l-1.79 4.56 1.196-2.68.55.734c-1.013 2.937-2.201 3.466-3.126 5.448l.55-1.41c-1.651 3.129-2.069 3.1-3.265 4.707.455-.448 1.152-1.13.506.154-.506.926-.558.33-1.152 1.131.367.5-.69 2.827-2.113 4.656a.324.324 0 0 1-.071-.146.33.33 0 0 1 .005-.163 4.596 4.596 0 0 1-.903 1.689l-.235-.844-.499 1.997c-.829 1.028-1.423 2.937-1.71 2.533l.279-.734-5.29 8.473-.507-.147c.096 1.204-3.038 4.487-2.113 4.663-1.38 1.358-3.522 6.498-3.816 5.03-1.732 2.775-2.847 5.037-4.095 7.416a78.258 78.258 0 0 1-2.069 3.752 62 62 0 0 1-1.292 2.092l-.733 1.131-.389.588-.206.301-.051.073v.037c.139-.514-1.262 4.494-.668 2.379v.191c-.844 2.819-.572 10.573-.66 15.662.176 4.978.337 9.075.499 13.217l.058 1.549v.947l4.645 4.648h.609l3.207-.11c2.202-.074 4.499-.147 7.038-.213 6.12 1.175 15.256-.404 21.838.257l1.798-.463c4.403.735 11.058-.169 17.193.558 1.468-.205 2.297-.271 2.642-.286-.279 0-.734-.11-.83-.411 1.747.213 5.299-.052 5.042.543l-.448.059c-.257.595 5.32-.272 7.28.235l-1.072-.632 3.332.081-.888.118c4.984-.478 9.994-.632 14.999-.463v2.342c0 2.739.132 5.691.455 9.076-.69-1.799.359 2.673-.396 2.849-.954 3.414.205 6.329.462 9.134 0 0 .081 0 .139.191l-.088 4.898c-.954-2.937.793 3.524 0 .844-.183 3.187-.271 6.608-.308 10.214v4.009l3.941 3.95h7.118l5.738-.044h3.831l3.852-3.855v-1.924c0-3.84 0-7.651.088-11.351l-.249.653c.044-3.216-.169-7.086 0-9.927.154.011.308.011.462 0a.123.123 0 0 0 0 .147c.352 0 .499.124.903 0l.066-.544c0-.11-.074 0-.155.066 0-.117.037-.257-.058-.242-.198-.206-.301.323-.441.272l.045-.044c-.133-.118-.301-.088-.404.125-.11-.456.382-.103.176-.5.147.147.352-.183.462-.198a.944.944 0 0 1-.293-.808c-.404.287 0 .977-.352 1.153l-.243-.088-.088.499c0-.389.066-.734.11-1.108.044-.375.066-.661.081-.992h.33c0-.132-.198-.301-.073-.382-.059-.146-.22 0-.242.162l.044-.206a.131.131 0 0 1-.059.066v-.69l.044-.044.14.074.073-.118c0-.374.176-.653.374-.609a1.047 1.047 0 0 0-.264-.125l.051-.118.617.213c-.074.074-.147.132-.228.096.206.396.521-.206.624.308-.315.441-.47.191-.8.353-.176-.382.213-.235.22-.456l-.183-.102c0 .227-.367.139-.272.653.325.088.663.12.998.096l-.344 2.606a.74.74 0 0 1 0 .176c.352 0 .168-1.006.256-1.101.088-.095.147-.257.206-.073v.146c.22-.139.073-.381.271-.337.154-.221-.146-.059-.044-.272.213.081.132-.734.455-.389 0 .117 0 .426-.154.477l.191.264c-.22.133-.088.089-.316.133-.102.367-.073.594-.176.91.088-.095.074-.389.198-.367.125.022 0 .176 0 .301.199-.426.228.367.404 0 0-.426 0-.419-.132-.683.132-.139.293.147.286.514v-.338c.037.088.132.088.14.177l.044-.169c-.096-.257-.169-.375-.331-.25.066-.228-.088-.573.118-.646.205-.074 0 .191 0 .294.477-.265.477.558.851.359-.095.155-.323-.066-.499.184.103.294.228-.096.338-.059a.317.317 0 0 0-.077.206c0 .075.028.148.077.205l.044-.205c.066 0 .183 0 .19.081a.288.288 0 0 0-.08-.199.625.625 0 0 1 .8-.279c0 .434-.463.265-.221.588.132-.081.235-.551.463-.323-.088.249.11.257.117.411l.301-.529a.425.425 0 0 0 .47-.073.16.16 0 0 1-.086.047.158.158 0 0 1-.098-.011c.191-.528.404.155.668-.073l-.118.176c.213.096.367-.066.514-.249v.315c0-.433.33-.565.389-.697-.462.33-.433-.294-.895.051.154-.44.279-.521.433-.947.073 0 .11.088.125.184.044-.169.044-.448.146-.573l.044.169c.331.147.22-.735.536-.624.095.389-.205.558-.367.815.169.352-.293.22-.073.734l.073-.257c.096 0 .103.213.044.227.118-.095.096 0 .125-.212.477-.089 0 .521.492.646-.044.117-.184.11-.133.337l-.271-.073v.316c.338 0 .492-.426.587-.955-.264.331-.066-.323-.235-.455.037-.162.103-.081.147 0 0-.088.154-.162.11-.33.147.734.793.69.734 1.468.213.198.734-.301 1.086-.396l-.074.227c.492.595.287-.573.485-.8-.162.294.235.294.352.499.147-.272.235-.734.484-.734.103.294.191.793.353.8l.066-.286c.168 0 .345-.257.484-.081.205.132.139-.338 0-.367l.139-.213v.096c.199-.235.331-.735.676-.882-.045.316.359.529.058.676.066-.169-.103-.294-.139-.426-.037-.132-.184.301-.228.345.072.27.097.551.074.83.154-.543.866-.176.785-1.006.293 0 .631-.257.976-.147l-.059-.161.33.315-.051.081.22.228a.285.285 0 0 1-.081.308c0 .059-.095-.044-.058-.095-.154.293.183.095.102.411-.058-.044-.11.036-.146 0 .256.176.278-.367.484.073.059-.279.227-.602.462-.396-.051.198.213-.066.162.315.051-.198.264.037.257-.205 0 .088-.103.095-.169 0 .066-.103.044-.323.147-.294a.222.222 0 0 1 0 .096c.102-.213-.059-.735.168-.808.58-.25 0 .822.132.969 0-.176.243-.36.382-.205v.088c.051-.074.125-.243.213-.066 0-.301.036-.603.051-.808l.264-.074-.036.169a.193.193 0 0 1 .064-.069.197.197 0 0 1 .09-.033c.051.227 0 .168-.103.271.068.196.12.181.154-.044.051-.132.264-.499.059-.558.125-.235.22.22.315.096 0 .19-.058.249 0 .396.103 0 .169.051.242-.051-.088-.052.001-.184-.132-.279.037-.118.162-.169.147-.265 0 .052-.059.132-.139 0a.26.26 0 0 1 .089-.06.262.262 0 0 1 .211 0 .28.28 0 0 1 .089.06v.132c.146-.352.433-.293.521-.69l-.059-.073c-.037.11-.125.132-.169.037.132-.118-.125-.346 0-.522.125-.176.396.213.485-.22-.199-.037-.477-.242-.544-.044h.133l-.243.543c0-.191-.234.147-.264-.169.083-.043.169-.079.257-.11 0-.132-.264-.044-.374-.073l.139.103c-.205.279-.506.22-.734.44.147-.264-.242-.191-.132-.462.11-.272.154.073.125 0 0-.279-.147-.044-.213-.25 0 .183-.22.308-.058.499-.088-.11-.221.184-.345 0 .073.316-.162.228-.176.382a.273.273 0 0 1-.133-.139c.081-.118.177-.272.279-.441.052.044.147.044.103 0v-.118c.198-.323.404-.653.514-.8v.169c.139-.419.367 0 .521-.345v.095c.235.037.279-.536.491-.293v.183a.58.58 0 0 0 .074-.382l-.264.044c.051-.132.139-.249.212-.257v-.315c.096-.338.257.125.353-.206l-.154-.205a.211.211 0 0 0-.125.161c-.198.191-.345-.25-.396-.418-.052-.169 0-.397 0-.588-.162.081-.118.426-.279.514a.12.12 0 0 1-.027-.077.12.12 0 0 1 .027-.077l-.103.183c0-.095-.308-.139-.161-.374h.11l-.154-.117c.152-.122.285-.266.396-.426.124.33.308-.074.506.073.02.038.037.077.051.118a1.956 1.956 0 0 0-.117.279l.147-.089c.1.008.199-.015.286-.066a.242.242 0 0 1 .125.066l-.052.324c-.19-.279-.286-.059-.455-.074l.397.147c.198.257.08.323-.059.389.021.002.04.011.055.026a.086.086 0 0 1 .026.055c0-.125.396-.397.051-.448 0-.374.213-.184.301-.279-.073-.081 0-.242 0-.374-.044.051-.095.161-.169.139a.165.165 0 0 1 0-.103c.052-.036.103-.088.154-.132l.074-.073.124.337c.11 0 .154 0 .169-.051l.066.088-.125.463-.242-.11c0 .154-.161.286-.036.418 0 0 .066-.073.102-.059 0 .338-.301.184-.212.522.176-.096.205 0 .308-.301a.531.531 0 0 1 .381.22c.052-.059.052-.264.11-.308h-.044v-.507c-.051.11-.102.066-.161.073l.257-.602c-.081-.352-.25-.279-.389-.301a.204.204 0 0 1 .176-.183c.103.352.514.168.528.455.081 0 .11 0 .125-.235-.073 0-.227.037-.139-.213.139-.103.212.081.323.066 0 .059-.089.25-.045.198.279-.147.793-.132 1.05-.734-.096.059-.11.272-.242.162 0-.162.073-.133.102-.213 0-.294-.132.198-.271 0l.227-.353-.124-.272.198-.301.954.074h.535l3.053-3.106v-.551l.044-2.203c0-1.468-.066-2.937-.125-4.405l-.066-1.645c.499 0 .984.044 1.468.095a1.758 1.758 0 0 1-.338.125l12.974-2.775-.543-.448h6.23l-.11-34.885Zm-104.678-.955a.378.378 0 0 1 .11-.462l.587.734-.734-.25.037-.022Zm39.105.955H405.74c-1.292-.345-2.936-1.028-3.457-1.043-.851-.448-1.915.118-2.986-.11-1.703-.117-.851-.521-1.71-.837-1.064-.22.22.419-.213.441l-1.277-.5c.734-.036.338-.257.206-.396-1.108-.059-2.855-.735-3.192 0-1.468-.338-1.468-.632-2.143-.661.213.125.646.25.646.389-.602-.316-.286.081-.044.147-.91.316-4.733-1.307-4.924-.521v-.147c-.213.587.125 1.16-.506 1.468l-.426-.264-.646.25c-.425-.184-.22-.346-.22-.412a4.806 4.806 0 0 1-1.38.081c.265-.205.536-.389.881-.624-.054.044-.098.059-.132.044l.066-.132c-.176-.264-.059-.844.345-1.469.631-.866.697-1.806 2.113-2.937l-.293-.675.968-.911.411.25c-.682 1.057-1.753 3.172-2.568 4.56l.169.139c.499-.815.88-1.857 1.255-2.371.234-.213 1.071-.632 1.049 0l-.095-.735a24.94 24.94 0 0 1 3.801-5.36l-.353.125c.221-.639.448-1.27.874-1.226a15.415 15.415 0 0 1 3.632-4.083l-.337-.536c.249-.345 1.306-.448.733-1.028l.264-.903c.338-.47.243-.94.859-1.329l.125-.073h-.044c.888-.984-.433-.25.616-1.359.587-.205-.33-.822.162-1.38l1.064-.213c1.078-.889.506-1.469 1.467-3.135.734-.64 1.541-.661 1.739.176-.19-1.102-.212-.573.066-1.711.345 0 .338.147.448.5.815-.662.081-.662.484-1.293-.374-.477-1.02-1.167-.932-1.395l-.3.154a3.8 3.8 0 0 1 1.196-2.276l.227.183.382-.91.345.14.631-1.249-.184.11a5.43 5.43 0 0 1 1.057-1.71l.161.124c1.468-1.145 1.468-2.797 2.473-4.567l.221.44c1.042-.998-.389-.616.242-1.387l.477.19c-.279-.946.55-.77.998-1.108l-.734-.088.55-.778c.661-.83 1.035-.191 1.284.102l-.154-.866.587.14c-.389-.771.331-.412.397-1.388.234.037.249.293.469.066l-.081-1.711-.073.97-.734-.485c-.176-1.124.646-1.087.734-1.792v.521c.301-1.072.653-.954 1.101-1.424-.228.103-.573.257-.477-.191.103-.308.345 0 .572-.257-.484-.323-.411-1.16.147-1.674a.406.406 0 0 1 .161.154c0-.206-.095-.352.169-.573l.485.448-.272-.815c.338-.286.183-1.02.543-.778v.264l1.468-2.687.477.183c-.499-.58.983-1.38.146-1.674.246-.16.428-.402.514-.683.514 3.628-1.079 5.566-.095 9.377-.668-.588.33.844-.426.866-.991 1.021.125 1.975.345 2.85a.25.25 0 0 1 .139.065l-.146 1.513c-.925-.94.733 1.123 0 .264-.866 3.914-.228 9.208-.536 13.746l.249-.198c-.051 1.152.25 2.591-.146 3.465-.397.874.623 1.924.66 2.262.426.962-.418 1.835-.374 1.424.117 1.028.991 1.99.616 3.415-.807.492.8 3.891-.117 3.935h.073c-.638 1.829.448 3.547-.132 5.515a.586.586 0 0 1-.125-.103l2.767 4.002.448-.169.132 5.852Zm17.45 50.738h.154-.154Zm4.116 8.884c-.044 0-.095 0-.124-.051l.124.051Zm.316-9.398a.51.51 0 0 0 .154.33l-.198.242-.206.118c-.051-.345-.073-.565 0-.492l-.102-.162.337-.051.015.015Zm-1.717 2.988v-.066h.073l-.059.074-.014-.008Zm.235-2.122v.191c-.103.096-.191.22-.287.323-.051-.147-.205-.367-.058-.477-.11-.074-.176 0-.235.081-.037-.25-.051-.492-.066-.735l.734-.102c.205.227.344.506.403.807a.209.209 0 0 0-.093.003.202.202 0 0 0-.083.041c-.044.052.198-.11.169.132l-.147.096-.037-.272a.268.268 0 0 0-.132 0c-.058-.095-.11-.161-.183-.103l.015.015Zm.183 5.426v-.066.066Zm.125-3.179a.203.203 0 0 0-.147.051c-.066-.044-.044-.146 0-.22h.235c0 .059-.044.081-.059.132l-.029.037Zm.161-.117v-.008l-.058.162a2.713 2.713 0 0 1-.045-.492c.074.11.169.066.221.161.051.096-.059.147-.088.221l-.03-.044Zm.33-.625a.695.695 0 0 0 0-.249.213.213 0 0 1 .059.154l-.081.095h.022Zm.734 3.305-.095-.044.11.036-.015.008Zm.125-3.004-.183.47-.133.066c0-.08-.088-.095-.132-.124a.192.192 0 0 0 .052-.11c0-.184-.044-.184-.096-.147 0-.133.044-.206.132-.14v.096a1.652 1.652 0 0 0 0-.199.528.528 0 0 0 .184.066c.059 0 .051-.213 0-.506a.32.32 0 0 1 .059.073.278.278 0 0 1-.037.059c.066.11.117.117.161.088 0 .132-.051.279-.124.294l.117.014Zm.176 3.371a.746.746 0 0 1-.066-.309l.103.037-.037.272Zm-.242-5.977a.187.187 0 0 0 0-.11h.169c0 .117.044.198.139 0 .096.426-.183.271-.323.102l.015.008Zm.734 2.283c0-.036-.052-.066-.066-.095a.274.274 0 0 0 .095-.125l-.029.22Zm-.176-2.283a.525.525 0 0 1-.132-.154l.469-.059a.275.275 0 0 0 0 .081c-.103.117-.286.051-.345.124l.008.008Zm15.637 3.458.272-.051c-.132.073-.169.154-.301.117a.224.224 0 0 1 0-.073l.029.007Zm-1.592-1.931a.38.38 0 0 1-.066.118.305.305 0 0 0 0-.074l.066-.044Zm-.844-2.041.697-.052a6.293 6.293 0 0 0-.734.228.708.708 0 0 0 0-.184l.037.008Zm-.47 2.115a.28.28 0 0 0 .11.095s-.08 0-.124-.073l.014-.022Zm-1.13-1.99h.132c-.051 0-.066.095-.132.139a.463.463 0 0 1 0-.139Zm-.734.058h.25a.284.284 0 0 1-.264.066.089.089 0 0 1 0-.051l.014-.015Zm-2.091 2.24h.169l.044.308c-.066.228-.125 0-.228.044l.059.345-.242-.264c.059.22-.103.154-.132.213a.27.27 0 0 1-.052-.073c.125-.177.243-.39.382-.566v-.007Zm-.895.25v.066c0 .022-.198.073-.294.124 0-.161.154-.381.316-.198l-.022.008Zm-.734-2.343a.775.775 0 0 0 0 .118c-.059 0-.095-.052-.125-.125l.125.007Zm-.939 3.194a.14.14 0 0 0 0 .11s-.044-.044-.066-.102a.18.18 0 0 0 .08 0l-.014-.008Zm-.397-.47v.301a1.582 1.582 0 0 1-.337 0c.117-.132.22-.315.345-.337l-.008.036Zm-.543-2.937h.059v.044h-.044l-.015-.044Zm-.278 3.048a.237.237 0 0 0 .146-.059c.059.051.044.147 0 .227a1.353 1.353 0 0 1-.242-.044.562.562 0 0 1 .066-.132l.03.008Zm-1.321.44.183-.47.132-.066c0 .081.081.096.125.125a.258.258 0 0 0-.044.11c0 .184 0 .184.088.147 0 .132-.044.198-.125.139v-.095a2.18 2.18 0 0 0 0 .198.589.589 0 0 0-.19-.066c-.052 0-.044.213 0 .507a.305.305 0 0 0-.059-.074l.036-.058c-.066-.111-.11-.118-.154-.089 0-.124.052-.271.125-.293l-.117-.015Zm.11-2.996.095.037-.095-.037Zm-.286-.367a.745.745 0 0 1 .066.301h-.103l.037-.301Zm-.485 3.671.074.096a.28.28 0 0 0-.103.125l.029-.221Zm-.477-3.81v.132h-.176a.166.166 0 0 1-.066-.088h.264l-.022-.044Zm-1.893.146v.089l-.11.044a.541.541 0 0 0-.103-.125l.213-.008Zm0 7.116c-.051.102-.293.102-.235-.162.162.132.147-.734.301-.228 0-.227 0-.323-.073-.367v-.154h.169a.14.14 0 0 1 .07.066c.014.03.018.063.01.096 0 .367-.22.389-.279.734l.037.015Zm.272-7.108h.11-.11Zm.168 1.131c.138-.419.302-.829.492-1.227h.47v.037c-.734 0-.441.543 0 1.285l-.778-.198v.169c-.081-.066-.147.161-.191-.044l.007-.022Zm.639 1.732a2.253 2.253 0 0 0-.096.397.57.57 0 0 1-.161.051c.047-.128.079-.261.095-.396.05-.03.105-.05.162-.059v.007Zm-.162 3.503a.443.443 0 0 1-.425-.051l.044-.052c.734 0 .44-.551 0-1.285l.778.198v-.168c.08.058.146-.169.19.036-.151.45-.333.889-.543 1.315l-.044.007Zm.573.044a.294.294 0 0 0 0-.176l.154-.059c0 .14 0 .308-.14.228l-.014.007Zm1.893.477c-.088.221-.338-.051-.308-.198 0 .47-.323.264-.441.507-.308 0-.227-.602-.491-.412l.103.25a.579.579 0 0 1-.609.051c0-.33.124.074.176-.095l-.125-.323c.059 0 .161-.294.161 0 0-.162.088-.411-.08-.279l.124-.242v-.088l.11-.052c.044.103.132.088.213.338 0 .095-.073.132-.117.176a.167.167 0 0 0 .227.059.236.236 0 0 0 .059-.059c-.183-.059-.095-.213-.139-.485.102-.117.278-.058.344-.132a.627.627 0 0 1 .206.654c.088-.132.198 0 .286-.294-.176.309-.044-.661-.264-.242-.095-.441.183-.279.323-.11-.059.073 0 .22 0 .337.183-.154.066-.469-.074-.58l.199-.235.102-.051c.059.345.081.573 0 .492l.132.22-.168.11c.095.272.198 0 .293 0 .118.177-.22.272-.301.735l.059-.052Zm.47-3.01a.202.202 0 0 1-.059-.162.49.49 0 0 0 .081-.095.866.866 0 0 0 0 .249l-.022.008Zm-.36-3.437c.073-.073.139-.132.228-.095-.206-.397-.521.206-.624-.301a.723.723 0 0 1 .235-.235h.587c0 .206-.235.147-.243.33l.184.103c0-.183.22-.176.264-.426h.14c0 .36-.177.632-.367.595.084.048.172.087.264.117l-.052.125-.616-.213Zm.734 2.563v.059l.059-.162c.035.162.052.327.051.492-.073-.11-.169-.066-.228-.161.028-.08.06-.159.096-.235l.022.007Zm4.821 2.203-.125.198c-.073 0-.249.125-.308-.162.147 0 .125-.058 0-.227-.103.279-.396.154-.316.595-.198.044-.073-.074-.242-.206a.587.587 0 0 1 0-.352l-.557.271c0 .338.425.243.286.69 0 .118.051.617-.176.507v-.103c-.081.074-.11-.044-.228-.088-.073-.323.088-.249.125-.492-.051.081-.11.221-.183.206v-.125l-.199.11c-.051.257.162 0 .206.191l-.11.22a.498.498 0 0 1-.37.096.484.484 0 0 1-.327-.198.34.34 0 0 1-.059-.096c-.205-.139-.073.22-.095.433-.022.213-.221-.051-.316.074 0 .249-.088.257-.059.565l-.183-.044c0 .477.227.051.301.25.147.396-.118.154 0 .389.132-.059.11-.272.169-.353.058-.08.132.059.146.213-.242-.146-.073.345-.264.309v-.096c.037.309-.242.155-.315.323-.243-.33.095-.499.073-.594l-.22.132c.073-.228-.052-.404.059-.624-.133.124-.184-.162-.301.051.102-.485-.242-.338-.294-.624.154-.14.521.316.484.367 0-.095.184-.081.279 0l.052-.441c-.125 0-.279.213-.272-.154l-.147.213c.02-.291.097-.576.228-.837-.389-.411-.528.58-.851.191l.036-.051c-.484.154-.682-.323-.844-.911.03.008.061.008.091.001a.176.176 0 0 0 .078-.045c.044-.044-.198.11-.161-.132l.147-.103.036.272a.268.268 0 0 0 .132 0c.052.088.11.154.176.095v-.191a4.01 4.01 0 0 0 .287-.323c.051.147.198.367.058.478.257.176.309-.368.477-.617.059.051.184.117 0 .294a.473.473 0 0 1 .294-.199.359.359 0 0 0-.074.147h.323v-.051l.198.058v.206c.147-.103.25.191.345.191-.058-.352.074-.316.213-.279.06.129.095.269.103.411l-.272.074c.103.066.177.257.257.286.037 0 .074 0 .11-.081a.598.598 0 0 0 0-.279l.154-.492h.044a.357.357 0 0 1-.08.257c.066-.11.271-.073.257-.257h.447c.088.162.169.096.257 0h.991v.059a.436.436 0 0 0 0 .455l.029-.051Zm.044-2.203h-.235l-.051-.492c-.184-.162-.316.228-.242.367-.184-.103-.096-.176-.154-.396.034-.101.075-.2.124-.294h.162a.243.243 0 0 1 0 .066c0-.037-.059-.044-.052 0 .162.059.213 0 .221-.117a.608.608 0 0 0 .146-.089v.081a.193.193 0 0 0 .06-.064.186.186 0 0 0 .028-.083l.147-.205c.088 0 0 .411.147.308-.051.36-.25.059-.396.323a.241.241 0 0 1 .058.25c-.058.125-.22.191-.117.374a.47.47 0 0 1 .139-.33l.147.301a1.34 1.34 0 0 0 .235-.33.236.236 0 0 0 .227-.14c.213.081-.095.316 0 .352l.067-.227a.266.266 0 0 1 .051.073c.051.272-.279.257-.352.411-.191-.161-.287.235-.419-.066l.059-.073Zm2.546 3.165c-.183-.037 0-.213-.139-.36-.059.47-.22-.353-.286.176-.154.059-.147-.213-.22-.345.161-.059-.14-.367.058-.47-.205-.198-.066.404-.227.279l-.081-.382c-.147-.088-.47-.249-.602 0 .184.221-.051.265 0 .485 0-.331.213-.132.235 0-.11.103-.396.22-.469.139l.256.177c-.044.205-.271.602-.264.66-.117-.146-.242-.08-.323-.279l.118-.301.103.228.044-.323a1.255 1.255 0 0 1-.477-.521c.249 0 .587-.272.939-.992a.164.164 0 0 1 0 .088.96.96 0 0 0 .205-.044.274.274 0 0 0 .044.089h.154c0 .124.096.088.162 0l.059-.052.3-.037c.052.147.206.133.375.111l-.037.198a.557.557 0 0 1-.117.286s.073 0 .139.052l-.205.682c.168.067.102-.528.3-.447.08.283.053.586-.073.851l.029.052Zm-.55-1.895c0-.088.095-.147.161 0a.32.32 0 0 1-.168 0h.007Zm.528-4.119-.161-.286c0 .22-.066.484-.154.477-.206-.551 0 .389-.272.088.066-.186.115-.378.147-.573a.086.086 0 0 0-.059 0l.852-.066c-.133 0-.338.052-.36.331l.007.029Zm.969 2.43v-.058l-.095.308-.199-.132c.052-.441.213-.257.279-.514-.286-.397-.249.455-.506.455-.272-.44.176-.323.161-.675.147.073.309 0 .477.058l-.044.14c.074.051.184 0 .294 0-.088.301-.095.668-.367.426v-.008Zm1.284-.367a.48.48 0 0 0 0 .169c-.169-.257-.125.272-.308 0v-.081c-.095.243-.147-.044-.228.184l-.036-.132c-.213.161.088.169-.103.492-.205 0-.125-.485-.198-.624l.051-.103h.052l.036.264a.954.954 0 0 1 .529-.11c0-.154-.169-.125-.088-.316a.15.15 0 0 0-.11 0l.073-.132-.176.052a.327.327 0 0 0 .066-.213l.213.044v.058-.146c.095.102.176.235.256.315a.343.343 0 0 0-.168.397l.058-.059.081-.059Zm-.491-.22.117.066a.189.189 0 0 0-.019.081c0 .028.007.056.019.081-.059 0-.088-.11-.11-.213l-.007-.015Zm.645-.374h.235a.385.385 0 0 1-.132.154 1.286 1.286 0 0 1-.235-.213c.154-.147.235-.441.426-.367-.088.242-.147.411-.301.418l.007.008Zm-.051-1.755a.247.247 0 0 0 0-.243h.411c-.125.125-.25.265-.411.265v-.022Zm.734-.235v-.052h.066a.167.167 0 0 0-.074.052h.008Zm.829.124c0-.073.088-.088 0-.139-.088.095-.228.198-.22.294 0-.059 0-.177.081-.191-.25.117-.411-.118-.566-.154a33.642 33.642 0 0 1 1.762-.066c-.36.198-.734.425-1.094.256h.037Zm1.695.067h-.176c.002-.103.019-.204.051-.301h.389c-.103.088-.205.117-.264.279v.022Zm.33-.096a.208.208 0 0 0 0-.176c.128.015.252.052.367.11-.117.132-.235.213-.374.059l.007.007Zm-44.623 14.245a.794.794 0 0 0-.059.25 1.02 1.02 0 0 0 .052-.25h.007Zm.147.925v-.147l-.074.36.074-.213Zm38.107-9.905.117.264c.052 0 .074-.147.125-.198-.059.044-.14.037-.242-.066Zm2.465-3.091v-.133c-.014.066-.058.133-.014.133h.014Zm1.637 1.6c.044-.11.176-.103.132-.33 0 .249-.22.059-.125.33h-.007Zm.22.066-.154.074.11.095c0-.066 0-.161.051-.169h-.007Zm-5.621 2.622.088-.132s-.183-.103-.081.132h-.007Zm-3.133-.353h.051c0 .147 0 .125 0 0v-.279.11c-.081 0-.132 0-.096.147l.045.022Zm-.536.147v.132c.117-.147.389-.044.374-.389a.394.394 0 0 1-.293-.345c-.088.095-.257-.125-.301-.059.176.162.051.287-.037.419-.11-.088 0-.279-.11-.331l-.22.066h.198v.338-.037c.315-.198.095.478.403.221l-.014-.015Zm-.418-.176v.037-.037Zm.388-1.065h-.176a.267.267 0 0 0 .021.125c.016.04.042.075.075.103l.08-.228Zm-1.753.845.11-.147-.147.081.037.066Zm-1.329.91a.152.152 0 0 0 .191-.059c0-.066-.213-.132-.191.059Zm-6.193-5.874c.073 0 .169.411.198.081 0-.132-.147 0-.198-.081Zm7.83 4.89c0 .125.147.037.198.081-.066 0-.169-.411-.198-.081Zm4.623-2.665c.044.066.117.147.103.227 0-.11 0-.359-.096-.227h-.007Zm-1.989 2.819c.059 0 .132.088.154 0 .022-.088-.095-.058-.146 0h-.008Zm.448 2.688v-.294l-.074.353.074-.059Zm1.387-.735c.132-.066.051-.198 0-.323.117.265-.198.103 0 .331v-.008Zm1.937-.271.051-.081v-.117l-.051.198Zm.198.646v-.176l-.161.117.161.059Zm-6.208-.191c-.367-.235.066.36-.191.345a.738.738 0 0 1 .265.499c.124-.271-.309-.594-.074-.844Zm9.863-1.336c0 .08-.052.139-.037.176l.037-.176Zm-14.046 2.269c.052.301.059 0 .177.066l-.133.293c.111.044.184-.308.162-.381l-.206.022Zm3.405-.735c-.132.272-.513.294-.462.676.132.066.279-.052.323-.22l-.059-.044.198-.412Zm-6.942-7.394-.117.154.147-.08-.03-.074Zm11.947 6.447v-.073c0 .073 0 .088.044.073h-.044Zm6.311-.903v.037l.11-.147-.11.11Zm-10.846 1.3.044.11a.55.55 0 0 0-.044-.103v-.007Zm-7.052-.83-.169-.081v.037c0 .095.198.301.198.044h-.029Zm17.758-1.028v-.037.037Zm.242-.14c.059-.19.103-.301.228-.286.081.609-.191.176-.206.734.221.052.257-.492.441-.55-.103-.257-.492-.39-.463.08v.022Zm1.512-3.407a.191.191 0 0 1-.257.059c0-.066 0-.161.059-.169-.411 0-.095.632-.433.735a.077.077 0 0 1 .088 0c.081-.037.154.146.125.227.161-.227.169 0 .183-.404.103-.22.22.074.103.25l.308-.279-.183-.059c.044-.36.293.103.352-.323l-.338.044-.007-.081Z" fill="#00D08A"/>
        <path d="M543 386.982c0 1.116-28.978 2.019-64.73 2.019-35.751 0-64.722-.903-64.722-2.019s28.978-2.027 64.722-2.027c35.744 0 64.73.903 64.73 2.027Z" fill="#fff"/>
        <path d="M430.521 376.922v8.694s3.823 1.74 11.476 1.395c7.654-.345 11.272-1.271 11.272-1.271l.227-7.658a73.404 73.404 0 0 1-12.056 1.858c-5.445.227-10.919-3.018-10.919-3.018Zm.836-17.637c-.587-.227-1.1-.286-1.225-1.013.117-.734.638-.793 1.225-1.021a16.425 16.425 0 0 1 2.525-.484 68.741 68.741 0 0 1 8.152-.434c4.77 0 8.806.368 10.67.918.587.228 1.101.294 1.233 1.021-.125.734-.646.786-1.233 1.013a15.58 15.58 0 0 1-2.524.477 65.604 65.604 0 0 1-8.146.441c-4.769 0-8.835-.36-10.677-.918Zm.272-.888c.777.211 1.569.361 2.37.448a66.99 66.99 0 0 0 8.072.433c5.137 0 9.54-.463 10.765-1.013l-.36-.125a15.465 15.465 0 0 0-2.377-.448 65.259 65.259 0 0 0-8.028-.426c-5.137 0-9.54.455-10.772.999.117.05.237.094.359.132h-.029Z" fill="#fff"/>
        <path d="M431.357 386.511c-.587-.235-1.108-.294-1.225-1.02a.463.463 0 0 1 .739-.369.452.452 0 0 1 .163.251c.176.098.364.175.558.228.778.207 1.57.357 2.37.448 2.68.304 5.376.447 8.072.425 5.137 0 9.54-.462 10.78-1.013a.718.718 0 0 0 .205-.103.469.469 0 0 1 .448-.352.462.462 0 0 1 .462.462c-.117.735-.638.793-1.225 1.021a15.58 15.58 0 0 1-2.524.477 65.604 65.604 0 0 1-8.146.441c-4.769 0-8.805-.36-10.677-.918v.022Z" fill="#fff"/>
        <path d="M449.446 357.957c0 .521-3.324.954-7.419.954-4.094 0-7.419-.426-7.419-.954 0-.529 3.317-.955 7.419-.955 4.102 0 7.419.426 7.419.955Z" fill="#00D08A"/>
        <path d="M430.132 385.491v-27.234a.454.454 0 0 1 .131-.329.449.449 0 0 1 .652-.001.474.474 0 0 1 .135.33v27.219a.472.472 0 0 1-.463.47.468.468 0 0 1-.462-.47l.007.015Zm22.873 0v-27.234a.47.47 0 0 1 .462-.47.47.47 0 0 1 .47.47v27.219a.48.48 0 0 1-.47.47.468.468 0 0 1-.462-.47v.015Z" fill="#fff"/>
        <path d="M442.086 377.451c-5.328 0-8.806-1.409-10.934-3.385a8.903 8.903 0 0 1-2.935-6.608 7.1 7.1 0 0 1 .623-3.018 2.114 2.114 0 0 1 1.725-1.41.463.463 0 0 1 0 .926c-.191 0-.58.235-.888.888a6.032 6.032 0 0 0-.528 2.614c.036 3.738 2.583 8.988 12.915 9.032 10.273-.044 12.819-5.287 12.856-9.039a6.127 6.127 0 0 0-.536-2.658c-.315-.661-.733-.933-.895-.911a.47.47 0 0 1-.47-.462.471.471 0 0 1 .47-.463 2.137 2.137 0 0 1 1.732 1.425c.433.964.646 2.012.624 3.069a8.93 8.93 0 0 1-2.884 6.608c-2.128 1.975-5.592 3.378-10.89 3.378l.015.014Z" fill="#fff"/>
        <path d="M442.489 358.625c2.84.044-.807 6.491 1.563 6.543 2.371.051-1.394-6.271 1.028-6.609a23.834 23.834 0 0 0-2.591.066Zm-7.074-.367c2.84.059-1.468 10.074 1.277 10.133 2.744.058-1.262-9.546 1.152-9.935.748-.103-2.429-.198-2.429-.198Zm9.781.271c1.828 0-.117 4.406 1.086 4.406 1.204 0-.976-4.281.58-4.406.536-.066-1.666 0-1.666 0Zm1.813 8.622a.44.44 0 0 1-.426.462.437.437 0 0 1-.462-.426c.109-.5.256-.991.44-1.468a11 11 0 0 1 .448 1.432Zm-5.144-4.444a.436.436 0 0 1-.256.423.45.45 0 0 1-.169.04.455.455 0 0 1-.462-.434c.109-.488.256-.966.44-1.431.185.455.335.924.447 1.402Z" fill="#00D08A"/>
        <path d="M466.814 383.128c-1.533.624-4.916 2.063-2.04 3.583l15.293.257s3.332.352 2.136-3.246c-1.197-3.598-.441-2.834-.441-2.834l-8.644.47-6.304 1.77Zm40.881-1.69s-.851 4.647.447 5.374l9.371.294 7.808-.198s2.356-.455 1.424-2.144c0 0-1.629-1.528-7.089-2.666-5.46-1.138-3.904-.396-3.904-.396l-8.057-.264Zm-46.744-206.299c-.594 0-.733 1.703-.733 2.202 0 .5-.426 11.22-.426 11.22.538.27 1.107.472 1.695.602a1.47 1.47 0 0 0 1.468-1.373c.01-.1.01-.201 0-.301 0 0-.565-11.748-.734-11.91a4.955 4.955 0 0 0-1.27-.44Zm-.44 14.127-.22 10.749 2.201.272.103-10.816-2.084-.205Zm5.585 55.914-.286 1.777s3.008-.118 4.747.962a5.793 5.793 0 0 1 2.936 4.684l.594-2.423a6.236 6.236 0 0 1 .279-3.341l-8.27-1.659Z" fill="#fff"/>
        <path d="M475.841 235.283c.409 4.142.288 8.32-.359 12.431-.734 4.024.66 3.965.66 6.366s.183 1.381-.176 3.488c-.36 2.108 1.585 3.268.536 4.986-1.409 2.305 5.76 4.501 6.67 4.589 0 0-11.455-.558-10.846-2.203.455-1.233 1.262-1.263 2.136-2.371 1.078-1.374-.734-4.156-.426-5.405.308-1.248.888-2.276.426-4.508-.463-2.232-.448-6.036-.118-6.366.33-.331 1.497-11.007 1.497-11.007Z" fill="#fff"/>
        <path d="M474.036 267.67s29.888 2.159 34.093 5.368l-1.196-4.846s-5.085.829-16.503-.353c-10.45-1.079-15.961-1.321-15.961-1.321l-.433 1.152Zm10.566 24.915c5.137 1.365 8.116 1.343 13.943 1.006 3.324-.184-2.047 2.202-3.354 1.784-2.524-.786-.814 2.937-.851 6.608-.044 3.848 2.018 11.514 2.018 18.768l-3.867-19.715-1.174-4.685v-1.24a7.028 7.028 0 0 0-1.321 2.261c-.294 1.094-1.607 11.748-1.607 13.863s-.492 8.738-.492 9.546c0 .807-.873-6.124-.873-10.545 0-4.42 1.086-9.097.183-11.439-.902-2.343 1.351-2.886.089-4.142-1.263-1.255-4.866-2.65-2.694-2.07Zm-20.95 92.62s14.075 2.115 18.302-2.107c0 0 1.416 3.039 0 3.414-1.416.374-9.019.485-12.027.485-7.016 0-6.275-1.792-6.275-1.792Zm43.919-1.814s-.976 3.788 1.82 3.788c2.796 0 14.75-.139 14.75-.139s3.911 0 2.634-2.269c-.029 0-12.908 2.856-19.204-1.38Zm-23.827-177.025c.815 2.791 2.877 6.609 7.382 5.911 4.506-.697 4.807-2.54 4.807-2.54a7.16 7.16 0 0 1-2.935-3.429c-.221-.58-3.633.873-5.071 1.086-3.009.456-4.183-1.028-4.183-1.028Zm-8.512-10.227c.345 1.116 3.89 2.445 4.946 4.67a20.976 20.976 0 0 1-1.049-3.994s-3.486-1.66-3.669-3.356l-.228 2.68Zm-16.393 15.566c2.84 1.116 3.669-.198 4.073.059 1.342.866 10.669 5.052 13.208 5.052l-1.952 1.262s-6.274-2.334-6.553-2.613c-.279-.28-2.458-1.858-3.896-1.858-1.439 0-3.941-.331-3.941-.331l-.939-1.571Zm1.673-22.805v.844s1.599-.044 2.003.992v-1.843l-2.003.007Zm-13.114-26.824a94.241 94.241 0 0 0 24.392.617s-.491 1.05-1.005 1.182c-.514.132-11.279.074-11.279.074s-7.264.095-10.42-.074c-1.123-.051-1.688-1.799-1.688-1.799Zm12.901 127.727v1.468s.954-1.468 2.297-1.131v-1.622c-.339.292-.697.562-1.072.807a5.177 5.177 0 0 1-1.225.478Z" fill="#fff"/>
        <path d="M458.2 287.569c.462.918 4.484.235 5.695-3.363 1.21-3.598-.536-1.468 2.612-7.166a85.85 85.85 0 0 0 4.975-10.706l-1.196 4.597-3.214 7.107s-1.563 3.363-1.644 3.862c-.08.5-.521 3.437-1.174 4.406a14.527 14.527 0 0 1-2.59 2.856c-.44.265-1.908 1.249-2.554.088-.646-1.16-.91-1.681-.91-1.681Zm27.944 54.747a194.169 194.169 0 0 0-1.63 22.55c0 5.947-1.797 12.798-3.06 14.054-1.262 1.255-7.051 2.937-9.605 1.468 0 0-.125 1.469 5.547 1.469 5.673 0 6.054-2.989 6.245-3.554a92.12 92.12 0 0 0 2.128-10.831c.242-2.981.375-7.195.382-9.002.007-1.806-.007-16.154-.007-16.154Zm15.366 3.717c.418 4.222 1.467 17.145 1.849 19.715.382 2.57 2.055 15.662 5.342 16.301 3.288.639 6.267.866 8.71-1.579 0 0-5.87 1.469-7.727-.455-2.847-2.849-.66-.734-4.402-12.571-.874-2.878-3.772-21.411-3.772-21.411Z" fill="#fff"/>
        <path d="M506.301 380.131c-5.43-17.167-3.86-29.605-5.635-36.669a15.804 15.804 0 0 1-.595-4.061c0-.675.052-1.226.052-1.843a17.496 17.496 0 0 0-1.072-5.433c-2.201-6.917-4.139-16.044-5.621-23.607-1.057-5.367-1.886-10.015-2.37-12.482-.11.256-.243.501-.396.734-.301.558-.734 1.77-1.196 5.874-.896 8.261-1.468 24.583-1.468 26.089 0 2.202 0 2.937-1.093 7.827-.382 1.689-.47 5.404-.47 9.736 0 3.268.051 6.917.051 10.368.08 3.807-.08 7.616-.477 11.403-.902 6.043-1.519 9.487-2.612 11.521-1.101 2.071-2.818 2.563-5.394 2.541-2.583 0-4.402-.169-5.775-1.006-1.343-.852-1.996-2.357-2.201-4.729-.58-7.262-.8-13.217-.807-18.21 0-16.572 2.517-21.771 2.495-23.541a1.082 1.082 0 0 0 0-.161 35.03 35.03 0 0 1-.22-3.51c0-1.784.22-2.687.212-4.354a38.219 38.219 0 0 0-.469-5.404 131.362 131.362 0 0 1-1.204-18.357c0-17.409 2.833-32.726 3.911-36.537a.358.358 0 0 1 .69.198c-1.056 3.671-3.889 19.018-3.889 36.339-.027 6.11.372 12.214 1.196 18.269a39.52 39.52 0 0 1 .477 5.507c0 1.732-.213 2.643-.213 4.346.011 1.149.085 2.296.22 3.437v.235c0 2.151-2.487 6.968-2.494 23.54 0 4.942.22 10.912.799 18.151.191 2.299.734 3.496 1.85 4.178 1.086.735 2.832.904 5.386.896 2.553 0 3.764-.367 4.762-2.159.998-1.828 1.637-5.257 2.539-11.285.389-3.754.543-7.528.462-11.301 0-3.443-.044-7.085-.044-10.367 0-4.355.074-8.041.485-9.891 1.079-4.868 1.064-5.514 1.071-7.666 0-1.556.536-17.85 1.468-26.169.447-4.156.902-5.463 1.277-6.168.374-.734.491-.462.521-2.085a1.183 1.183 0 0 1 .044-.397.374.374 0 0 1 .667-.066l.066.118c0 .08.052.161.074.242.051.191.117.455.191.8.146.676.337 1.66.565 2.886.462 2.438 1.086 5.874 1.834 9.692 1.468 7.695 3.515 17.168 5.739 24.231a18.184 18.184 0 0 1 1.115 5.654c0 .661-.059 1.197-.059 1.836.029 1.313.221 2.618.573 3.884 1.82 7.343.235 19.583 5.628 36.633.433 1.468 2.627 2.423 4.99 2.415 2.664 0 5.313-1.16 5.731-3.421.401-2.974.568-5.974.499-8.973a169.332 169.332 0 0 0-1.365-21.808c-1.255-8.282-3.177-16.712-3.185-20.412 0-3.562-1.32-24.496-2.935-32.36-1.629-7.996-1.269-17.402-4.131-27.065a.373.373 0 0 1 .028-.274.36.36 0 0 1 .483-.148.347.347 0 0 1 .106.088c.03.036.052.077.065.121 2.899 9.803 2.532 19.268 4.146 27.168 1.629 7.996 2.936 28.857 2.936 32.506 0 3.51 1.915 12.013 3.177 20.303a170.862 170.862 0 0 1 1.372 21.918c.072 3.043-.1 6.088-.513 9.105-.566 2.797-3.618 4.001-6.436 4.001-2.51 0-5.012-.918-5.68-2.937l.066.066Z" fill="#fff"/>
        <path d="M476.831 267.209a16.23 16.23 0 0 1-3.742-.661c-.734-.264-1.218-.646-1.226-1.219.052-.822.808-1.344 1.468-1.982.682-.595 1.262-1.263 1.233-1.638a.436.436 0 0 0 0-.161 14.426 14.426 0 0 1-.866-4.156c0-1.542.616-1.77.594-3.202a10.829 10.829 0 0 0-.279-2.203 16.113 16.113 0 0 1-.381-3.194 5.056 5.056 0 0 1 .227-1.688c-3.471-.955-9.114-1.542-11.865-2.49-.932-.345-1.674-.646-1.747-1.468.005-.154.045-.305.117-.441 1.138-2.107 2.451-6.608 3.736-10.845 1.298-4.251 2.502-8.165 3.713-9.42 2.201-2.203 9.238-6.704 13.399-9.069a.397.397 0 0 1 .242-.036h.176c.543 0 2.459-.11 7.984-1.087 2.936-.529 4.506-1.197 5.262-1.726.734-.543.734-.888.734-.932a.317.317 0 0 1 .08-.286.345.345 0 0 1 .272-.125 51.276 51.276 0 0 1 12.401 2.694c1.218.529 2.128.977 2.356 1.785.653 2.938.983 5.94.983 8.95 0 9.546-3.309 16.521-3.295 22.028.001.65.052 1.298.154 1.939.248 1.473.37 2.964.367 4.457 0 3.723-.734 6.608-.734 9.31-.006.99.113 1.977.353 2.937.21.744.326 1.511.345 2.284a2.861 2.861 0 0 1-1.703 2.893c-1.241.41-2.548.58-3.852.499-3.669 0-16.951-.903-26.498-1.806l-.008.059Zm-2.238-20.09c-.04.077-.072.159-.095.243a4.532 4.532 0 0 0-.176 1.409 15.86 15.86 0 0 0 .367 3.055c.182.778.28 1.573.293 2.372 0 1.696-.616 1.975-.594 3.194.086 1.348.367 2.676.836 3.943.039.121.056.247.052.374 0 .903-.8 1.542-1.468 2.203-.69.595-1.284 1.241-1.233 1.468 0 .081.066.287.734.536a15.88 15.88 0 0 0 3.566.632c9.54.896 22.873 1.799 26.418 1.799a9.585 9.585 0 0 0 3.559-.441c.807-.381 1.247-.932 1.269-2.202a9 9 0 0 0-.315-2.108 12.186 12.186 0 0 1-.382-3.135c0-2.842.734-5.683.734-9.311a26.95 26.95 0 0 0-.352-4.339 12.003 12.003 0 0 1-.162-2.056c0-5.793 3.302-12.651 3.288-22.028a40.416 40.416 0 0 0-.969-8.811c0-.228-.734-.815-1.923-1.271a32.299 32.299 0 0 0-4.403-1.329 53.118 53.118 0 0 0-7.44-1.299c-.228.734-1.365 2.136-6.553 3.04-5.548.984-7.478 1.101-8.072 1.101h-.154c-4.124 2.335-11.081 6.814-13.15 8.892-.947.91-2.275 4.912-3.537 9.12-1.285 4.236-2.576 8.73-3.787 11.014a.218.218 0 0 0 0 .095s0 .14.25.294c.313.198.651.354 1.005.462 1.179.361 2.38.646 3.596.852 2.854.543 6.296 1.043 8.651 1.74a.36.36 0 0 1 .243.243.354.354 0 0 1-.067.33l-.029-.081Zm6.707-33.042.066-.36-.066.36Zm-14.507 173.28a6.859 6.859 0 0 1-2.275-.389c-.668-.265-1.291-.661-1.321-1.396 0-.771.69-1.387 2.092-2.122 1.416-.734 4.733-1.527 8.182-2.423l.183.735c-3.419.881-6.707 1.688-8.072 2.371-1.35.676-1.724 1.263-1.695 1.469 0 .176.257.492.859.734.648.228 1.33.345 2.018.345h11.513c1.092.06 2.186-.052 3.244-.33.535-.235.579-.375.601-.734 0-.735-.778-2.291-.785-4.333h.734c0 1.873.77 3.209.785 4.333a1.466 1.466 0 0 1-1.064 1.424 10.794 10.794 0 0 1-3.5.374l-11.499-.058Zm40.617-.464a2.784 2.784 0 0 1-.36-1.564c0-1.109.257-2.474.257-3.869h.734c0 1.468-.257 2.871-.257 3.869-.028.399.053.797.235 1.153.154.213.367.352.917.36 5.034 0 13.576-.147 15.557-.147a3.6 3.6 0 0 0 1.468-.367c.476-.243.733-.551.733-.801 0-.264-.308-.837-1.555-1.519-1.233-.683-5.453-1.469-8.689-2.299l.176-.697c3.273.844 7.537 1.637 8.858 2.364 1.313.734 1.915 1.395 1.929 2.151a1.735 1.735 0 0 1-1.13 1.469 4.364 4.364 0 0 1-1.805.441c-1.966 0-10.515.139-15.557.146a1.71 1.71 0 0 1-1.467-.675l-.044-.015Z" fill="#fff"/>
        <path d="M458.596 289.141c-1.101-2.107-2.091-4.09-2.106-5.72a2.51 2.51 0 0 1 1.115-2.202 6.598 6.598 0 0 1 3.589-.793c.11 0 .125 0 .242-.294.107-.482.151-.976.132-1.469 0-1.343-.132-3.355-.132-5.962 0-1.85.066-4.009.301-6.447.91-9.413 3.258-15.574 4.006-21.132a.34.34 0 0 1 .134-.237.345.345 0 0 1 .263-.071.357.357 0 0 1 .24.136.349.349 0 0 1 .068.267c-.771 5.684-3.104 11.749-3.999 21.103a65.307 65.307 0 0 0-.301 6.381c0 2.577.132 4.575.132 5.962a6.451 6.451 0 0 1-.162 1.719.983.983 0 0 1-.924.778c-3.2.051-3.955.896-3.985 2.254 0 1.329.925 3.297 2.025 5.382a.94.94 0 0 0 .896.588c1.467.08 4.366-2.981 4.667-5.632.381-2.937.286-2.321 1.467-4.905 1.233-2.695 5.255-8.855 5.255-17.028 0-2.511 1.643-8.576 2.135-12.115a.367.367 0 0 1 .411-.309c.094.013.18.063.237.139a.355.355 0 0 1 .071.265c-.514 3.591-2.143 9.729-2.135 12.02 0 8.4-4.146 14.73-5.313 17.329-1.218 2.702-1.005 1.711-1.416 4.699-.455 3.003-3.207 6.175-5.387 6.256a1.677 1.677 0 0 1-1.467-.969l-.059.007Zm7.954-73.962c-2.45-1.263-2.935-1.358-3.669-1.366h-.821a14.32 14.32 0 0 1-2.312-.191.894.894 0 0 1-.478-.287.896.896 0 0 1-.219-.513 1.39 1.39 0 0 0-.25-.631 1.472 1.472 0 0 1-.432-1.117v-.462a.49.49 0 0 0-.045-.25 1.481 1.481 0 0 1-.264-.83c.044-.399.153-.788.323-1.152a2.411 2.411 0 0 1-.235-.977c.013-.28.075-.556.184-.815a1.467 1.467 0 0 1-.396-.991c0-1.19 1.284-2.269 2.935-2.284 5.768-.066 5.591 4.252 6.377 4.912.337.382 3.082 1.535 6.054 2.563 3.001 1.057 6.347 2.093 8.174 2.504l-.161.734c-1.886-.426-5.232-1.468-8.256-2.526-3.045-1.086-5.643-2.092-6.325-2.739-1.255-1.38-.521-4.625-5.871-4.699a2.522 2.522 0 0 0-1.599.544 1.393 1.393 0 0 0-.595 1.02.751.751 0 0 0 .228.522.563.563 0 0 1 .169.418c0 .404-.184.536-.177.866.001.238.059.473.169.683a.73.73 0 0 1 .059.272c-.044.507-.338.822-.323 1.175a.736.736 0 0 0 .147.433c.119.194.175.419.161.646v.463a.738.738 0 0 0 .22.602c.237.274.39.611.441.969.073.272.095.264.11.264.728.117 1.464.178 2.201.184h.822c.888 0 1.6.184 4.029 1.469 2.796 1.468 7.426 3.201 7.433 3.201l-.257.675s-4.645-1.762-7.506-3.238l-.045-.051Z" fill="#fff"/>
        <path d="M480.287 206.088h.734c0 2.203.675 4.839 1.291 7.489l-.733.169c-.609-2.643-1.307-5.301-1.307-7.651l.015-.007Zm12.372.022.69-.198a4.69 4.69 0 0 0 2.407 3.143c.093.043.188.08.286.11l-.191.697c-.058 0-2.311-.653-3.192-3.752Z" fill="#fff"/>
        <path d="M476.406 202.012c-.477-3.987-1.681-4.824-1.703-7.284a8.706 8.706 0 0 1 .184-1.74l.733.14a8.52 8.52 0 0 0-.176 1.6c0 2.115 1.182 3.048 1.695 7.196.609 4.861 1.468 4.56 4.477 8.745l-.587.419c-2.877-4.009-4.007-4.09-4.601-9.076h-.022Z" fill="#fff"/>
        <path d="M479.407 197.167c-3.948-1.828-5.064-4.171-5.034-6.748a26.22 26.22 0 0 1 .513-4.207c.785-4.589 5.658-6.55 9.481-6.55v.734c-3.669 0-8.116 1.887-8.806 5.948a25.67 25.67 0 0 0-.506 4.097c0 2.364.837 4.281 4.623 6.095a22.642 22.642 0 0 0 9.004 2.202c3.566-.044 6.186-1.27 6.208-4.971 0-7.188-1.38-8.414-2.598-9.655-1.21-1.226-4.403-3.672-7.962-3.672v-.734c3.89 0 7.17 2.592 8.476 3.892 1.306 1.277 2.833 2.937 2.803 10.162a5.064 5.064 0 0 1-2.076 4.406 8.386 8.386 0 0 1-4.851 1.255 23.382 23.382 0 0 1-9.312-2.239l.037-.015Z" fill="#fff"/>
        <path d="M480.97 203.328c-1.321-2.379-2.201-5.074-2.201-6.682h.733c0 1.366.837 4.061 2.106 6.33 1.263 2.298 2.994 4.133 4.447 4.089 3.405 0 3.669-.8 6.421-1.314 1.35-.242 2.37-.22 2.936-.404.506-.198.733-.36.733-1.52 0-2.305-1.423-8.224-1.423-8.231l.697-.176s1.467 5.874 1.467 8.407c.037 1.241-.432 1.975-1.247 2.203-.734.235-1.724.191-3.009.433-2.531.448-2.994 1.322-6.553 1.322-2.018-.037-3.749-2.107-5.078-4.457h-.029Zm3.236-21.632a.82.82 0 0 1-.558-.734.834.834 0 0 1 .558-.735c.316-.13.656-.193.998-.183.342-.01.682.053.998.183a.844.844 0 0 1 .565.735.816.816 0 0 1-.565.734 2.444 2.444 0 0 1-.998.191 2.444 2.444 0 0 1-.998-.191Zm1.798-.734-.095-.059a1.793 1.793 0 0 0-.734-.125 1.597 1.597 0 0 0-.8.176l.095.059c.233.093.483.135.734.125.277.009.552-.052.8-.176Z" fill="#fff"/>
        <path d="M478.292 196.374c-.044-11.712 3.566-13.782 5.46-15.647l.506.514c-1.952 1.982-5.203 3.509-5.247 15.133h-.734.015Zm13.516 2.114c0-10.536-2.583-14.156-5.658-17.247l.514-.514c3.17 3.157 5.871 7.129 5.871 17.761h-.727Zm-7.976-9.111c0-3.451.257-6.16 1.042-7.988l.66.286c-.733 1.637-.99 4.288-.983 7.702 0 2.629.154 5.713.382 9.157l-.734.044c-.228-3.444-.382-6.542-.382-9.201h.015Zm-7.896 103.398a13.043 13.043 0 0 1-2.752-1.505 1.999 1.999 0 0 1-.315-1.153 25.219 25.219 0 0 1-.066-2.019c0-3.356.352-8.811.734-12.38l.036-.316h.323s2.877 0 5.937.125c3.089.118 6.237.257 7.14.617a.509.509 0 0 1 .367.463c0 .771-1.842 9.839-2.554 12.431a2.22 2.22 0 0 1-.316.793 54.374 54.374 0 0 1-4.52 3.341c-.369.292-.797.5-1.255.609a12.022 12.022 0 0 1-2.788-1.006h.029Zm.294-.661c.796.384 1.623.698 2.473.94h.051l.198-.088c.162-.088.389-.22.639-.389a21.455 21.455 0 0 0 1.768-1.226c1.181-.852 2.37-1.785 2.598-1.99a.646.646 0 0 0 0-.088c0-.096.073-.235.124-.412.096-.352.221-.851.36-1.468.272-1.175.609-2.717.932-4.266.572-2.754 1.115-5.632 1.218-6.381l-.257-.059c-.33-.066-.836-.132-1.467-.191-1.211-.11-2.848-.19-4.477-.249-2.649-.096-5.305-.132-6.208-.147-.389 3.554-.734 8.76-.734 11.968a10.89 10.89 0 0 0 .184 2.673c.796.528 1.642.978 2.524 1.344l.074.029Z" fill="#fff"/>
        <path d="M473.72 277.93v-.735s12.423.617 12.996.617v.734c-.602 0-12.835-.609-12.996-.616Zm25.045 13.223a5.734 5.734 0 0 1-.785-2.137 51.327 51.327 0 0 1-.734-3.833 56.34 56.34 0 0 1-.866-7.607c0-.565 0-.881.242-1.226.212-.156.471-.236.734-.228.271 0 .616 0 1.027-.044 3.251 0 10.552.734 10.567.734l-.073.735s-7.338-.735-10.494-.735a6.723 6.723 0 0 0-1.203.066.59.59 0 0 0 0 .103 4.032 4.032 0 0 0 0 .602 67.89 67.89 0 0 0 1.607 11.271c.111.624.308 1.23.587 1.799.69.735 6.34 3.062 7.426 3.011.294.088 1.284-.955 1.952-2.056.451-.712.865-1.448 1.24-2.203l.646.323a24.555 24.555 0 0 1-1.284 2.254c-.734 1.124-1.527 2.313-2.554 2.394-1.556-.051-6.832-2.203-7.94-3.231l-.095.008Z" fill="#fff"/>
        <path d="M496.711 278.648v-.734l12.35.602-.037.734-12.35-.602h.037Zm-22.727-31.829c0-1.41 1.468-9.685 1.468-11.535 0-.096.038-.187.105-.255a.363.363 0 0 1 .509 0 .363.363 0 0 1 .105.255c0 1.997-1.467 10.279-1.467 11.535a.357.357 0 0 1-.106.254.357.357 0 0 1-.508 0 .357.357 0 0 1-.106-.254Zm-10.237-36.737a2.07 2.07 0 0 1-1.292-2.033c0-.514.103-.992.103-1.271 0-.264 0-.183-.066-.213a2.804 2.804 0 0 1-1.291-.653 4.782 4.782 0 0 1-2.202.976.872.872 0 0 1-.638-.242.37.37 0 0 1 0-.514.357.357 0 0 1 .506 0s0 .037.132.037a3.088 3.088 0 0 0 1.248-.499c.271-.161.534-.338.785-.529a.378.378 0 0 1 .293-.066.354.354 0 0 1 .243.183c.046.061.1.116.161.162.265.205.574.346.903.411a.854.854 0 0 1 .616.918c0 .411-.11.852-.103 1.27a1.333 1.333 0 0 0 .873 1.381.365.365 0 0 1 .177.477.365.365 0 0 1-.331.205.327.327 0 0 1-.146 0h.029Z" fill="#fff"/>
        <path d="M460.261 212.189c0-.095.038-.187.106-.254a.357.357 0 0 1 .254-.106c.456.032.913-.043 1.335-.22.191-.125.191-.176.199-.286a.846.846 0 0 0-.14-.412 1.337 1.337 0 0 0-.147-.212.369.369 0 0 1-.075-.13.36.36 0 0 1-.013-.15.405.405 0 0 1 .147-.257c.125-.097.236-.211.33-.337.219-.279.338-.623.338-.977a.36.36 0 0 1 .496-.335.345.345 0 0 1 .223.328 2.417 2.417 0 0 1-.734 1.667c.154.242.242.52.257.807a1.016 1.016 0 0 1-.558.903 3.464 3.464 0 0 1-1.695.323.356.356 0 0 1-.359-.359l.036.007Z" fill="#fff"/>
        <path d="M459.594 209.238a.37.37 0 0 1 .022-.277.351.351 0 0 1 .089-.11.342.342 0 0 1 .124-.068 14.756 14.756 0 0 1 3.023-.676.367.367 0 0 1 .36.36.36.36 0 0 1-.36.36c-.955.125-1.896.338-2.81.639a.29.29 0 0 1-.11 0 .358.358 0 0 1-.338-.257v.029Zm.535-1.777a.358.358 0 0 1 .235-.448l2.429-.734a.368.368 0 0 1 .464.381.356.356 0 0 1-.128.244.339.339 0 0 1-.123.065l-2.4.764h-.11a.368.368 0 0 1-.345-.257l-.022-.015Zm-.433 3.37a.368.368 0 0 1 .301-.411l2.084-.316a.367.367 0 0 1 .268.065.364.364 0 0 1 .143.236.37.37 0 0 1-.309.411l-2.084.316h-.051a.377.377 0 0 1-.36-.309l.008.008Zm.177 70.409a.368.368 0 0 1-.359-.367l.733-68.691c0-.095.038-.187.106-.254a.357.357 0 0 1 .254-.106.377.377 0 0 1 .36.367l-.734 68.691a.367.367 0 0 1-.36.36Zm2.12-14.37a.368.368 0 0 1-.359-.368l.374-22.167a.345.345 0 0 1 .223-.328.374.374 0 0 1 .273.003.36.36 0 0 1 .191.195c.017.044.026.09.025.137l-.367 22.168a.358.358 0 0 1-.36.352v.008Z" fill="#fff"/>
        <path d="M462.464 238.571a.36.36 0 0 1-.353-.36l.485-29.371a.37.37 0 0 1 .112-.253.378.378 0 0 1 .255-.107.373.373 0 0 1 .359.368l-.492 29.37a.356.356 0 0 1-.105.252.347.347 0 0 1-.254.101h-.007Zm-2.07-34.51a.359.359 0 0 1-.36-.359l.118-14.51a.351.351 0 0 1 .359-.352.359.359 0 0 1 .36.36l-.118 14.502a.36.36 0 0 1-.359.359Zm1.783-.228v-14.942a.373.373 0 0 1 .359-.368.36.36 0 0 1 .36.36l.044 14.95a.365.365 0 0 1-.105.254.362.362 0 0 1-.392.078.365.365 0 0 1-.222-.332h-.044Z" fill="#fff"/>
        <path d="M460.35 189.228a1.114 1.114 0 0 1-.785-.507 4 4 0 0 1-.074-1.108c0-2.827.389-10.728.507-12.035a1.068 1.068 0 0 1 1.181-.881c.291-.025.582.044.831.197.248.154.441.383.549.655.176.807.645 11.234.733 12.702a.969.969 0 0 1-.682.874 3.076 3.076 0 0 1-1.152.191 4.587 4.587 0 0 1-1.101-.132l-.007.044Zm-.096-.8c.089.045.183.079.279.102.301.074.608.111.918.111a2.58 2.58 0 0 0 .88-.133c.22-.102.228-.154.235-.212-.073-1.469-.572-12.013-.734-12.564a.778.778 0 0 0-.675-.294c-.338 0-.462.118-.462.221h-.36.36c-.11 1.255-.507 9.2-.507 11.968v.801h.066Z" fill="#fff"/>
        <path d="M460.908 174.977c0-.625-.059-1.322-.059-1.917a6.337 6.337 0 0 1 .044-.903c.059-.242.045-.485.404-.676.228-.088 6.656-2.621 10.149-4.346a10.264 10.264 0 0 0 2.062-1.212c0-.529.066-1.571.066-2.555.02-.714-.014-1.428-.103-2.137h-.059l-.308-.059c-.235 0-.47-.036-.734-.036h-.198a.368.368 0 0 1-.258-.095.36.36 0 0 1 .229-.625h.227c.265 0 .53.015.793.044.3.008.59.117.822.308a.856.856 0 0 1 .183.456c0 .161.044.352.059.58 0 .44.044 1.006.044 1.586 0 1.028 0 2.107-.073 2.651-.103.44-.36.528-.734.8-.463.286-.932.551-1.424.793-1.159.587-2.686 1.277-4.219 1.938a220.644 220.644 0 0 1-6.245 2.57v.147a5.676 5.676 0 0 0-.037.793c0 .566.037 1.256.059 1.895a.345.345 0 0 1-.025.138.349.349 0 0 1-.19.198.36.36 0 0 1-.137.031.36.36 0 0 1-.36-.345l.022-.022Z" fill="#fff"/>
        <path d="m470.014 164.41-20.957-.139a2.107 2.107 0 0 1-2.04-2.107v-.074l.088-2.746a2.104 2.104 0 0 1 2.106-2.041h.058l20.958.139a2.107 2.107 0 0 1 2.04 2.108v.066l-.088 2.746a2.107 2.107 0 0 1-2.106 2.048h-.059Zm-22.19-5.044-.088 2.783a1.383 1.383 0 0 0 1.335 1.38l20.943.147h.059a1.4 1.4 0 0 0 1.387-1.351l.088-2.717v-.073a1.389 1.389 0 0 0-1.336-1.388l-20.979-.139a1.386 1.386 0 0 0-1.387 1.343l-.022.015Zm14.559 143.52-.169-14.384a.373.373 0 0 1 .359-.367.368.368 0 0 1 .367.352l.169 14.399a.363.363 0 0 1-.105.255.362.362 0 0 1-.254.105.366.366 0 0 1-.36-.352l-.007-.008Zm-2.4-.03-.044-13.055a.357.357 0 0 1 .1-.254.36.36 0 0 1 .252-.106.36.36 0 0 1 .359.36l.052 13.055a.343.343 0 0 1-.101.254.348.348 0 0 1-.251.106.363.363 0 0 1-.255-.105.363.363 0 0 1-.105-.255h-.007Z" fill="#fff"/>
        <path d="M459.99 302.776a.374.374 0 0 1 .013-.141.362.362 0 0 1 .31-.255.369.369 0 0 1 .389.33c0 .25.433.536.939.529.485 0 .734-.184.734-.5a.345.345 0 0 1 .026-.138.357.357 0 0 1 .334-.221.36.36 0 0 1 .359.359 1.33 1.33 0 0 1-1.416 1.227h-.051a1.533 1.533 0 0 1-1.637-1.19Z" fill="#fff"/>
    </g>
    <defs>
        <clipPath id="a">
            <path fill="#fff" d="M0 0h543v389H0z"/>
        </clipPath>
    </defs>
</svg>
