<svg width="19" height="17" viewBox="0 0 19 17" fill="none" xmlns="http://www.w3.org/2000/svg">
<path d="M8.00031 7.99999C10.1219 7.99999 11.8403 6.28159 11.8403 4.15999C11.8403 2.03839 10.1219 0.319992 8.00031 0.319992C5.87871 0.319992 4.16031 2.03839 4.16031 4.15999C4.16031 6.28159 5.87871 7.99999 8.00031 7.99999ZM8.00031 2.23999C9.05631 2.23999 9.92031 3.10399 9.92031 4.15999C9.92031 5.21599 9.05631 6.07999 8.00031 6.07999C6.94431 6.07999 6.08031 5.21599 6.08031 4.15999C6.08031 3.10399 6.94431 2.23999 8.00031 2.23999ZM2.24031 13.76C2.43231 13.1552 4.70751 12.1472 7.00191 11.8976L8.96031 9.97759C8.58591 9.93919 8.30751 9.91999 8.00031 9.91999C5.43711 9.91999 0.320312 11.2064 0.320312 13.76V15.68H8.96031L7.04031 13.76H2.24031ZM17.2163 8.47999L12.2915 13.4432L10.3043 11.4464L8.96031 12.8L12.2915 16.16L18.5603 9.83359L17.2163 8.47999Z" fill="#00D08A"/>
</svg>
