<svg width="849" height="369" fill="none" xmlns="http://www.w3.org/2000/svg">
    <g style="mix-blend-mode:luminosity" opacity=".5" clip-path="url(#a)">
        <path d="M55.411 207.881h-2.524l-2.622 140.756h10.293l-2.622-140.756H55.41Z" fill="#0DB248"/>
        <path d="M60.915 205.469H49.907c-1.416 0-2.565 1.554-2.565 3.472 0 1.917 1.15 3.473 2.565 3.473h11.008c1.418 0 2.566-1.554 2.566-3.473 0-1.919-1.148-3.472-2.566-3.472Z" fill="#0DB248"/>
        <path d="M44.404 208.212a8.762 8.762 0 0 0-4.574 1.432L8.121 230.456a.623.623 0 0 0 .554 1.105l32.775-11.963a5.622 5.622 0 0 0 2.71-2.104s5.283-6.804 5.42-7.158l-.372-2.252-4.804.128Zm19.026 3.09a5.624 5.624 0 0 0-3.178-1.294s-8.531-1.172-8.906-1.115l-1.758 1.448 2.51 4.105a8.759 8.759 0 0 0 3.528 3.249l33.882 17.054a.628.628 0 0 0 .79-.215.626.626 0 0 0-.105-.811L63.43 211.302Z" fill="#0DB248"/>
        <path d="M52.512 162.127a.622.622 0 0 0-1.233-.072l-6.027 34.368a5.644 5.644 0 0 0 .467 3.4s3.25 7.973 3.489 8.271l2.138.804 2.294-4.223a8.744 8.744 0 0 0 1.044-4.676l-2.172-37.872Z" fill="#0DB248"/>
        <path d="M49.907 212.412c1.417 0 2.566-1.554 2.566-3.471 0-1.918-1.149-3.472-2.566-3.472-1.417 0-2.565 1.554-2.565 3.472 0 1.917 1.148 3.471 2.565 3.471Z" fill="#0DB248"/>
        <path d="M49.907 207.625c-.537 0-.971.588-.971 1.315s.434 1.317.971 1.317c.537 0 .973-.59.973-1.317s-.438-1.315-.973-1.315Z" fill="#0DB248"/>
        <path d="M49.075 206.225h-.657c-.855 0-4.561 1.306-4.546 2.716.016 1.303 3.794 2.717 4.546 2.717h.657c1 0 1.813-1.216 1.813-2.717 0-1.502-.82-2.716-1.813-2.716Zm66.297-29.129h-2.524l-2.622 140.756h10.293l-2.624-140.756h-2.523Z" fill="#0DB248"/>
        <path d="M120.876 174.742h-11.008c-1.416 0-2.565 1.557-2.565 3.474 0 1.917 1.149 3.472 2.565 3.472h11.008c1.418 0 2.566-1.555 2.566-3.472s-1.148-3.474-2.566-3.474Z" fill="#0DB248"/>
        <path d="M104.365 177.49a8.73 8.73 0 0 0-4.574 1.431l-31.709 20.814a.626.626 0 0 0-.212.798.62.62 0 0 0 .766.307l32.777-11.963a5.63 5.63 0 0 0 2.711-2.104s5.279-6.802 5.418-7.156l-.371-2.254-4.806.127Z" fill="#0DB248"/>
        <path d="M123.391 180.578a5.63 5.63 0 0 0-3.178-1.297s-8.532-1.169-8.906-1.113l-1.767 1.449 2.511 4.104a8.76 8.76 0 0 0 3.527 3.25l33.883 17.051a.624.624 0 0 0 .684-1.026l-26.754-22.418Z" fill="#0DB248"/>
        <path d="M112.474 131.404a.624.624 0 0 0-1.235-.072l-6.026 34.363a5.628 5.628 0 0 0 .467 3.4s3.25 7.973 3.489 8.269l2.138.806 2.294-4.223a8.75 8.75 0 0 0 1.045-4.678l-2.172-37.865Z" fill="#0DB248"/>
        <path d="M109.868 181.688c1.417 0 2.566-1.555 2.566-3.472s-1.149-3.472-2.566-3.472c-1.417 0-2.565 1.555-2.565 3.472s1.148 3.472 2.565 3.472Z" fill="#0DB248"/>
        <path d="M109.869 179.531c.536 0 .971-.589.971-1.315 0-.727-.435-1.316-.971-1.316-.537 0-.972.589-.972 1.316 0 .726.435 1.315.972 1.315Z" fill="#0DB248"/>
        <path d="M109.029 175.498h-.657c-.855 0-4.561 1.307-4.546 2.718.016 1.301 3.794 2.716 4.546 2.716h.657c1.001 0 1.813-1.216 1.813-2.716 0-1.5-.812-2.718-1.813-2.718Z" fill="#0DB248"/>
        <path d="M725.351 138.785h-2.196l-2.282 122.456h8.956l-2.282-122.456h-2.196Z" fill="#8EF4EF"/>
        <path d="M730.141 136.746h-9.578c-1.233 0-2.223 1.353-2.223 3.02 0 1.668.999 3.022 2.223 3.022h9.578c1.232 0 2.224-1.352 2.224-3.022 0-1.669-.992-3.02-2.224-3.02Z" fill="#8EF4EF"/>
        <path d="M715.775 139.127a7.607 7.607 0 0 0-3.979 1.247l-27.589 18.108a.545.545 0 0 0-.187.696.544.544 0 0 0 .67.267l28.516-10.399a4.897 4.897 0 0 0 2.358-1.831s4.594-5.918 4.714-6.226l-.323-1.96-4.18.098Z" fill="#fff"/>
        <path d="M732.328 141.824a4.887 4.887 0 0 0-2.764-1.127s-7.424-1.027-7.75-.97l-1.54 1.26 2.185 3.565a7.609 7.609 0 0 0 3.068 2.823l29.482 14.842a.542.542 0 0 0 .592-.9l-23.273-19.493Zm-9.498-42.786a.542.542 0 0 0-1.075-.061l-5.242 29.891a4.901 4.901 0 0 0 .405 2.957s2.829 6.938 3.036 7.196l1.86.7 1.996-3.674a7.632 7.632 0 0 0 .91-4.068l-1.89-32.94Z" fill="#fff"/>
        <path d="M720.562 142.788c1.233 0 2.232-1.353 2.232-3.022 0-1.669-.999-3.022-2.232-3.022s-2.232 1.353-2.232 3.022c0 1.669.999 3.022 2.232 3.022Z" fill="#8EF4EF"/>
        <path d="M720.563 138.623c-.467 0-.846.513-.846 1.144 0 .631.379 1.146.846 1.146.467 0 .845-.513.845-1.146 0-.633-.378-1.144-.845-1.144Z" fill="#E7E5E5"/>
        <path d="M719.797 137.453h-.572c-.747 0-3.966 1.144-3.951 2.372.016 1.132 3.307 2.357 3.96 2.355h.573c.871 0 1.574-1.062 1.572-2.367-.002-1.305-.712-2.362-1.582-2.36Zm-534.913 103.33-39.828 1.789-6.073 36.686-30.415 89.145h213.13v-89.145h-148.09l11.276-38.475Z" fill="#0DB248"/>
        <path d="M240.183 95.63c-.291 0-.582.017-.871.048.027-.328.05-.657.05-.992 0-6.555-5.2-11.87-11.614-11.87a11.362 11.362 0 0 0-4.657 1.001c-.342-4.321-3.873-7.723-8.19-7.723-4.317 0-7.867 3.42-8.189 7.756a12.876 12.876 0 0 0-3.934-.614c-7.264 0-13.154 6.02-13.154 13.444 0 .242.023.476.035.715a8.034 8.034 0 0 0-3.735-.925c-4.228 0-7.709 3.265-8.167 7.462h70.639c-.05-4.594-3.705-8.302-8.213-8.302Z" fill="#92EFEA"/>
        <path d="M124.289 244.995c0 20.268 14.581 36.699 14.581 36.699s14.581-16.431 14.581-36.699c0-20.269-14.581-36.708-14.581-36.708s-14.581 16.431-14.581 36.708Z" fill="#005366"/>
        <path d="M138.87 243.311a.858.858 0 0 0-.855.855v62.502a.858.858 0 0 0 .855.855.858.858 0 0 0 .855-.855v-62.499a.86.86 0 0 0-.527-.793.86.86 0 0 0-.328-.065Z" fill="#123E6B"/>
        <path d="M146.793 234.633c0 26.622 20.851 48.204 20.851 48.204s20.852-21.582 20.852-48.204c0-26.623-20.852-90.69-20.852-90.69s-20.851 64.067-20.851 90.69Z" fill="#067E87"/>
        <path d="M167.643 225.293a.854.854 0 0 0-.855.855V346.17a.853.853 0 0 0 .855.856.857.857 0 0 0 .855-.856V226.152a.842.842 0 0 0-.249-.607.862.862 0 0 0-.606-.252Z" fill="#123E6B"/>
        <path d="M410.787 49.662c-13.08 5.346-18.409 9.935-31.129 11.288-26.758 2.844-24.787 15.177-39.654 24.02-15.726 9.358-43.04-20.547-67.39 15.836-6.106 9.126-.4 10.168 1.683 10.211 1.054-.108.782.015 0 0-.947.097-2.964.383-6.643 1.13-18.689 3.79-20.836 25.127-20.836 25.127l194.049 26.996V65.868s-18.756-20.838-30.08-16.206Z" fill="#067E87"/>
        <path d="M274.293 111.013c.782.016 1.054-.107 0 0Z" fill="#067E87"/>
        <path d="M326.268 183.899a17.02 17.02 0 0 0-12.77 5.815c-.298-9.464-7.878-17.049-17.212-17.049a16.84 16.84 0 0 0-7.264 1.657c0-.127.019-.252.019-.38 0-9.731-7.719-17.616-17.239-17.616a16.908 16.908 0 0 0-10.336 3.541c-.891-8.875-8.228-15.798-17.148-15.798a16.947 16.947 0 0 0-11.46 4.489c-2.531-6.516-8.742-11.13-16.018-11.13-9.08 0-16.503 7.183-17.174 16.283a16.862 16.862 0 0 0-8.81-2.495c-9.522 0-17.239 7.89-17.239 17.616v32.687h169.897c-.007-9.732-7.724-17.62-17.246-17.62Z" fill="#B2EA63"/>
        <path d="M734.436 279.258h-88.04v89.145h88.04v-89.145Z" fill="#067E87"/>
        <path d="M410.284 368.403H513.56v-89.145H379.65l30.634 89.145Z" fill="#B2EA63"/>
        <path d="M440.867 201.52h48.839l20.957 3.091V89.021h-69.796V201.52Z" fill="#0DB248"/>
        <path d="M489.705 147.132h41.915l-20.957-58.11-20.958 58.11Z" fill="#fff"/>
        <path d="m510.662 89.022 20.958 58.11h119.652l-20.958-58.11H510.662Z" fill="#067E87"/>
        <path d="m519.725 89.022 20.957 58.11h7.362l-20.956-58.11h-7.363Zm94.576 0 20.955 58.11h7.364l-20.958-58.11h-7.361Zm-75.661 0 20.957 58.11h7.361l-20.957-58.11h-7.361Zm18.915 0 20.957 58.11h7.362l-20.958-58.11h-7.361Zm18.915 0 20.957 58.11h7.362l-20.958-58.11h-7.361Zm18.915 0 20.956 58.11h7.363l-20.958-58.11h-7.361Z" fill="#0DB248"/>
        <path d="M531.618 147.131h-41.913v114.956h41.913V147.131Z" fill="#fff"/>
        <path d="M651.272 147.131H531.62v114.956h119.652V147.131Z" fill="#123E6B"/>
        <path d="M246.814 127.168h51.593l-25.796-26.365-25.797 26.365Z" fill="#8EF4EF"/>
        <path d="m272.61 100.803 25.796 26.365h81.244l-25.796-26.365H272.61Z" fill="#0DB248"/>
        <path d="M298.407 127.168h-51.593v74.351h51.593v-74.351Z" fill="#8EF4EF"/>
        <path d="M379.65 127.168h-81.244v74.351h81.244v-74.351Z" fill="#B2EA63"/>
        <path d="M646.396 171.48h-82.232v107.777h82.232V171.48Z" fill="#8EF4EF"/>
        <path d="M705.412 171.48h-59.016v107.777h59.016V171.48Z" fill="#005366"/>
        <path d="M734.436 208.725H701.54v70.533h32.896v-70.533Z" fill="#005366"/>
        <path d="M676.952 147.131h-51.839v24.349h51.839v-24.349Zm-51.839 0h51.839l-25.919-27.36-25.92 27.36Z" fill="#0DB248"/>
        <path d="M564.164 147.131h60.95l25.919-27.36h-60.95l-25.919 27.36Z" fill="#123E6B"/>
        <path d="M625.114 147.131h-60.95v24.349h60.95v-24.349Z" fill="#8EF4EF"/>
        <path d="M579.36 155.658h-8.223v10.878h8.223v-10.878Zm20.022 0h-8.224v10.878h8.224v-10.878Zm20.02 0h-8.223v10.878h8.223v-10.878Zm-40.042 31.481h-8.223v10.877h8.223v-10.877Zm20.022 0h-8.224v10.877h8.224v-10.877Zm20.02 0h-8.223v10.877h8.223v-10.877Zm20.021 0h-8.224v10.877h8.224v-10.877Zm-60.063 31.474h-8.223v10.878h8.223v-10.878Zm20.022 0h-8.224v10.878h8.224v-10.878Zm20.02 0h-8.223v10.878h8.223v-10.878Zm20.021 0h-8.224v10.878h8.224v-10.878Zm25.075-31.474h-8.224v10.877h8.224v-10.877Zm20.02 0h-8.223v10.877h8.223v-10.877Zm-20.02 31.474h-8.224v10.878h8.224v-10.878Zm20.02 0h-8.223v10.878h8.223v-10.878Zm20.021 0h-8.224v10.878h8.224v-10.878Zm20.021 0h-8.223v10.878h8.223v-10.878Zm-60.062 31.477h-8.224v10.877h8.224V250.09Zm20.02 0h-8.223v10.877h8.223V250.09Zm20.021 0h-8.224v10.877h8.224V250.09Zm20.021 0h-8.223v10.877h8.223V250.09Z" fill="#0DB248"/>
        <path d="M664.497 186.279h-8.224v1.717h8.224v-1.717Zm20.021 0h-8.223v1.717h8.223v-1.717Zm-20.021 31.475h-8.224v1.717h8.224v-1.717Zm20.021 0h-8.223v1.717h8.223v-1.717Zm20.021 0h-8.224v1.717h8.224v-1.717Zm20.021 0h-8.223v1.717h8.223v-1.717Zm-60.063 31.476h-8.224v1.718h8.224v-1.718Zm20.021 0h-8.223v1.718h8.223v-1.718Zm20.021 0h-8.224v1.718h8.224v-1.718Zm20.021 0h-8.223v1.718h8.223v-1.718Z" fill="#123E6B"/>
        <path d="M291.527 201.52h-117.92v77.739h117.92V201.52Z" fill="#fff"/>
        <path d="M379.65 201.52h-88.121v77.739h88.121V201.52Z" fill="#067E87"/>
        <path d="M173.607 201.519h117.92l44.061-39.539H217.669l-44.062 39.539Z" fill="#0DB248"/>
        <path d="M291.527 201.519h88.123l-44.061-39.539-44.062 39.539Z" fill="#067E87"/>
        <path d="m254.367 201.519 21.799-19.562h-43.598l21.799 19.562Z" fill="#005366"/>
        <path d="m210.77 201.519 23.889 12.384 19.708-12.384-21.799-19.562-21.798 19.562Z" fill="#fff"/>
        <path d="M312.652 218.266h-4.329v4.424h4.329v-4.424Zm0 13.271h-4.329v4.425h4.329v-4.425Zm0 13.275h-4.329v4.425h4.329v-4.425Zm0 13.276h-4.329v4.424h4.329v-4.424Zm12.989-39.822h-4.329v4.424h4.329v-4.424Zm0 13.271h-4.329v4.425h4.329v-4.425Zm0 13.275h-4.329v4.425h4.329v-4.425Zm0 13.276h-4.329v4.424h4.329v-4.424Zm12.989-39.822h-4.329v4.424h4.329v-4.424Zm0 13.271h-4.329v4.425h4.329v-4.425Zm0 13.275h-4.329v4.425h4.329v-4.425Zm0 13.276h-4.329v4.424h4.329v-4.424Zm12.989-39.822h-4.329v4.424h4.329v-4.424Zm0 13.271h-4.329v4.425h4.329v-4.425Zm0 13.275h-4.329v4.425h4.329v-4.425Zm0 13.276h-4.329v4.424h4.329v-4.424Zm12.988-39.822h-4.329v4.424h4.329v-4.424Zm0 13.271h-4.329v4.425h4.329v-4.425Zm0 13.275h-4.329v4.425h4.329v-4.425Zm0 13.276h-4.329v4.424h4.329v-4.424Z" fill="#005366"/>
        <path d="M190.364 210.709h-5.54v15.221h5.54v-15.221Zm22.576 0h-5.54v15.221h5.54v-15.221Zm22.575 0h-5.539v15.221h5.539v-15.221Zm22.578 0h-5.54v15.221h5.54v-15.221Zm22.576 0h-5.54v15.221h5.54v-15.221Zm-90.305 26.893h-5.54v15.221h5.54v-15.221Zm22.576 0h-5.54v15.221h5.54v-15.221Zm22.575 0h-5.539v15.221h5.539v-15.221Zm22.578 0h-5.54v15.221h5.54v-15.221Zm22.576 0h-5.54v15.221h5.54v-15.221Z" fill="#B2EA63"/>
        <path d="M190.364 209.852h-5.54v1.717h5.54v-1.717Zm22.576 0h-5.54v1.717h5.54v-1.717Zm22.575 0h-5.539v1.717h5.539v-1.717Zm22.578 0h-5.54v1.717h5.54v-1.717Zm22.576 0h-5.54v1.717h5.54v-1.717Zm-90.305 26.89h-5.54v1.717h5.54v-1.717Zm22.576 0h-5.54v1.717h5.54v-1.717Zm22.575 0h-5.539v1.717h5.539v-1.717Zm22.578 0h-5.54v1.717h5.54v-1.717Zm22.576 0h-5.54v1.717h5.54v-1.717Z" fill="#048982"/>
        <path d="M379.65 89.02h61.217L410.26 64.17l-30.61 24.85Z" fill="#fff"/>
        <path d="m410.26 64.17 30.607 24.85V60.949l-30.607-24.85V64.17Z" fill="#067E87"/>
        <path d="m379.65 89.02 30.61-24.85V36.098l-30.61 24.85v28.073Z" fill="#123E6B"/>
        <path d="M440.867 89.022H379.65V201.52h61.217V89.021Z" fill="#fff"/>
        <path d="M391.637 104.734h-3.387v3.46h3.387v-3.46Zm0 10.381h-3.387v3.46h3.387v-3.46Zm0 10.383h-3.387v3.46h3.387v-3.46Zm10.158-31.145h-3.387v3.46h3.387v-3.46Zm0 10.381h-3.387v3.46h3.387v-3.46Zm0 10.381h-3.387v3.46h3.387v-3.46Zm0 10.383h-3.387v3.46h3.387v-3.46Zm10.157-41.529h-3.387v3.46h3.387v-3.46Zm0 10.384h-3.387v3.46h3.387v-3.46Zm0 10.381h-3.387v3.46h3.387v-3.46Zm0 10.381h-3.387v3.46h3.387v-3.46Zm0 10.383h-3.387v3.46h3.387v-3.46Zm10.158-31.145h-3.386v3.46h3.386v-3.46Zm0 10.381h-3.386v3.46h3.386v-3.46Zm0 10.381h-3.386v3.46h3.386v-3.46Zm0 10.383h-3.386v3.46h3.386v-3.46Zm10.158-20.764h-3.387v3.46h3.387v-3.46Zm0 10.381h-3.387v3.46h3.387v-3.46Zm0 10.383h-3.387v3.46h3.387v-3.46Zm-40.631 10.383h-3.387v3.46h3.387v-3.46Zm10.158 0h-3.387v3.46h3.387v-3.46Zm10.157 0h-3.387v3.46h3.387v-3.46Zm10.158 0h-3.386v3.46h3.386v-3.46Zm10.158 0h-3.387v3.46h3.387v-3.46ZM379.65 201.52v77.739h185.364l-75.308-77.739H379.65Z" fill="#0DB248"/>
        <path d="M462.892 214.62c0 23.614 16.986 42.757 16.986 42.757s16.987-19.141 16.987-42.757c0-23.615-16.987-42.757-16.987-42.757s-16.986 19.145-16.986 42.757Z" fill="#8EF4EF"/>
        <path d="M479.877 206.24a.853.853 0 0 0-.856.855v56.724a.856.856 0 0 0 1.711 0v-56.72a.856.856 0 0 0-.855-.859Z" fill="#006168"/>
        <path d="m485.529 216.917-5.645 5.774-5.644-5.774a.853.853 0 0 0-1.402.261.852.852 0 0 0-.008.656c.042.104.103.2.182.28l6.263 6.404a.873.873 0 0 0 .614.26.852.852 0 0 0 .614-.26l6.266-6.404a.867.867 0 0 0 .243-.609.852.852 0 0 0-.539-.786.862.862 0 0 0-.932.198h-.012Z" fill="#006168"/>
        <path d="M413.62 216.138c0 20.856 15.005 37.764 15.005 37.764s15.006-16.908 15.006-37.764c0-20.857-15.006-37.767-15.006-37.767s-15.005 16.908-15.005 37.767Z" fill="#123E6B"/>
        <path d="M436.274 198.987c0 23.613 16.986 42.758 16.986 42.758s16.988-19.142 16.988-42.758c0-23.615-16.988-42.757-16.988-42.757s-16.986 19.156-16.986 42.757Z" fill="#067E87"/>
        <path d="M453.26 192.926a.855.855 0 0 0-.855.855v71.772a.855.855 0 1 0 1.711 0v-71.769a.86.86 0 0 0-.856-.858Z" fill="#006168"/>
        <path d="M428.626 208.553a.856.856 0 0 0-.855.855v54.985a.856.856 0 1 0 1.71 0V209.42a.854.854 0 0 0-.855-.867Z" fill="#048982"/>
        <path d="M422.68 241.536c-24.629-16.495-43.03-8.833-43.03-8.833v46.555h184.514s-34.449-31.64-60.784-31.64c-37.464-.003-46.801 16.619-80.7-6.082Z" fill="#B2EA63"/>
        <path d="M517.821 266.714c-24.491-3.934-38.02 9.365-49.577 17.103-11.843 7.93-14.901 1.258-27.505.289-20.768-1.598-18.536 14.072-31.94 12.806-11.962-1.129-25.772-22.461-41.904-.727l14.025 16.693 161.26 37.185 43.607 5.209s-41.099-84.243-67.966-88.558Z" fill="#067E87"/>
        <path d="m393.502 262.993-14.57 59.721 39.929 4.341-15.469-64.05c-1.276-5.271-8.605-5.28-9.89-.012Z" fill="#0DB248"/>
        <path d="M398.469 273.67a.855.855 0 0 0-.855.855v37.751a.855.855 0 1 0 1.711 0v-37.748a.844.844 0 0 0-.25-.606.858.858 0 0 0-.606-.252Z" fill="#048982"/>
        <path d="m405.487 291.293-6.157 6.295v-6.451a.847.847 0 0 0-.134-.458l-5.418-8.551a.85.85 0 0 0-.537-.379.85.85 0 0 0-.89.344.86.86 0 0 0-.023.953l5.285 8.346v8.307a.854.854 0 0 0 1.472.6l7.632-7.8a.856.856 0 0 0-.625-1.456.858.858 0 0 0-.603.259l-.002-.009Z" fill="#048982"/>
        <path d="m417.287 260.823-14.571 59.721 39.919 4.341-15.469-64.05c-1.266-5.271-8.593-5.28-9.879-.012Z" fill="#0DB248"/>
        <path d="M422.255 271.504a.856.856 0 0 0-.856.855v54.264a.853.853 0 0 0 1.46.604.85.85 0 0 0 .251-.604v-54.264a.855.855 0 0 0-.855-.855Z" fill="#048982"/>
        <path d="m429.272 289.12-6.157 6.297v-6.451a.862.862 0 0 0-.132-.458l-5.418-8.552a.86.86 0 0 0-1.452.919l5.285 8.346v8.307a.855.855 0 0 0 1.034.841.857.857 0 0 0 .438-.241l7.632-7.8a.861.861 0 0 0-.015-1.213.856.856 0 0 0-1.213.015l-.002-.01Z" fill="#048982"/>
        <path d="M479.877 347.46c-15.291 2.894-25.74-25.63-38.792-30.966-9.92-4.052-15.008 5.787-22.936-4.63-7.928-10.418-28.316-22.576-42.192-18.233l16.991 68.005 116.378-4.053-4.814-15.615s-9.344 2.598-24.635 5.492Z" fill="#fff"/>
        <path d="M513.562 279.259c-24.339 4.821-22.562 20.149-30.852 31.447-8.496 11.575-13.593 6.365-25.767 9.839-20.06 5.721-12.743 19.68-25.769 23.152-11.631 3.099-31.714-12.155-39.642 13.891l18.751 10.816h109.833l19.242-44.565 7.012-27.267s-6.109-22.601-32.808-17.313Zm-191.864-.001 30.633 34.751h57.952l-30.633-34.751h-57.952Z" fill="#005366"/>
        <path d="M410.283 314.01h-57.951v54.395h57.951V314.01Z" fill="#B2EA63"/>
        <path d="M352.331 314.01h-30.633v54.395h30.633V314.01Zm-30.633-.001h30.633l-30.633-34.751v34.751Z" fill="#fff"/>
        <path d="M387.777 327.6h-12.459v8.744h12.459V327.6Zm0 20.031h-12.459v8.744h12.459v-8.744Z" fill="#0DB248"/>
        <path d="M387.777 335.486h-12.459v1.717h12.459v-1.717Zm0 20.03h-12.459v1.717h12.459v-1.717Z" fill="#048982"/>
        <path d="M513.561 279.258h51.593l-25.797-26.365-25.796 26.365Z" fill="#fff"/>
        <path d="m539.355 252.893 25.798 26.365h81.242l-25.796-26.365h-81.244Z" fill="#0DB248"/>
        <path d="M565.153 279.258h-51.592v89.145h51.592v-89.145Z" fill="#fff"/>
        <path d="M646.398 279.258h-81.244v89.145h81.244v-89.145Z" fill="#B2EA63"/>
        <path d="M576.995 288.748h-3.387v3.46h3.387v-3.46Zm0 10.383h-3.387v3.46h3.387v-3.46Zm0 10.381h-3.387v3.46h3.387v-3.46Zm0 10.383h-3.387v3.459h3.387v-3.459Zm0 10.38h-3.387v3.46h3.387v-3.46Zm10.158-41.527h-3.386v3.46h3.386v-3.46Zm0 10.383h-3.386v3.46h3.386v-3.46Zm0 10.381h-3.386v3.46h3.386v-3.46Zm0 10.383h-3.386v3.459h3.386v-3.459Zm0 10.38h-3.386v3.46h3.386v-3.46Zm10.158-41.527h-3.386v3.46h3.386v-3.46Zm0 10.383h-3.386v3.46h3.386v-3.46Zm0 10.381h-3.386v3.46h3.386v-3.46Zm0 10.383h-3.386v3.459h3.386v-3.459Zm0 10.38h-3.386v3.46h3.386v-3.46Zm10.158-41.527h-3.387v3.46h3.387v-3.46Zm0 10.383h-3.387v3.46h3.387v-3.46Zm0 10.381h-3.387v3.46h3.387v-3.46Zm0 10.383h-3.387v3.459h3.387v-3.459Zm0 10.38h-3.387v3.46h3.387v-3.46Zm10.158-41.527h-3.387v3.46h3.387v-3.46Zm0 10.383h-3.387v3.46h3.387v-3.46Zm0 10.381h-3.387v3.46h3.387v-3.46Zm0 10.383h-3.387v3.459h3.387v-3.459Zm0 10.38h-3.387v3.46h3.387v-3.46Zm10.156-41.527h-3.387v3.46h3.387v-3.46Zm0 10.383h-3.387v3.46h3.387v-3.46Zm0 10.381h-3.387v3.46h3.387v-3.46Zm0 10.383h-3.387v3.459h3.387v-3.459Zm0 10.38h-3.387v3.46h3.387v-3.46Zm10.158-41.527h-3.386v3.46h3.386v-3.46Zm0 10.383h-3.386v3.46h3.386v-3.46Zm0 10.381h-3.386v3.46h3.386v-3.46Zm0 10.383h-3.386v3.459h3.386v-3.459Zm0 10.38h-3.386v3.46h3.386v-3.46Zm-60.946 10.381h-3.387v3.46h3.387v-3.46Zm10.158 0h-3.386v3.46h3.386v-3.46Zm10.158 0h-3.386v3.46h3.386v-3.46Zm10.158 0h-3.387v3.46h3.387v-3.46Zm10.158 0h-3.387v3.46h3.387v-3.46Zm10.156 0h-3.387v3.46h3.387v-3.46Zm10.158 0h-3.386v3.46h3.386v-3.46Z" fill="#005366"/>
        <path d="m611.363 252.893 25.798 26.365h2.576l-25.798-26.365h-2.576Zm-10.891 0 25.797 26.365h2.576l-25.796-26.365h-2.577Zm-10.891 0 25.796 26.365h2.576l-25.796-26.365h-2.576Zm-10.891 0 25.797 26.365h2.577l-25.798-26.365h-2.576Zm-10.892 0 25.796 26.365h2.578l-25.797-26.365h-2.577Zm-10.892 0 25.798 26.365h2.576l-25.796-26.365h-2.578Zm-10.889 0 25.796 26.365h2.577l-25.798-26.365h-2.575Z" fill="#B2EA63"/>
        <path d="M183.806 292.273c0 20.278 14.586 36.696 14.586 36.696s14.581-16.43 14.581-36.699-14.581-36.696-14.581-36.696-14.586 16.431-14.586 36.699Z" fill="#067E87"/>
        <path d="M198.391 284.955a.852.852 0 0 0-.604.251.85.85 0 0 0-.251.604v48.69a.853.853 0 0 0 .855.855.856.856 0 0 0 .856-.855v-48.686a.865.865 0 0 0-.25-.607.844.844 0 0 0-.278-.186.84.84 0 0 0-.328-.066Zm48.7 11.658c0 20.269 14.581 36.699 14.581 36.699s14.581-16.43 14.581-36.699c0-20.268-14.578-36.699-14.578-36.699s-14.584 16.431-14.584 36.699Z" fill="#123E6B"/>
        <path d="M261.676 294.934a.856.856 0 0 0-.856.855v48.69a.853.853 0 0 0 1.46.604.852.852 0 0 0 .251-.604v-48.682a.85.85 0 0 0-.248-.61.865.865 0 0 0-.278-.188.862.862 0 0 0-.329-.065Z" fill="#006168"/>
        <path d="M270.452 293.794c0 26.622 20.852 48.204 20.852 48.204s20.851-21.582 20.851-48.204-20.851-48.204-20.851-48.204-20.852 21.582-20.852 48.204Z" fill="#B2EA63"/>
        <path d="M291.303 284.451a.852.852 0 0 0-.604.251.852.852 0 0 0-.251.604v63.953a.855.855 0 1 0 1.711 0v-63.948a.86.86 0 0 0-.856-.86Z" fill="#123E6B"/>
        <path d="M302.962 358.123c-13.027-2.36-5.71-11.848-25.769-15.734-12.175-2.36-21.311 6.302-31.839 1.477-14.319-6.562-19.592-11.93-44.15-11.93-15.513 0-54.89 1.197-69.185 36.471h189.682v-11.305c-6.712.43-13.565 1.969-18.739 1.021Z" fill="#067E87"/>
        <path d="M570.626 74.043a14.463 14.463 0 0 0-10.854 4.94c-.253-8.037-6.698-14.49-14.63-14.49a14.315 14.315 0 0 0-6.175 1.409c0-.11.015-.214.015-.323 0-8.273-6.559-14.977-14.652-14.977a14.368 14.368 0 0 0-8.785 3.01c-.758-7.544-6.994-13.43-14.576-13.43a14.409 14.409 0 0 0-9.749 3.816c-2.15-5.537-7.43-9.46-13.615-9.46-7.717 0-14.025 6.101-14.598 13.84a14.325 14.325 0 0 0-7.488-2.119c-8.094 0-14.655 6.705-14.655 14.976v27.781h144.417c0-8.267-6.561-14.973-14.655-14.973Z" fill="#B2EA63"/>
        <path d="M837.111 143.851a11.456 11.456 0 0 0-7.012 2.403c-.606-6.022-5.583-10.72-11.631-10.72a11.503 11.503 0 0 0-7.782 3.046c-1.711-4.421-5.93-7.553-10.866-7.553-6.158 0-11.198 4.871-11.653 11.049a11.442 11.442 0 0 0-5.978-1.692c-6.459 0-11.696 5.352-11.696 11.955v.395h77.914c-1.333-5.112-5.882-8.883-11.296-8.883Z" fill="#8EF4EF"/>
        <path d="M234.388 54.521c8.712 0 15.774-7.062 15.774-15.772 0-8.711-7.062-15.772-15.774-15.772-8.711 0-15.773 7.061-15.773 15.772 0 8.71 7.062 15.772 15.773 15.772Z" fill="#C0FFFA"/>
        <path d="M234.389 43.343a4.596 4.596 0 1 0 0-9.192 4.596 4.596 0 0 0 0 9.192Zm316.6-22.506-1.686 1.724-1.687-1.724a.858.858 0 0 0-1.228 1.197l2.301 2.35a.851.851 0 0 0 1.228 0l2.3-2.352a.862.862 0 0 0 .174-.937.86.86 0 0 0-1.126-.45.856.856 0 0 0-.276.19v.002Zm66.212 17.899-1.687 1.723-1.686-1.724a.858.858 0 0 0-1.228 1.198l2.3 2.351a.866.866 0 0 0 .614.26.86.86 0 0 0 .614-.26l2.301-2.351a.856.856 0 0 0-.015-1.213.86.86 0 0 0-1.213.016Zm67.112 66.203-1.686 1.724-1.687-1.724a.855.855 0 0 0-1.212-.016.858.858 0 0 0-.016 1.213l2.301 2.351a.846.846 0 0 0 .614.26.865.865 0 0 0 .614-.26l2.3-2.351a.858.858 0 1 0-1.228-1.197ZM409.919.253l-1.687 1.724-1.686-1.724a.868.868 0 0 0-.603-.259.854.854 0 0 0-.799.52.858.858 0 0 0 .174.936l2.3 2.352a.854.854 0 0 0 1.228 0l2.301-2.352a.86.86 0 0 0-.016-1.212.857.857 0 0 0-1.212.015Zm-7.774 11.129-1.686 1.724-1.687-1.724a.853.853 0 0 0-.932-.198.855.855 0 0 0-.478 1.115.87.87 0 0 0 .182.28l2.301 2.352a.86.86 0 0 0 .614.26.853.853 0 0 0 .614-.26l2.3-2.352a.856.856 0 1 0-1.228-1.197Zm-19.373 19.285-1.687 1.724-1.688-1.724a.856.856 0 1 0-1.226 1.197l2.3 2.352a.852.852 0 0 0 .947.192.852.852 0 0 0 .281-.192L384 31.864a.86.86 0 0 0-.016-1.212.857.857 0 0 0-1.212.015Z" fill="#fff"/>
        <path d="m143.54 147.554-1.687 1.724-1.686-1.724a.858.858 0 0 0-1.228 1.197l2.3 2.352a.862.862 0 0 0 .948.192.858.858 0 0 0 .28-.192l2.301-2.352a.855.855 0 0 0-.016-1.213.858.858 0 0 0-1.212.016Z" fill="#57C5C6"/>
        <path d="M633.686 53.661 632 55.385l-1.687-1.724a.855.855 0 0 0-1.212-.015.857.857 0 0 0-.016 1.212l2.301 2.352a.851.851 0 0 0 1.228 0l2.3-2.352a.858.858 0 1 0-1.228-1.197ZM327.73 36.179c-2.213 0-4.4.47-6.418 1.378-.467-5.955-5.333-10.641-11.288-10.641-5.956 0-10.837 4.71-11.289 10.686a17.745 17.745 0 0 0-5.425-.847c-8.698 0-15.958 6.267-17.711 14.621h68.056c-.564-8.49-7.471-15.197-15.925-15.197Zm396.631 20.737a18.49 18.49 0 0 0-7.6 1.633c-.552-7.052-6.314-12.6-13.356-12.6s-12.828 5.576-13.358 12.656a21.012 21.012 0 0 0-6.423-1.002c-10.3 0-18.895 7.42-20.973 17.312h80.585c-.687-10.057-8.865-18-18.875-18ZM155.632 70.389c-2.081 0-4.138.441-6.035 1.296-.439-5.598-5.015-10.003-10.604-10.003-5.59 0-10.187 4.428-10.605 10.046a16.67 16.67 0 0 0-5.1-.795c-8.177 0-15.002 5.89-16.652 13.745h63.985c-.555-7.977-7.048-14.29-14.989-14.29Z" fill="#fff"/>
        <path d="M779.512 167.689h-3.4l-3.532 189.5h13.863l-3.532-189.5h-3.399Z" fill="#8EF4EF"/>
        <path d="M786.925 164.395H772.1c-1.909 0-3.455 2.093-3.455 4.677 0 2.584 1.539 4.676 3.455 4.676h14.825c1.909 0 3.455-2.093 3.455-4.676 0-2.582-1.546-4.677-3.455-4.677Z" fill="#8EF4EF"/>
        <path d="M764.687 168.092a11.785 11.785 0 0 0-6.158 1.93l-42.708 28.033c-.833.545-.188 1.83.748 1.488l44.139-16.118a7.573 7.573 0 0 0 3.652-2.834s7.11-9.162 7.298-9.637l-.503-3.036-6.468.174Zm25.624 4.161a7.559 7.559 0 0 0-4.276-1.746s-11.492-1.577-11.996-1.5l-2.378 1.951 3.38 5.519a11.778 11.778 0 0 0 4.751 4.368l45.629 22.968c.889.448 1.677-.753.915-1.393l-36.025-30.167Z" fill="#fff"/>
        <path d="M775.607 106.021c-.057-.994-1.49-1.078-1.663-.098l-8.115 46.282a7.57 7.57 0 0 0 .629 4.58s4.379 10.739 4.697 11.138l2.88 1.084 3.089-5.687a11.796 11.796 0 0 0 1.409-6.299l-2.926-51Z" fill="#fff"/>
        <path d="M772.1 164.395c-1.909 0-3.455 2.093-3.455 4.677 0 2.584 1.539 4.676 3.455 4.676 1.915 0 3.455-2.093 3.455-4.676 0-2.582-1.547-4.677-3.455-4.677Z" fill="#8EF4EF"/>
        <path d="M772.099 167.301c-.723 0-1.31.792-1.31 1.772s.587 1.771 1.31 1.771c.724 0 1.309-.793 1.309-1.771 0-.979-.585-1.772-1.309-1.772Z" fill="#E7E5E5"/>
        <path d="M770.989 165.359h-.886c-1.158 0-6.14 1.771-6.115 3.671.023 1.753 5.116 3.649 6.129 3.646h.886c1.348 0 2.437-1.642 2.432-3.663-.005-2.022-1.098-3.657-2.446-3.654Z" fill="#0DB248"/>
        <path d="M815.112 341.535c-.929.007-1.857.064-2.779.171.083-1.048.155-2.09.155-3.159 0-20.915-16.591-37.864-37.052-37.864a36.28 36.28 0 0 0-14.88 3.195c-1.081-13.79-12.281-24.642-26.135-24.642v89.07h106.915c.006-14.708-11.737-26.771-26.224-26.771Z" fill="#067E87"/>
        <path d="M49.8 328.616a22.341 22.341 0 0 0-9.165-1.969c-12.616 0-22.844 10.453-22.844 23.349 0 .658.044 1.307.096 1.953a15.788 15.788 0 0 0-1.71-.133c-8.932 0-16.174 7.426-16.174 16.49h118.6l33.992-47.811-86.689-7.089c-8.49 0-15.44 6.706-16.107 15.21Z" fill="#0DB248"/>
        <path d="M673.532 336.293h-4.223v31.141h4.223v-31.141Zm47.945 0h-4.223v31.141h4.223v-31.141Z" fill="#8EF4EF"/>
        <path d="M675.334 365.523h-7.827a2.909 2.909 0 0 0-2.898 2.898V369h13.622v-.579a2.888 2.888 0 0 0-.849-2.049 2.899 2.899 0 0 0-2.048-.849Zm47.946 0h-7.827a2.897 2.897 0 0 0-2.897 2.898V369h13.621v-.579a2.91 2.91 0 0 0-2.897-2.898Z" fill="#8EF4EF"/>
        <path d="M656.306 340.325h73.605l14.059-46.956h-73.605l-14.059 46.956Z" fill="#fff"/>
        <path d="M668.213 314.686h18.893l5.088-16.995h-18.893l-5.088 16.995Zm-6.381 21.319h18.891l5.09-16.997H666.92l-5.088 16.997Zm29.506-21.319h18.893l5.088-16.995h-18.893l-5.088 16.995Zm-6.382 21.319h18.893l5.089-16.997h-18.894l-5.088 16.997Zm29.507-21.319h18.893l5.088-16.995h-18.893l-5.088 16.995Zm-6.382 21.319h18.893l5.088-16.997h-18.893l-5.088 16.997Z" fill="#8EF4EF"/>
        <path d="m656.306 340.326 2.239 4.175h73.604l-2.239-4.175h-73.604Z" fill="#B2EA63"/>
        <path d="m729.91 340.325 2.239 4.175 14.059-46.958-2.238-4.173-14.06 46.956Z" fill="#0DB248"/>
        <path d="M756.078 316.436c0 18.436 13.261 33.38 13.261 33.38s13.262-14.944 13.262-33.38c0-18.435-13.262-33.377-13.262-33.377s-13.261 14.944-13.261 33.377Z" fill="#123E6B"/>
        <path d="M770.198 312.369h-1.718v56.034h1.718v-56.034Z" fill="#006168"/>
        <path d="M789.276 316.436c0 18.436 13.263 33.38 13.263 33.38s13.262-14.944 13.262-33.38c0-18.435-13.262-33.377-13.262-33.377s-13.263 14.944-13.263 33.377Z" fill="#0DB248"/>
        <path d="M803.396 312.369h-1.717v56.034h1.717v-56.034Z" fill="#006168"/>
        <path d="M822.477 316.436c0 18.436 13.262 33.38 13.262 33.38s13.262-14.944 13.262-33.38c0-18.435-13.262-33.377-13.262-33.377s-13.262 14.944-13.262 33.377Z" fill="#8EF4EF"/>
        <path d="M836.596 312.369h-1.717v56.034h1.717v-56.034Z" fill="#006168"/>
        <path d="M79.566 337.66h-3.97v29.273h3.97V337.66Zm45.068 0h-3.97v29.273h3.97V337.66Z" fill="#8EF4EF"/>
        <path d="M62.849 341.451h69.19l19.233-64.14H82.084l-19.235 64.14Z" fill="#fff"/>
        <path d="M80.06 297.349h17.76l4.784-15.976h-17.76l-4.784 15.976Zm-5.999 20.039h17.76l4.783-15.978H78.846l-4.785 15.978Zm27.736-20.039h17.761l4.784-15.976h-17.761l-4.784 15.976Zm-5.998 20.039h17.759l4.784-15.978h-17.759l-4.784 15.978Zm27.736-20.039h17.761l4.784-15.976h-17.761l-4.784 15.976Zm-5.999 20.039h17.759l4.784-15.978h-17.761l-4.782 15.978Zm-49.461 20.039h17.76l4.783-15.978H72.86l-4.784 15.978Zm21.738 0h17.758l4.784-15.978H94.597l-4.784 15.978Zm21.737 0h17.759l4.784-15.978h-17.759l-4.784 15.978Z" fill="#C0FFFA"/>
        <path d="m62.849 341.449 2.105 3.924h69.189l-2.104-3.924h-69.19Z" fill="#067E87"/>
        <path d="m132.039 341.451 2.104 3.924 19.233-64.141-2.104-3.923-19.233 64.14Z" fill="#123E6B"/>
        <path d="M81.26 365.137h-7.354a2.725 2.725 0 0 0-2.723 2.722v.544h12.8v-.544a2.723 2.723 0 0 0-2.723-2.722Zm45.07 0h-7.355a2.725 2.725 0 0 0-2.723 2.722v.544h12.804v-.544a2.721 2.721 0 0 0-2.726-2.722Z" fill="#8EF4EF"/>
    </g>
    <defs>
        <clipPath id="a">
            <path fill="#fff" d="M0 0h849v369H0z"/>
        </clipPath>
    </defs>
</svg>
