<svg width="102" height="47" fill="none" xmlns="http://www.w3.org/2000/svg">
    <path d="M52.764 36.024v-.945a1.17 1.17 0 01.182-.745l5.718-8.976v-.076h-5.248c-.24 0-.355-.117-.355-.343v-1.146c0-.226.116-.343.355-.343h7.013a.303.303 0 01.251.089c.066.067.098.16.088.254v1.322c.005.28-.072.553-.223.787l-5.504 8.532v.084h5.586c.223 0 .339.109.339.326v1.121c0 .251-.116.377-.339.377h-7.525a.295.295 0 01-.243-.077.303.303 0 01-.095-.241zm18.437.318h-6.376a.297.297 0 01-.252-.083.302.302 0 01-.088-.252V23.794a.31.31 0 01.34-.343h6.376c.208 0 .316.117.316.343v1.027c0 .226-.108.335-.316.335H66.66c-.166 0-.24.067-.24.2v3.392c0 .134.074.2.24.2h3.852c.241 0 .357.118.357.343v1.02c0 .225-.116.342-.357.342H66.66c-.166 0-.24.067-.24.2v3.568c0 .15.074.217.24.217h4.54c.208 0 .316.117.316.343v1.028c0 .225-.108.334-.316.334z" fill="#fff"/>
    <path fill-rule="evenodd" clip-rule="evenodd" d="M75.412 36.339h1.365a.353.353 0 00.292-.075.286.286 0 00.102-.26v-4.417c0-.134.083-.2.266-.2h2.217l2.355 4.61c.121.234.396.37.678.333h1.365c.348 0 .45-.133.284-.4L81.9 31.243v-.083c1.38-.377 2.261-1.603 2.089-2.906v-1.67c.055-.848-.277-1.68-.916-2.297a3.62 3.62 0 00-2.52-.835h-5.14a.36.36 0 00-.278.088.293.293 0 00-.097.254v12.21a.286.286 0 00.097.251.35.35 0 00.278.083zm4.728-6.547h-2.73c-.156 0-.239-.067-.257-.184v-4.234c0-.134.083-.2.238-.2h2.749c.448-.057.9.082 1.22.374.32.291.472.703.41 1.112v1.67c.057.406-.098.812-.418 1.099-.32.286-.768.42-1.212.363zm9.722 6.538h2.017a2.796 2.796 0 002.261-.814 2.846 2.846 0 00.813-2.277v-6.663a3.121 3.121 0 00-.827-2.29 3.1 3.1 0 00-2.264-.834H89.88a3.125 3.125 0 00-2.28.833 3.121 3.121 0 00-.827 2.29v6.664a2.845 2.845 0 00.818 2.285 2.795 2.795 0 002.272.805zm1.744-1.666h-1.413l-.033-.034a1.275 1.275 0 01-1.056-.393 1.298 1.298 0 01-.34-1.081v-6.497a1.306 1.306 0 01.365-1.075c.279-.283.671-.42 1.064-.374h1.413c.399-.05.798.093 1.077.384.28.291.407.698.344 1.098v6.497c.064.4-.064.806-.344 1.097-.28.29-.679.43-1.077.378z" fill="#fff"/>
    <path fill-rule="evenodd" clip-rule="evenodd" d="M54.153 18.756h1.93c.103 0 .159-.049.174-.146v-.463a.149.149 0 00-.04-.12.14.14 0 00-.118-.042h-1.804a.576.576 0 01-.49-.171.61.61 0 01-.167-.503v-.39c0-.09.032-.09.103-.09h2.374c.11 0 .158-.056.158-.17V15.5a1.444 1.444 0 00-.364-1.056 1.394 1.394 0 00-1.028-.366h-.728c-.38-.047-.76.087-1.03.364-.27.278-.402.668-.355 1.058v1.835c-.023.382.105.757.356 1.04.277.266.65.404 1.029.381zm1.139-2.55h-1.567a.085.085 0 01-.093-.007.09.09 0 01-.033-.09v-.585a.827.827 0 01.15-.511.668.668 0 01.499-.155h.49a.66.66 0 01.49.154.744.744 0 01.151.512v.585c0 .097-.032.097-.087.097z" fill="#703CBB"/>
    <path d="M59.34 18.756h-.568a.14.14 0 01-.112-.045.149.149 0 01-.038-.117V14.23a.14.14 0 01.038-.115.135.135 0 01.112-.04h.569a.132.132 0 01.111.04.14.14 0 01.038.115v.333a.879.879 0 01.9-.488h.395a1.33 1.33 0 011.003.366c.247.29.372.67.347 1.056v3.096a.149.149 0 01-.043.124.14.14 0 01-.123.038h-.56c-.103 0-.15-.056-.15-.162V15.53a.604.604 0 00-.16-.504.567.567 0 00-.487-.17h-.427c-.481 0-.726.26-.726.812v2.957a.144.144 0 01-.119.13z" fill="#703CBB"/>
    <path fill-rule="evenodd" clip-rule="evenodd" d="M64.7 18.756h1.927c.111 0 .166-.049.166-.146v-.463a.149.149 0 00-.043-.125.14.14 0 00-.123-.038H64.85a.567.567 0 01-.487-.17.604.604 0 01-.16-.504v-.39c0-.09.031-.09.094-.09h2.37a.14.14 0 00.12-.044.149.149 0 00.038-.126v-1.162a1.447 1.447 0 00-.364-1.056 1.39 1.39 0 00-1.026-.366H64.7a1.236 1.236 0 00-1.022.371 1.314 1.314 0 00-.36 1.051v1.836c-.025.384.107.76.363 1.04.274.267.643.405 1.019.382zm1.138-2.55h-1.564c-.056 0-.087-.033-.119-.098v-.585a.746.746 0 01.15-.512.65.65 0 01.49-.155h.49a.65.65 0 01.49.155c.113.144.17.327.157.512v.585a.09.09 0 01-.025.071.086.086 0 01-.07.026z" fill="#703CBB"/>
    <path d="M69.885 18.759h-.558c-.105 0-.153-.057-.153-.163v-4.371a.14.14 0 01.04-.115.137.137 0 01.113-.04h.574a.137.137 0 01.114.04.14.14 0 01.04.115v.35h.04a.69.69 0 01.347-.367 1.18 1.18 0 01.582-.138h.34a.137.137 0 01.114.04.14.14 0 01.039.115v.48c0 .114-.049.163-.154.146h-.55c-.5 0-.758.277-.758.814v2.906c-.017.13-.065.188-.17.188z" fill="#703CBB"/>
    <path fill-rule="evenodd" clip-rule="evenodd" d="M74.008 19.165h.4c.384.097.776-.118.963-.528v.796a.758.758 0 01-.156.58.522.522 0 01-.487.198h-1.566c-.101 0-.156.056-.156.176v.547c0 .11.055.166.156.166h1.66c.372.028.737-.126 1.01-.426.272-.333.406-.79.369-1.25v-5.176c0-.12-.055-.176-.157-.176h-1.981a1.269 1.269 0 00-1.01.417 1.807 1.807 0 00-.36 1.203v1.852c-.025.438.096.87.336 1.204.263.294.618.445.979.417zm1.323-4.047v2.269a.867.867 0 01-.164.671.596.596 0 01-.556.236h-.43a.516.516 0 01-.477-.198.749.749 0 01-.15-.57v-1.741a.748.748 0 01.15-.57.516.516 0 01.476-.199h1.057c.094 0 .094.028.094.102z" fill="#703CBB"/>
    <path d="M78.49 21.099h-.585a.186.186 0 01-.147-.048.16.16 0 01-.051-.137v-.528a.16.16 0 01.046-.144.186.186 0 01.152-.05h.258c.337.033.675-.057.943-.25.222-.236.375-.52.447-.825h-.457a.225.225 0 01-.228-.176l-1.49-4.695c0-.12 0-.176.14-.176h.754c.112-.005.208.072.219.176l1.23 4.102 1.222-4.102a.19.19 0 01.075-.133.219.219 0 01.153-.043h.715c.14 0 .199.065.179.185l-1.539 5.029c-.103.5-.338.968-.685 1.361a1.83 1.83 0 01-1.35.454zm9.062-2.343h-.748a.192.192 0 01-.183-.163l-1.035-4.368c0-.105 0-.154.111-.154h.645a.157.157 0 01.126.035c.035.03.056.073.057.12l.653 3.472h.064l.796-3.473c0-.044.018-.086.05-.115a.15.15 0 01.117-.04h.597a.176.176 0 01.183.155l.796 3.473h.064l.66-3.473a.164.164 0 01.056-.115.157.157 0 01.12-.04h.653c.095 0 .135.05.103.155l-1.035 4.368a.173.173 0 01-.054.118.165.165 0 01-.12.045h-.797a.184.184 0 01-.183-.163l-.717-3.408h-.063l-.709 3.408a.18.18 0 01-.068.128.172.172 0 01-.139.035z" fill="#703CBB"/>
    <path fill-rule="evenodd" clip-rule="evenodd" d="M94.01 18.753h1.928c.11 0 .174-.049.19-.146v-.463a.148.148 0 00-.043-.124.14.14 0 00-.123-.038H94.16a.567.567 0 01-.488-.171.603.603 0 01-.16-.503v-.39c0-.09.031-.09.095-.09h2.37a.14.14 0 00.12-.043.149.149 0 00.037-.127v-1.16a1.445 1.445 0 00-.363-1.056 1.39 1.39 0 00-1.027-.366h-.734a1.236 1.236 0 00-1.022.371 1.313 1.313 0 00-.36 1.05v1.835c-.035.387.1.77.366 1.044.267.274.64.412 1.016.377zm1.138-2.55h-1.564c-.055 0-.087-.032-.118-.097v-.584a.745.745 0 01.15-.512.66.66 0 01.49-.154h.49a.636.636 0 01.489.154c.114.144.17.327.158.512v.584a.09.09 0 01-.025.072.086.086 0 01-.07.026zm3.336-4.31v6.686c0 .115.046.177.124.177h2.018c.373.023.739-.127 1.013-.416.25-.307.379-.716.358-1.133v-2.055a1.669 1.669 0 00-.358-1.133 1.283 1.283 0 00-1.013-.408h-.389c-.367-.049-.721.167-.889.54v-2.258a.163.163 0 00-.037-.125.123.123 0 00-.11-.043h-.57a.123.123 0 00-.11.043.163.163 0 00-.037.125zm2.041 6.013h-1.091c-.044.007-.087-.023-.101-.07v-2.489a.806.806 0 01.158-.659.603.603 0 01.566-.227h.468c.421 0 .631.248.631.744v1.957c0 .496-.21.744-.631.744zM23.448 0C10.498 0 0 10.498 0 23.448c0 12.95 10.498 23.449 23.448 23.449 12.95 0 23.449-10.499 23.449-23.449A23.448 23.448 0 0023.448 0zM22.32 34.92a7.59 7.59 0 01-4.342 1.416c-2.7 0-5.21-1.476-7.052-4.168a16.63 16.63 0 01-2.7-8.685.278.278 0 01.173-.278l1.832-.825a.295.295 0 01.4.27 14.4 14.4 0 002.293 8.12c1.38 2.014 3.178 3.117 5.054 3.117a5.21 5.21 0 002.866-.886.278.278 0 01.382.061c.36.494.754.962 1.181 1.398a.286.286 0 01-.087.46zm6.522 1.381c2.71 0 5.202-1.476 7.052-4.168a16.874 16.874 0 002.692-9.458 16.872 16.872 0 00-2.718-9.492 12.066 12.066 0 00-1.276-1.554.278.278 0 00-.322-.061l-1.824.825a.287.287 0 00-.069.478 8.59 8.59 0 011.494 1.684 14.408 14.408 0 012.405 8.12c.06 2.876-.74 5.704-2.301 8.12-1.38 2.015-3.179 3.118-5.054 3.118-1.876 0-3.665-1.103-5.055-3.117a14.468 14.468 0 01-2.293-8.12c0-1.65.817-3.474 1.902-3.474 1.086 0 1.902 1.84 1.902 3.473a15.44 15.44 0 01-1.268 6.28.286.286 0 000 .251c.182.345.385.679.608.999.192.281.401.551.625.808a.286.286 0 00.47-.053 17.585 17.585 0 001.98-8.285c0-3.274-1.902-5.879-4.343-5.879-2.44 0-4.342 2.58-4.342 5.88-.06 3.35.876 6.641 2.692 9.457 1.833 2.692 4.334 4.168 7.043 4.168z" fill="#703CBB"/>
    <path d="M93.793 24.62L87.93 35.173" stroke="#fff" stroke-width="2"/>
</svg>
